<svg width="370" height="85" viewBox="0 0 370 85" fill="none" xmlns="http://www.w3.org/2000/svg">
<path d="M92 34.7949V24.4537H96.408V22.5042C96.408 15.3935 98.2726 10.3946 102.002 7.5029C105.391 4.87116 110.573 3.55762 117.547 3.55762C118.253 3.55762 118.987 3.57154 119.751 3.59939L118.991 14.4187C114.022 14.4187 110.836 14.9711 109.437 16.0711C108.039 17.1712 107.342 19.3155 107.342 22.4996V24.4537H117.339V34.7949H107.342V64.9462H96.4125V34.7949H92Z" fill="#650B0E"/>
<path d="M122.965 15.2861V4.07227H133.894V15.2815H122.965V15.2861ZM122.965 64.9456V19.4542H133.894V64.9456H122.965Z" fill="#650B0E"/>
<path d="M139.446 64.946V19.4546H150.376V23.8269C153.453 20.68 157.816 19.0786 163.468 19.0229L162.749 30.8402C157.947 30.8402 154.684 31.6943 152.964 33.407C151.24 35.1197 150.38 37.9185 150.38 41.8035V64.946H139.446Z" fill="#650B0E"/>
<path d="M163.128 42.4391C163.128 35.9224 165.382 30.3898 169.885 25.8411C174.388 21.2924 179.891 19.0181 186.385 19.0181C193.219 19.0181 198.799 21.362 203.121 26.0546C207.443 30.7471 209.602 36.4376 209.602 43.1307C209.602 43.8548 209.548 44.8666 209.434 46.1709H174.229C175.162 49.1275 176.737 51.4204 178.954 53.0589C181.172 54.6973 183.932 55.5142 187.236 55.5142C189.947 55.5142 192.214 55.0501 194.034 54.1218C195.858 53.1935 197.487 51.7314 198.926 49.7355L208.077 54.9062C203.334 62.263 196.382 65.9437 187.232 65.9437C180.285 65.9437 174.528 63.7111 169.966 59.2506C165.404 54.7901 163.128 49.1878 163.128 42.4391ZM174.483 37.3567H198.08C195.876 32.0282 191.979 29.364 186.385 29.364C183.788 29.364 181.416 30.102 179.266 31.578C177.121 33.054 175.528 34.9802 174.483 37.3567Z" fill="#650B0E"/>
<path d="M208.383 19.4556H219.312L227.318 48.9152L235.369 19.4556H246.552L254.558 48.9152L262.609 19.4556H273.118L260.555 64.9469H247.964L240.673 37.8777L233.383 64.9469H220.964L208.383 19.4556Z" fill="#650B0E"/>
<path d="M271.712 42.4391C271.712 35.9224 273.966 30.3898 278.469 25.8411C282.972 21.2924 288.475 19.0181 294.969 19.0181C301.803 19.0181 307.383 21.362 311.705 26.0546C316.027 30.7471 318.186 36.4376 318.186 43.1307C318.186 43.8548 318.132 44.8666 318.018 46.1709H282.813C283.746 49.1275 285.321 51.4204 287.538 53.0589C289.756 54.6973 292.516 55.5142 295.82 55.5142C298.531 55.5142 300.798 55.0501 302.618 54.1218C304.442 53.1935 306.071 51.7314 307.51 49.7355L316.661 54.9062C311.918 62.263 304.966 65.9437 295.816 65.9437C288.869 65.9437 283.112 63.7111 278.55 59.2506C273.988 54.7901 271.712 49.1878 271.712 42.4391ZM283.067 37.3567H306.664C304.46 32.0282 300.563 29.364 294.969 29.364C292.372 29.364 290 30.102 287.85 31.578C285.705 33.054 284.112 34.9802 283.067 37.3567Z" fill="#650B0E"/>
<path d="M322.383 64.9456V4.07227H333.226V23.1024C336.983 20.3779 341.259 19.0179 346.061 19.0179C352.528 19.0179 358.022 21.2922 362.539 25.8409C367.056 30.3896 369.318 35.9223 369.318 42.439C369.318 48.8999 367.047 54.4326 362.498 59.037C357.95 63.6413 352.474 65.9435 346.061 65.9435C341.318 65.9435 337.037 64.5975 333.226 61.9008V64.941H322.383V64.9456ZM336.996 33.272C334.484 35.8805 333.226 38.9346 333.226 42.439C333.226 45.9433 334.484 48.9974 336.996 51.6059C339.508 54.2145 342.531 55.5141 346.061 55.5141C349.591 55.5141 352.614 54.2098 355.126 51.6059C357.638 48.9974 358.896 45.9433 358.896 42.439C358.896 38.9346 357.638 35.8805 355.126 33.272C352.614 30.6635 349.591 29.3638 346.061 29.3638C342.531 29.3638 339.512 30.6635 336.996 33.272Z" fill="#650B0E"/>
<path d="M34.6031 14.4685L31.0566 28.1837L27.3979 0L0 54.288L19.2391 70.7118L27.3979 58.9038L35.7171 70.7118L54.6917 54.2439L34.6031 14.4685Z" fill="#650B0E"/>
<path d="M7.71094 75.3237H46.9865V85.0001H7.71094V75.3237Z" fill="#650B0E"/>
</svg>
