<svg width="24" height="24" viewBox="0 0 24 24" fill="none" xmlns="http://www.w3.org/2000/svg">
<mask id="mask0_2013_267" style="mask-type:alpha" maskUnits="userSpaceOnUse" x="0" y="0" width="24" height="24">
<path d="M0 0H24V24H0V0Z" fill="#0A77F3"/>
</mask>
<g mask="url(#mask0_2013_267)">
<path d="M19.1053 8.47368C19.1053 6.99124 17.8328 5.78947 16.2632 5.78947H7.73684C6.16719 5.78947 4.89474 6.99124 4.89474 8.47368V15.6316C4.89474 17.114 6.16719 18.3158 7.73684 18.3158H16.2632C17.8328 18.3158 19.1053 17.114 19.1053 15.6316V8.47368ZM21 15.6316C21 18.1023 18.8792 20.1053 16.2632 20.1053H7.73684C5.12076 20.1053 3 18.1023 3 15.6316V8.47368C3 6.00294 5.12076 4 7.73684 4H16.2632C18.8792 4 21 6.00294 21 8.47368V15.6316Z" fill="#1D1D1D"/>
<path d="M9.59211 9.81559C9.59211 10.5783 8.97381 11.1966 8.21109 11.1966C7.44838 11.1966 6.83008 10.5783 6.83008 9.81559C6.83008 9.05287 7.44838 8.43457 8.21109 8.43457C8.97381 8.43457 9.59211 9.05287 9.59211 9.81559Z" fill="#1D1D1D"/>
<path d="M9.59211 14.2892C9.59211 15.0519 8.97381 15.6702 8.21109 15.6702C7.44838 15.6702 6.83008 15.0519 6.83008 14.2892C6.83008 13.5265 7.44838 12.9082 8.21109 12.9082C8.97381 12.9082 9.59211 13.5265 9.59211 14.2892Z" fill="#1D1D1D"/>
<path d="M17.1702 9.81559C17.1702 10.5783 16.5519 11.1966 15.7892 11.1966C15.0265 11.1966 14.4082 10.5783 14.4082 9.81559C14.4082 9.05287 15.0265 8.43457 15.7892 8.43457C16.5519 8.43457 17.1702 9.05287 17.1702 9.81559Z" fill="#1D1D1D"/>
<path d="M13.3812 9.81559C13.3812 10.5783 12.7629 11.1966 12.0002 11.1966C11.2374 11.1966 10.6191 10.5783 10.6191 9.81559C10.6191 9.05287 11.2374 8.43457 12.0002 8.43457C12.7629 8.43457 13.3812 9.05287 13.3812 9.81559Z" fill="#1D1D1D"/>
<path d="M17.1702 14.2892C17.1702 15.0519 16.5519 15.6702 15.7892 15.6702C15.0265 15.6702 14.4082 15.0519 14.4082 14.2892C14.4082 13.5265 15.0265 12.9082 15.7892 12.9082C16.5519 12.9082 17.1702 13.5265 17.1702 14.2892Z" fill="#1D1D1D"/>
<path d="M13.3812 14.2892C13.3812 15.0519 12.7629 15.6702 12.0002 15.6702C11.2374 15.6702 10.6191 15.0519 10.6191 14.2892C10.6191 13.5265 11.2374 12.9082 12.0002 12.9082C12.7629 12.9082 13.3812 13.5265 13.3812 14.2892Z" fill="#1D1D1D"/>
</g>
</svg>
