<svg width="24" height="24" viewBox="0 0 24 24" fill="none" xmlns="http://www.w3.org/2000/svg">
<mask id="mask0_2096_126" style="mask-type:alpha" maskUnits="userSpaceOnUse" x="0" y="0" width="24" height="24">
<path d="M0 0H24V24H0V0Z" fill="#1E1E1E"/>
</mask>
<g mask="url(#mask0_2096_126)">
<path fill-rule="evenodd" clip-rule="evenodd" d="M4.43877 11.0713C3.95611 11.5865 3.69998 12.2747 3.79619 12.9912L4.44463 17.8222C4.62375 19.1563 5.95196 20.0795 7.41143 19.8838L13.9944 19H17.4388C17.49 19 17.5411 18.9972 17.5921 18.9961C16.9378 19.7556 15.9986 20.3124 14.9017 20.5117L14.6761 20.5478L7.62822 21.4941C5.19561 21.8207 2.98172 20.283 2.6829 18.0595L2.03349 13.2275C1.79917 11.4823 2.81495 9.8336 4.43877 9.04688V11.0713Z" fill="#1D1D1D"/>
<path d="M17.994 15.25V17H10.8829V15.25H17.994ZM20.6607 12.625V7.375C20.6607 5.92525 19.4668 4.75 17.994 4.75H10.8829C9.41016 4.75 8.21625 5.92525 8.21625 7.375V12.625C8.21625 14.0747 9.41016 15.25 10.8829 15.25V17C8.42832 17 6.43848 15.0412 6.43848 12.625V7.375C6.43848 4.95875 8.42832 3 10.8829 3H17.994L18.2223 3.00598C20.5708 3.12296 22.4385 5.03413 22.4385 7.375V12.625C22.4385 14.9659 20.5708 16.877 18.2223 16.994L17.994 17V15.25C19.4668 15.25 20.6607 14.0747 20.6607 12.625Z" fill="#1D1D1D"/>
<path d="M16.4385 12.25V13.75H11.4385V12.25H16.4385ZM18.4385 9.25V10.75H11.4385V9.25H18.4385ZM17.4385 6.25V7.75H11.4385V6.25H17.4385Z" fill="#1D1D1D"/>
</g>
</svg>
