<svg width="24" height="24" viewBox="0 0 24 24" fill="none" xmlns="http://www.w3.org/2000/svg">
<mask id="mask0_2096_151" style="mask-type:alpha" maskUnits="userSpaceOnUse" x="0" y="0" width="24" height="24">
<path d="M0 0H24V24H0V0Z" fill="#868686"/>
</mask>
<g mask="url(#mask0_2096_151)">
<path d="M6.50024 20.0002C4.98358 20.0002 3.68774 19.4752 2.61274 18.4252C1.53774 17.3752 1.00024 16.0919 1.00024 14.5752C1.00024 13.2752 1.39191 12.1169 2.17524 11.1002C2.95858 10.0836 3.98358 9.43358 5.25024 9.15024C5.66691 7.61691 6.50024 6.37524 7.75024 5.42524C9.00024 4.47524 10.4169 4.00024 12.0002 4.00024C13.9502 4.00024 15.6044 4.67941 16.9627 6.03774C18.3211 7.39608 19.0002 9.05024 19.0002 11.0002C20.1502 11.1336 21.1044 11.6294 21.8627 12.4877C22.6211 13.3461 23.0002 14.3502 23.0002 15.5002C23.0002 16.7502 22.5627 17.8127 21.6877 18.6877C20.8127 19.5627 19.7502 20.0002 18.5002 20.0002H6.50024ZM6.50024 18.0002H18.5002C19.2002 18.0002 19.7919 17.7586 20.2752 17.2752C20.7586 16.7919 21.0002 16.2002 21.0002 15.5002C21.0002 14.8002 20.7586 14.2086 20.2752 13.7252C19.7919 13.2419 19.2002 13.0002 18.5002 13.0002H17.0002V11.0002C17.0002 9.61691 16.5127 8.43774 15.5377 7.46274C14.5627 6.48774 13.3836 6.00024 12.0002 6.00024C10.6169 6.00024 9.43774 6.48774 8.46274 7.46274C7.48774 8.43774 7.00024 9.61691 7.00024 11.0002H6.50024C5.53358 11.0002 4.70858 11.3419 4.02524 12.0252C3.34191 12.7086 3.00024 13.5336 3.00024 14.5002C3.00024 15.4669 3.34191 16.2919 4.02524 16.9752C4.70858 17.6586 5.53358 18.0002 6.50024 18.0002Z" fill="#1D1D1D"/>
</g>
</svg>
