<svg width="24" height="24" viewBox="0 0 24 24" fill="none" xmlns="http://www.w3.org/2000/svg">
<mask id="mask0_2013_278" style="mask-type:alpha" maskUnits="userSpaceOnUse" x="0" y="0" width="24" height="24">
<rect width="24" height="24" fill="#2E71D3"/>
</mask>
<g mask="url(#mask0_2013_278)">
<path d="M14.4541 3.00024C16.0537 3.00031 17.5562 3.6895 18.4971 4.85376L20.0439 6.76685C20.6652 7.53583 20.9999 8.46256 21 9.41333V16.5002C21 18.9855 18.7614 21.0002 16 21.0002H8C5.23858 21.0002 3 18.9855 3 16.5002V7.50024C3 5.01496 5.23858 3.00024 8 3.00024H14.4541ZM8.52441 13.426V15.2971C8.43325 15.1782 8.32904 15.0772 8.20898 14.9963C7.98498 14.8409 7.71484 14.7629 7.39941 14.7629C7.06142 14.763 6.76235 14.8434 6.50195 15.0032C6.24601 15.1586 6.04698 15.3758 5.90527 15.6545C5.76815 15.9334 5.69924 16.2625 5.69922 16.6418C5.69922 17.0258 5.77045 17.3617 5.91211 17.6497C6.05382 17.9377 6.25505 18.1625 6.51562 18.3225C6.77597 18.4822 7.07975 18.5617 7.42676 18.5618C7.73751 18.5618 8.00327 18.4847 8.22266 18.3293C8.33692 18.2501 8.43751 18.1531 8.52441 18.0393V18.5139H9.74512V13.426H8.52441ZM12.4297 14.7698C12.023 14.7698 11.6665 14.8478 11.3604 15.0032C11.0587 15.1586 10.8234 15.378 10.6543 15.6614C10.4897 15.9448 10.4072 16.2761 10.4072 16.6555C10.4072 17.0349 10.4897 17.3685 10.6543 17.6565C10.8234 17.9399 11.0587 18.1615 11.3604 18.3215C11.6665 18.4769 12.023 18.5549 12.4297 18.5549C12.8365 18.5549 13.1915 18.477 13.4932 18.3215C13.7993 18.1615 14.037 17.9398 14.2061 17.6565C14.3752 17.3685 14.46 17.0349 14.46 16.6555C14.46 16.2761 14.3752 15.9448 14.2061 15.6614C14.037 15.378 13.7993 15.1586 13.4932 15.0032C13.1915 14.8477 12.8365 14.7698 12.4297 14.7698ZM16.6992 14.7698C16.3153 14.7698 15.9794 14.85 15.6914 15.01C15.4034 15.1654 15.1795 15.3871 15.0195 15.675C14.8595 15.9585 14.7793 16.292 14.7793 16.676C14.7793 17.0509 14.8573 17.3799 15.0127 17.6633C15.1727 17.9468 15.3966 18.1661 15.6846 18.3215C15.9726 18.477 16.3061 18.5549 16.6855 18.5549C17.0786 18.5549 17.4213 18.4792 17.7139 18.3284C18.0064 18.1729 18.2258 17.9559 18.3721 17.677L17.4746 17.1633C17.3969 17.3095 17.2962 17.417 17.1729 17.4856C17.054 17.5542 16.9116 17.5881 16.7471 17.5881C16.601 17.5881 16.4706 17.5495 16.3564 17.4719C16.2468 17.3943 16.1597 17.2867 16.0957 17.1497C16.0363 17.0125 16.0068 16.852 16.0068 16.6692C16.0068 16.4863 16.0363 16.3259 16.0957 16.1887C16.1597 16.0517 16.2468 15.9464 16.3564 15.8733C16.4706 15.7957 16.601 15.7571 16.7471 15.7571C16.9071 15.7571 17.0472 15.791 17.166 15.8596C17.2894 15.9236 17.3924 16.0175 17.4746 16.1409L18.3584 15.6272C18.1984 15.3529 17.9745 15.1426 17.6865 14.9963C17.3985 14.8455 17.0695 14.7698 16.6992 14.7698ZM7.72852 15.7366C7.88852 15.7366 8.0286 15.776 8.14746 15.8538C8.26617 15.9315 8.35793 16.0413 8.42188 16.1829C8.4903 16.3244 8.52438 16.4889 8.52441 16.676C8.52441 16.8634 8.49044 17.0285 8.42188 17.1702C8.3579 17.3073 8.26626 17.417 8.14746 17.4993C8.0286 17.577 7.88852 17.6155 7.72852 17.6155C7.56869 17.6154 7.42703 17.5769 7.30371 17.4993C7.18487 17.417 7.09103 17.3073 7.02246 17.1702C6.95846 17.0285 6.92676 16.8635 6.92676 16.676C6.92679 16.4888 6.95858 16.3244 7.02246 16.1829C7.09099 16.0412 7.18495 15.9315 7.30371 15.8538C7.42703 15.7761 7.56869 15.7366 7.72852 15.7366ZM12.4297 15.7366C12.5897 15.7366 12.7298 15.7751 12.8486 15.8528C12.972 15.9305 13.0659 16.0403 13.1299 16.1819C13.1985 16.3236 13.2324 16.4886 13.2324 16.676C13.2324 16.8635 13.1985 17.0285 13.1299 17.1702C13.0659 17.3072 12.972 17.4148 12.8486 17.4924C12.7298 17.5701 12.5897 17.6086 12.4297 17.6086C12.2699 17.6086 12.1305 17.57 12.0117 17.4924C11.8929 17.4148 11.799 17.3072 11.7305 17.1702C11.6665 17.0285 11.6348 16.8635 11.6348 16.676C11.6348 16.4886 11.6665 16.3236 11.7305 16.1819C11.799 16.0403 11.8929 15.9304 12.0117 15.8528C12.1304 15.7752 12.2699 15.7366 12.4297 15.7366ZM15 8.40063C15.0002 8.89751 15.4479 9.30005 16 9.30005H18.9951C18.9702 8.76953 18.7739 8.25622 18.4258 7.82544L16.8799 5.91235C16.4241 5.34838 15.7485 4.96976 15 4.84497V8.40063Z" fill="#2E71D3"/>
</g>
</svg>
