<svg width="18" height="18" viewBox="0 0 18 18" fill="none" xmlns="http://www.w3.org/2000/svg">
<path d="M9 12.6L13.5 8.1L12.24 6.84L9.9 9.1575L9.9 -2.31287e-07L8.1 -3.88648e-07L8.1 9.1575L5.76 6.84L4.5 8.1L9 12.6ZM16.515 4.05C16.995 4.785 17.3625 5.5725 17.6175 6.4125C17.8725 7.2525 18 8.115 18 9C18 10.245 17.7638 11.415 17.2913 12.51C16.8188 13.605 16.1775 14.5575 15.3675 15.3675C14.5575 16.1775 13.605 16.8187 12.51 17.2912C11.415 17.7637 10.245 18 9 18C7.755 18 6.585 17.7637 5.49 17.2912C4.395 16.8187 3.4425 16.1775 2.6325 15.3675C1.8225 14.5575 1.18125 13.605 0.708751 12.51C0.236251 11.415 1.1548e-06 10.245 1.26364e-06 9C1.34101e-06 8.115 0.127501 7.2525 0.382501 6.4125C0.637501 5.5725 1.005 4.785 1.485 4.05L2.79 5.355C2.46 5.91 2.2125 6.495 2.0475 7.11C1.8825 7.725 1.8 8.355 1.8 9C1.8 11.01 2.4975 12.7125 3.8925 14.1075C5.2875 15.5025 6.99 16.2 9 16.2C11.01 16.2 12.7125 15.5025 14.1075 14.1075C15.5025 12.7125 16.2 11.01 16.2 9C16.2 8.355 16.1175 7.725 15.9525 7.11C15.7875 6.495 15.54 5.91 15.21 5.355L16.515 4.05Z" fill="#1D1D1D"/>
</svg>
