<svg width="24" height="24" viewBox="0 0 24 24" fill="none" xmlns="http://www.w3.org/2000/svg">
<mask id="mask0_2013_222" style="mask-type:alpha" maskUnits="userSpaceOnUse" x="0" y="0" width="24" height="24">
<rect width="24" height="24" fill="#FC6D26"/>
</mask>
<g mask="url(#mask0_2013_222)">
<path d="M14.4541 3.00024C16.0537 3.00031 17.5562 3.6895 18.4971 4.85376L20.0439 6.76685C20.6652 7.53583 20.9999 8.46256 21 9.41333V16.5002C21 18.9855 18.7614 21.0002 16 21.0002H8C5.23858 21.0002 3 18.9855 3 16.5002V7.50024C3 5.01496 5.23858 3.00024 8 3.00024H14.4541ZM8.61328 13.7708C8.30713 13.7708 8.04228 13.8488 7.81836 14.0042C7.70732 14.0805 7.60872 14.1739 7.52344 14.2854V13.8118H6.30273V18.845H7.52344V17.0354C7.61289 17.15 7.71524 17.2483 7.83203 17.3293C8.06051 17.4801 8.32993 17.5558 8.64062 17.5559C8.98802 17.5559 9.28765 17.4779 9.53906 17.3225C9.79506 17.1671 9.99176 16.9477 10.1289 16.6643C10.2706 16.3809 10.3418 16.0541 10.3418 15.6838C10.3418 15.2953 10.2683 14.9594 10.1221 14.676C9.98036 14.388 9.77913 14.1664 9.51855 14.011C9.26256 13.851 8.9607 13.7708 8.61328 13.7708ZM13.3145 13.7708C13.0083 13.7708 12.7435 13.8488 12.5195 14.0042C12.4085 14.0805 12.3099 14.1739 12.2246 14.2854V13.8118H11.0039V18.845H12.2246V17.0354C12.3141 17.15 12.4164 17.2483 12.5332 17.3293C12.7617 17.4801 13.0311 17.5558 13.3418 17.5559C13.6892 17.5559 13.9888 17.4779 14.2402 17.3225C14.4962 17.1671 14.6929 16.9477 14.8301 16.6643C14.9718 16.3809 15.043 16.0541 15.043 15.6838C15.043 15.2953 14.9695 14.9594 14.8232 14.676C14.6815 14.388 14.4803 14.1664 14.2197 14.011C13.9637 13.851 13.6619 13.7708 13.3145 13.7708ZM15.8418 13.9827H15.3271V14.7786H15.8418V16.3899C15.8418 16.6458 15.8939 16.863 15.999 17.0413C16.1087 17.215 16.2579 17.3473 16.4453 17.4387C16.6327 17.5255 16.8453 17.5696 17.083 17.5696C17.2657 17.5696 17.4436 17.5482 17.6172 17.5071C17.7955 17.4614 17.9514 17.3979 18.084 17.3157L17.8506 16.4719C17.7638 16.5085 17.6812 16.5379 17.6035 16.5608C17.526 16.5836 17.4555 16.5959 17.3916 16.5959C17.2865 16.6005 17.204 16.5701 17.1445 16.5061C17.0852 16.4421 17.0557 16.3391 17.0557 16.1975V14.7786H18.0156V13.9827H17.0557V12.9612H15.8418V13.9827ZM8.31152 14.7102C8.47152 14.7102 8.61161 14.751 8.73047 14.8333C8.85382 14.9109 8.94773 15.0207 9.01172 15.1624C9.08029 15.3041 9.11426 15.4668 9.11426 15.6497C9.11425 15.8323 9.08011 15.9944 9.01172 16.136C8.94772 16.2777 8.85389 16.3906 8.73047 16.4729C8.61161 16.5506 8.47152 16.5891 8.31152 16.5891C8.16087 16.5891 8.02368 16.5505 7.90039 16.4729C7.78162 16.3952 7.6877 16.2854 7.61914 16.1438C7.55515 15.9975 7.52344 15.8325 7.52344 15.6497C7.52344 15.4622 7.55514 15.2995 7.61914 15.1624C7.6877 15.0208 7.78161 14.9109 7.90039 14.8333C8.02369 14.7511 8.16086 14.7103 8.31152 14.7102ZM13.0127 14.7102C13.1727 14.7102 13.3128 14.751 13.4316 14.8333C13.555 14.9109 13.6489 15.0207 13.7129 15.1624C13.7815 15.3041 13.8154 15.4668 13.8154 15.6497C13.8154 15.8323 13.7813 15.9944 13.7129 16.136C13.6489 16.2777 13.5551 16.3906 13.4316 16.4729C13.3128 16.5506 13.1727 16.5891 13.0127 16.5891C12.862 16.5891 12.7249 16.5505 12.6016 16.4729C12.4828 16.3952 12.3889 16.2854 12.3203 16.1438C12.2563 15.9975 12.2246 15.8325 12.2246 15.6497C12.2246 15.4622 12.2563 15.2995 12.3203 15.1624C12.3889 15.0208 12.4828 14.9109 12.6016 14.8333C12.7249 14.7511 12.862 14.7103 13.0127 14.7102ZM15 8.40063C15.0002 8.89751 15.4479 9.30005 16 9.30005H18.9951C18.9702 8.76953 18.7739 8.25622 18.4258 7.82544L16.8799 5.91235C16.4241 5.34838 15.7485 4.96976 15 4.84497V8.40063Z" fill="#FC6D26"/>
</g>
</svg>
