<svg width="24" height="24" viewBox="0 0 24 24" fill="none" xmlns="http://www.w3.org/2000/svg">
<mask id="mask0_2013_290" style="mask-type:alpha" maskUnits="userSpaceOnUse" x="0" y="0" width="24" height="24">
<rect width="24" height="24" fill="#0A77F3"/>
</mask>
<g mask="url(#mask0_2013_290)">
<path d="M14.4541 3.00024C16.0537 3.00031 17.5562 3.68951 18.4971 4.85376L20.0439 6.76685C20.6652 7.53584 20.9999 8.46254 21 9.41333V16.5002C20.9999 18.9854 18.7614 21.0002 16 21.0002H8C5.23863 21.0002 3.00009 18.9854 3 16.5002V7.50024C3 5.01499 5.23858 3.00024 8 3.00024H14.4541ZM8.74707 13.7708C8.44092 13.7708 8.17607 13.8488 7.95215 14.0042C7.84111 14.0805 7.74251 14.1739 7.65723 14.2854V13.8118H6.43652V18.845H7.65723V17.0354C7.74668 17.15 7.84903 17.2483 7.96582 17.3293C8.19429 17.4801 8.46372 17.5558 8.77441 17.5559C9.12181 17.5559 9.42144 17.4779 9.67285 17.3225C9.92885 17.1671 10.1256 16.9477 10.2627 16.6643C10.4044 16.3809 10.4756 16.0541 10.4756 15.6838C10.4756 15.2953 10.4021 14.9594 10.2559 14.676C10.1141 14.388 9.91292 14.1664 9.65234 14.011C9.39635 13.851 9.09449 13.7708 8.74707 13.7708ZM13.627 14.2971C13.5358 14.1782 13.4316 14.0772 13.3115 13.9963C13.0875 13.8409 12.8174 13.7629 12.502 13.7629C12.164 13.763 11.8649 13.8434 11.6045 14.0032C11.3485 14.1586 11.1495 14.3758 11.0078 14.6545C10.8707 14.9334 10.8018 15.2625 10.8018 15.6418C10.8018 16.0258 10.873 16.3617 11.0146 16.6497C11.1564 16.9377 11.3576 17.1625 11.6182 17.3225C11.8785 17.4822 12.1823 17.5617 12.5293 17.5618C12.8401 17.5618 13.1058 17.4847 13.3252 17.3293C13.4395 17.2501 13.54 17.1531 13.627 17.0393V17.5139H14.8477V12.426H13.627V14.2971ZM17.4561 12.3713C17.1865 12.3714 16.9443 12.4222 16.7295 12.5227C16.5147 12.6187 16.3428 12.7601 16.2148 12.9475C16.0915 13.1349 16.0303 13.3658 16.0303 13.6399V13.9827H15.5293V14.7786H16.0303V17.5139H17.2441V14.7786H18.0664V13.9827H17.2441V13.7288C17.2442 13.6421 17.2624 13.5693 17.2988 13.51C17.3354 13.4461 17.383 13.3998 17.4424 13.3723C17.5064 13.3449 17.5798 13.3313 17.6621 13.3313C17.7261 13.3313 17.7928 13.3404 17.8613 13.3586C17.9342 13.3769 18.0049 13.3997 18.0732 13.427L18.2314 12.5159C18.1173 12.4702 17.9915 12.4352 17.8545 12.4124C17.7219 12.3849 17.5886 12.3713 17.4561 12.3713ZM12.8311 14.7366C12.9911 14.7366 13.1311 14.776 13.25 14.8538C13.3687 14.9315 13.4605 15.0413 13.5244 15.1829C13.5928 15.3244 13.6269 15.4889 13.627 15.676C13.627 15.8634 13.593 16.0285 13.5244 16.1702C13.4604 16.3073 13.3688 16.417 13.25 16.4993C13.1311 16.577 12.9911 16.6155 12.8311 16.6155C12.6712 16.6154 12.5296 16.5769 12.4062 16.4993C12.2874 16.417 12.1936 16.3073 12.125 16.1702C12.061 16.0285 12.0293 15.8635 12.0293 15.676C12.0293 15.4888 12.0611 15.3244 12.125 15.1829C12.1935 15.0412 12.2875 14.9315 12.4062 14.8538C12.5296 14.7761 12.6712 14.7366 12.8311 14.7366ZM8.44531 14.7102C8.60531 14.7102 8.7454 14.751 8.86426 14.8333C8.98761 14.9109 9.08152 15.0207 9.14551 15.1624C9.21408 15.3041 9.24805 15.4668 9.24805 15.6497C9.24804 15.8323 9.2139 15.9944 9.14551 16.136C9.08151 16.2777 8.98768 16.3906 8.86426 16.4729C8.7454 16.5506 8.60531 16.5891 8.44531 16.5891C8.29466 16.5891 8.15747 16.5505 8.03418 16.4729C7.91541 16.3952 7.82149 16.2854 7.75293 16.1438C7.68894 15.9975 7.65723 15.8325 7.65723 15.6497C7.65723 15.4622 7.68893 15.2995 7.75293 15.1624C7.82149 15.0208 7.91539 14.9109 8.03418 14.8333C8.15748 14.7511 8.29465 14.7103 8.44531 14.7102ZM15 8.40063C15.0003 8.89748 15.4479 9.30005 16 9.30005H18.9951C18.9703 8.76952 18.7739 8.25623 18.4258 7.82544L16.8799 5.91235C16.4241 5.34839 15.7485 4.96976 15 4.84497V8.40063Z" fill="#E03838"/>
</g>
</svg>
