<svg width="24" height="24" viewBox="0 0 24 24" fill="none" xmlns="http://www.w3.org/2000/svg">
<mask id="mask0_2096_91" style="mask-type:alpha" maskUnits="userSpaceOnUse" x="0" y="0" width="24" height="24">
<path d="M0 0H24V24H0V0Z" fill="#868686"/>
</mask>
<g mask="url(#mask0_2096_91)">
<path d="M3 16V8C3 5.79086 4.79086 4 7 4H9.72363C10.5508 4 11.3413 4.34199 11.9082 4.94434L12.9023 6H17C19.2091 6 21 7.79086 21 10V17C21 18.6569 19.6569 20 18 20H7C4.79086 20 3 18.2091 3 16ZM5 16C5 17.1046 5.89543 18 7 18H18C18.5523 18 19 17.5523 19 17V10C19 8.89543 18.1046 8 17 8H12.9023C12.3511 7.99991 11.8242 7.77246 11.4463 7.37109L10.4521 6.31445C10.2632 6.11377 9.99929 6 9.72363 6H7C5.89543 6 5 6.89543 5 8V16Z" fill="#1D1D1D"/>
<path d="M15 14H9V12H15V14Z" fill="#1D1D1D"/>
<path d="M13 10V16H11V10H13Z" fill="#1D1D1D"/>
</g>
</svg>
