<svg width="24" height="24" viewBox="0 0 24 24" fill="none" xmlns="http://www.w3.org/2000/svg">
<mask id="mask0_2013_192" style="mask-type:alpha" maskUnits="userSpaceOnUse" x="0" y="0" width="24" height="24">
<rect width="24" height="24" fill="#07CB7D"/>
</mask>
<g mask="url(#mask0_2013_192)">
<path d="M16 3C18.7614 3 21 5.23858 21 8V16C21 18.7614 18.7614 21 16 21H8C5.23858 21 3 18.7614 3 16V8C3 5.23858 5.23858 3 8 3H16ZM9.61914 8.11133V12.8613C9.45252 12.7595 9.27914 12.6827 9.09863 12.6318C8.91821 12.5809 8.72157 12.5557 8.50879 12.5557C7.89768 12.5557 7.37366 12.7728 6.93848 13.208C6.50343 13.6431 6.28624 14.1664 6.28613 14.7773C6.28613 15.3885 6.50329 15.9125 6.93848 16.3477C7.37366 16.7828 7.89768 17 8.50879 17C9.11969 16.9999 9.64305 16.7827 10.0781 16.3477C10.5133 15.9125 10.7305 15.3885 10.7305 14.7773V10.333L15.1748 9.45801V11.75C15.0082 11.6482 14.8348 11.5714 14.6543 11.5205C14.4737 11.4696 14.2764 11.4443 14.0635 11.4443C13.4526 11.4444 12.9292 11.6626 12.4941 12.0977C12.0592 12.5328 11.8418 13.0561 11.8418 13.667C11.8419 14.2779 12.0591 14.8012 12.4941 15.2363C12.9292 15.6714 13.4526 15.8886 14.0635 15.8887C14.6746 15.8887 15.1986 15.6715 15.6338 15.2363C16.0688 14.8012 16.2861 14.2779 16.2861 13.667V7L9.61914 8.11133Z" fill="#FF3F85"/>
</g>
</svg>
