<svg width="24" height="24" viewBox="0 0 24 24" fill="none" xmlns="http://www.w3.org/2000/svg">
<mask id="mask0_2096_117" style="mask-type:alpha" maskUnits="userSpaceOnUse" x="0" y="0" width="24" height="24">
<path d="M0 0H24V24H0V0Z" fill="#868686"/>
</mask>
<g mask="url(#mask0_2096_117)">
<path d="M10 4V6H8C6.34315 6 5 7.34315 5 9V15C5 16.6569 6.34315 18 8 18H16C17.6568 17.9999 19 16.6568 19 15V13H21V15C21 17.6752 18.8988 19.8594 16.2568 19.9932L16 20H8C5.23858 20 3 17.7614 3 15V9C3 6.23858 5.23858 4 8 4H10Z" fill="#1D1D1D"/>
<path d="M15.5556 4.38367C16.6295 3.30993 18.3703 3.30993 19.4442 4.38367L19.6161 4.55555C20.6898 5.62945 20.6898 7.37032 19.6161 8.44422L13.3837 14.6766L13.1815 14.7274L10.7987 15.3231C9.51706 15.6435 8.35623 14.4827 8.67665 13.2011L9.27235 10.8182L9.32313 10.6161L15.5556 4.38367ZM18.3837 5.44422C17.8956 4.95627 17.1042 4.95627 16.6161 5.44422L10.6767 11.3827L10.1317 13.5653C10.0863 13.7481 10.2517 13.9134 10.4345 13.868L12.6161 13.3222L18.5556 7.38367C19.0435 6.89556 19.0435 6.10421 18.5556 5.6161L18.3837 5.44422Z" fill="#1D1D1D"/>
</g>
</svg>
