<svg width="24" height="24" viewBox="0 0 24 24" fill="none" xmlns="http://www.w3.org/2000/svg">
<mask id="mask0_2096_98" style="mask-type:alpha" maskUnits="userSpaceOnUse" x="0" y="0" width="24" height="24">
<path d="M0 0H24V24H0V0Z" fill="#868686"/>
</mask>
<g mask="url(#mask0_2096_98)">
<path d="M16 18V20H8V18H16ZM19 15V9C19 7.34315 17.6569 6 16 6H8C6.34315 6 5 7.34315 5 9V15C5 16.6569 6.34315 18 8 18V20C5.23858 20 3 17.7614 3 15V9C3 6.23858 5.23858 4 8 4H16L16.2568 4.00684C18.8989 4.14053 21 6.32472 21 9V15C21 17.6753 18.8989 19.8595 16.2568 19.9932L16 20V18C17.6569 18 19 16.6569 19 15Z" fill="#1D1D1D"/>
<path d="M12.2639 13.8545L3.58618 9.91016L4.41431 8.08984L12.2375 11.6445L19.5647 8.09961L20.4358 9.90039L12.2639 13.8545Z" fill="#1D1D1D"/>
</g>
</svg>
