<svg width="24" height="24" viewBox="0 0 24 24" fill="none" xmlns="http://www.w3.org/2000/svg">
<mask id="mask0_2013_234" style="mask-type:alpha" maskUnits="userSpaceOnUse" x="0" y="0" width="24" height="24">
<rect width="24" height="24" fill="#0F9F53"/>
</mask>
<g mask="url(#mask0_2013_234)">
<path d="M14.4541 3.00024C16.0537 3.00031 17.5562 3.68951 18.4971 4.85376L20.0439 6.76685C20.6652 7.53584 20.9999 8.46254 21 9.41333V16.5002C20.9999 18.9854 18.7614 21.0002 16 21.0002H8C5.23863 21.0002 3.00009 18.9854 3 16.5002V7.50024C3 5.01499 5.23858 3.00024 8 3.00024H14.4541ZM15.2461 13.7561C14.9538 13.7561 14.6933 13.8015 14.4648 13.8928C14.2408 13.9843 14.06 14.1198 13.9229 14.2981C13.7904 14.4718 13.7246 14.6868 13.7246 14.9426C13.7246 15.1572 13.7701 15.3329 13.8613 15.47C13.9527 15.607 14.0694 15.7191 14.2109 15.8059C14.3572 15.8882 14.5132 15.9548 14.6777 16.0051C14.8422 16.0554 14.9974 16.1017 15.1436 16.1428C15.2897 16.1794 15.4086 16.2247 15.5 16.2795C15.5914 16.3298 15.6377 16.3987 15.6377 16.4856C15.6376 16.5403 15.6185 16.5858 15.582 16.6223C15.5501 16.6542 15.5046 16.6793 15.4453 16.6975C15.3905 16.7158 15.3238 16.7249 15.2461 16.7249C15.0405 16.7248 14.8232 16.6863 14.5947 16.6086C14.3663 16.5264 14.1445 16.4121 13.9297 16.2659L13.5459 17.0403C13.7744 17.2139 14.0324 17.345 14.3203 17.4319C14.6082 17.5187 14.908 17.5617 15.2188 17.5618C15.525 17.5618 15.7952 17.5165 16.0283 17.425C16.266 17.3336 16.4514 17.1981 16.584 17.0198C16.7209 16.8416 16.7891 16.6265 16.7891 16.3752C16.789 16.1607 16.7436 15.9849 16.6523 15.8479C16.561 15.7063 16.4397 15.5942 16.2891 15.512C16.1428 15.4251 15.9868 15.3562 15.8223 15.3059C15.6578 15.2557 15.5004 15.2093 15.3496 15.1682C15.2035 15.1226 15.0823 15.0772 14.9863 15.0315C14.8949 14.9812 14.8486 14.9146 14.8486 14.8323C14.8487 14.7504 14.8807 14.6911 14.9443 14.6545C15.0129 14.6134 15.0978 14.593 15.1982 14.593C15.3537 14.593 15.5323 14.6247 15.7334 14.6887C15.9345 14.7527 16.1494 14.8443 16.3779 14.9631L16.7891 14.1809C16.5606 14.0393 16.3138 13.934 16.0488 13.8655C15.7837 13.7923 15.5158 13.7561 15.2461 13.7561ZM7.12402 13.8108L8.30371 15.6145L7.04199 17.5139H8.38574L9.12012 16.3752L9.77832 17.5139H11.1836L9.92871 15.6145L11.1016 13.8108H9.76465L9.12012 14.8596L8.52344 13.8108H7.12402ZM11.7139 17.5139H12.9346V12.426H11.7139V17.5139ZM15 8.40063C15.0003 8.89748 15.4479 9.30005 16 9.30005H18.9951C18.9703 8.76952 18.7739 8.25623 18.4258 7.82544L16.8799 5.91235C16.4241 5.34839 15.7485 4.96976 15 4.84497V8.40063Z" fill="#0F9F53"/>
</g>
</svg>
