<svg width="24" height="24" viewBox="0 0 24 24" fill="none" xmlns="http://www.w3.org/2000/svg">
<mask id="mask0_2013_412" style="mask-type:alpha" maskUnits="userSpaceOnUse" x="0" y="0" width="24" height="24">
<rect width="24" height="24" fill="#1D1D1D"/>
</mask>
<g mask="url(#mask0_2013_412)">
<path d="M14.8283 16.2428L11.9999 19.0712C11.0217 20.0493 9.84324 20.5384 8.46438 20.5384C7.08552 20.5384 5.90701 20.0493 4.92884 19.0712C3.95068 18.093 3.4616 16.9145 3.4616 15.5356C3.4616 14.1568 3.95068 12.9783 4.92884 12.0001L7.75727 9.17168L9.17149 10.5859L6.34306 13.4143C5.7538 14.0036 5.45917 14.7107 5.45917 15.5356C5.45917 16.3606 5.7538 17.0677 6.34306 17.657C6.93231 18.2462 7.63942 18.5408 8.46438 18.5408C9.28934 18.5408 9.99644 18.2462 10.5857 17.657L13.4141 14.8285L14.8283 16.2428ZM9.87859 15.5356L8.46438 14.1214L14.1212 8.46458L15.5354 9.87879L9.87859 15.5356ZM16.2426 14.8285L14.8283 13.4143L17.6568 10.5859C18.246 9.99664 18.5406 9.28953 18.5406 8.46458C18.5406 7.63962 18.246 6.93251 17.6568 6.34326C17.0675 5.754 16.3604 5.45937 15.5354 5.45937C14.7105 5.45937 14.0034 5.754 13.4141 6.34326L10.5857 9.17168L9.17149 7.75747L11.9999 4.92904C12.9781 3.95088 14.1566 3.4618 15.5354 3.4618C16.9143 3.4618 18.0928 3.95088 19.071 4.92904C20.0491 5.90721 20.5382 7.08572 20.5382 8.46458C20.5382 9.84344 20.0491 11.0219 19.071 12.0001L16.2426 14.8285Z" fill="#1D1D1D"/>
</g>
</svg>
