<svg width="24" height="24" viewBox="0 0 24 24" fill="none" xmlns="http://www.w3.org/2000/svg">
<mask id="mask0_2096_111" style="mask-type:alpha" maskUnits="userSpaceOnUse" x="0" y="0" width="24" height="24">
<path d="M0 0H24V24H0V0Z" fill="#1E1E1E"/>
</mask>
<g mask="url(#mask0_2096_111)">
<path d="M2.84484 13.8427C2.84484 14.4794 3.3286 15.0034 3.94863 15.0666L4.07474 15.0726H5.37189C5.72051 15.0726 6.05268 15.2206 6.28591 15.4797L9.3102 18.8403C10.0643 19.6776 11.4541 19.1434 11.4541 18.0164V6.97256C11.454 5.87701 10.1294 5.32837 9.35464 6.10299L5.66496 9.79267L5.57488 9.87435C5.38723 10.0282 5.15813 10.123 4.91669 10.147L4.79538 10.153H4.07474V8.30815H4.54075L8.05028 4.79862L8.23524 4.62687C10.1904 2.94858 13.2988 4.31887 13.299 6.97256V18.0164C13.299 20.8344 9.82369 22.1684 7.93858 20.0738L5.09685 16.9174H4.07474C2.37661 16.9174 1 15.5408 1 13.8427V11.3829C1 9.68476 2.37661 8.30815 4.07474 8.30815V10.153C3.39549 10.153 2.84484 10.7036 2.84484 11.3829V13.8427Z" fill="#1D1D1D"/>
<path d="M21.6007 12.6128C21.6007 9.23596 20.2236 7.69734 18.9739 6.94738C18.3192 6.55456 17.6564 6.35383 17.1531 6.25317C16.9033 6.20323 16.6972 6.17858 16.5586 6.16669C16.4898 6.1608 16.438 6.15836 16.406 6.15708C16.3902 6.15645 16.3792 6.15599 16.3736 6.15588C16.3735 6.15712 16.3736 6.15588 16.3736 6.15588C15.8642 6.15588 15.4512 5.7429 15.4512 5.23346C15.4512 4.72402 15.8642 4.31104 16.3736 4.31104V4.87434C16.3737 4.31104 16.3731 4.31103 16.3736 4.31104H16.4096C16.4273 4.31138 16.4506 4.31229 16.4793 4.31344C16.5374 4.31576 16.6182 4.32057 16.7171 4.32905C16.9146 4.346 17.1896 4.37911 17.5158 4.44435C18.1654 4.5743 19.0404 4.83505 19.9228 5.36437C21.7477 6.45934 23.4455 8.61065 23.4455 12.6128C23.4455 16.615 21.7477 18.7663 19.9228 19.8613C19.0404 20.3906 18.1654 20.6514 17.5158 20.7813C17.1896 20.8466 16.9146 20.8797 16.7171 20.8966C16.6182 20.9051 16.5374 20.9099 16.4793 20.9122C16.4506 20.9134 16.4273 20.9143 16.4096 20.9146H16.3748C15.8654 20.9146 15.4512 20.5016 15.4512 19.9922C15.4512 19.4828 15.8642 19.0698 16.3736 19.0698L16.406 19.0686C16.438 19.0673 16.4898 19.0649 16.5586 19.059C16.6972 19.0471 16.9033 19.0224 17.1531 18.9725C17.6564 18.8718 18.3192 18.6711 18.9739 18.2783C20.2236 17.5283 21.6007 15.9897 21.6007 12.6128Z" fill="#1D1D1D"/>
<path d="M18.0649 12.6128C18.0649 11.1027 17.438 10.484 16.9155 10.1855C16.624 10.0189 16.3235 9.93081 16.0903 9.88641C15.9758 9.86462 15.8827 9.85409 15.8225 9.84918C15.7926 9.84674 15.7713 9.846 15.76 9.84558H15.7576C15.7577 9.84558 15.7588 9.84561 15.7588 9.84437C15.2494 9.84437 14.8364 9.43259 14.8364 8.92315C14.8364 8.41371 15.2494 8.00073 15.7588 8.00073V8.47996C15.759 8.00073 15.7596 8.00073 15.76 8.00073H15.7853C15.7971 8.00095 15.812 8.00126 15.8297 8.00193C15.8658 8.00331 15.9143 8.00678 15.9726 8.01154C16.0889 8.02103 16.2484 8.03941 16.4363 8.0752C16.8084 8.14611 17.3153 8.28878 17.8307 8.58325C18.9224 9.207 19.9097 10.434 19.9097 12.6128C19.9096 14.7913 18.9222 16.0172 17.8307 16.6412C17.3152 16.936 16.8084 17.0795 16.4363 17.1505C16.2483 17.1863 16.0889 17.2046 15.9726 17.2141C15.9146 17.2189 15.8669 17.2224 15.8309 17.2237C15.8129 17.2244 15.7972 17.2247 15.7853 17.2249H15.76C15.7595 17.2237 15.7592 17.1902 15.7588 16.3025V17.2249C15.2496 17.225 14.8366 16.8119 14.8364 16.3025C14.8364 15.7932 15.2495 15.3803 15.7588 15.3801H15.76C15.7714 15.3797 15.7928 15.3789 15.8225 15.3765C15.8828 15.3716 15.9758 15.3599 16.0903 15.3381C16.3235 15.2936 16.624 15.2069 16.9155 15.0402C17.4381 14.7414 18.0647 14.1227 18.0649 12.6128Z" fill="#1D1D1D"/>
</g>
</svg>
