<svg width="24" height="24" viewBox="0 0 24 24" fill="none" xmlns="http://www.w3.org/2000/svg">
<mask id="mask0_2013_442" style="mask-type:alpha" maskUnits="userSpaceOnUse" x="0" y="0" width="24" height="24">
<path d="M0 0H24V24H0V0Z" fill="#868686"/>
</mask>
<g mask="url(#mask0_2013_442)">
<path d="M16 19V21H8V19H16ZM19 16V13C19 11.3431 17.6569 10 16 10H8C6.34315 10 5 11.3431 5 13V16C5 17.6569 6.34315 19 8 19V21C5.32472 21 3.14053 18.8989 3.00684 16.2568L3 16V13C3 10.2386 5.23858 8 8 8H16L16.2568 8.00684C18.8989 8.14053 21 10.3247 21 13V16C21 18.6753 18.8989 20.8595 16.2568 20.9932L16 21V19C17.6569 19 19 17.6569 19 16Z" fill="#1D1D1D"/>
<path d="M16 8C16 5.79086 14.2091 4 12 4C9.79086 4 8 5.79086 8 8V9H6V8C6 4.68629 8.68629 2 12 2C15.3137 2 18 4.68629 18 8V9H16V8Z" fill="#1D1D1D"/>
<path d="M14 15C14 16.1046 13.1046 17 12 17C10.8954 17 10 16.1046 10 15C10 13.8954 10.8954 13 12 13C13.1046 13 14 13.8954 14 15Z" fill="#1D1D1D"/>
</g>
</svg>
