<svg width="24" height="24" viewBox="0 0 24 24" fill="none" xmlns="http://www.w3.org/2000/svg">
<mask id="mask0_2096_32" style="mask-type:alpha" maskUnits="userSpaceOnUse" x="0" y="0" width="24" height="24">
<path d="M0 0H24V24H0V0Z" fill="#868686"/>
</mask>
<g mask="url(#mask0_2096_32)">
<path d="M7.625 6.39976L10.425 2.77476C10.625 2.50809 10.8625 2.31226 11.1375 2.18726C11.4125 2.06226 11.7 1.99976 12 1.99976C12.3 1.99976 12.5875 2.06226 12.8625 2.18726C13.1375 2.31226 13.375 2.50809 13.575 2.77476L16.375 6.39976L20.625 7.82476C21.0583 7.95809 21.4 8.20392 21.65 8.56226C21.9 8.92059 22.025 9.31642 22.025 9.74976C22.025 9.94976 21.9958 10.1498 21.9375 10.3498C21.8792 10.5498 21.7833 10.7414 21.65 10.9248L18.9 14.8248L19 18.9248C19.0167 19.5081 18.825 19.9998 18.425 20.3998C18.025 20.7998 17.5583 20.9998 17.025 20.9998C16.9917 20.9998 16.8083 20.9748 16.475 20.9248L12 19.6748L7.525 20.9248C7.44167 20.9581 7.35 20.9789 7.25 20.9873C7.15 20.9956 7.05833 20.9998 6.975 20.9998C6.44167 20.9998 5.975 20.7998 5.575 20.3998C5.175 19.9998 4.98333 19.5081 5 18.9248L5.1 14.7998L2.375 10.9248C2.24167 10.7414 2.14583 10.5498 2.0875 10.3498C2.02917 10.1498 2 9.94976 2 9.74976C2 9.33309 2.12083 8.94559 2.3625 8.58726C2.60417 8.22892 2.94167 7.97476 3.375 7.82476L7.625 6.39976ZM8.85 8.12476L4 9.72476L7.1 14.1998L7 18.9748L12 17.5998L17 18.9998L16.9 14.1998L20 9.77476L15.15 8.12476L12 3.99976L8.85 8.12476Z" fill="#1D1D1D"/>
</g>
</svg>
