<svg width="64" height="64" viewBox="0 0 64 64" fill="none" xmlns="http://www.w3.org/2000/svg">
<path d="M39.3685 0H24.6315C11.0291 0 0 11.0291 0 24.6315V39.3685C0 52.9709 11.0291 64 24.6315 64H39.3685C52.9709 64 64 52.9709 64 39.3685V24.6315C64 11.0291 52.9709 0 39.3685 0ZM26.6787 55.0633C24.13 55.1208 21.6636 54.9811 19.3163 54.6645C17.2815 54.3932 15.2878 54.1466 13.5243 53.4724C11.5799 52.7284 10.1001 50.8868 10.1001 48.8232C10.1001 46.1512 12.2746 44.1575 14.9384 43.9848C15.5879 43.9437 16.7923 44.3589 16.9527 44.4288C17.076 44.4863 17.1993 44.548 17.3144 44.6138C18.8313 45.403 20.5249 46.0731 22.3665 46.5746C23.1229 46.7801 23.908 46.9569 24.7096 47.1049C34.7028 48.9342 44.2397 45.3619 46.0032 39.126C46.6198 36.9473 46.2087 34.7357 44.9837 32.6968C44.6837 32.1953 44.3343 31.7061 43.9396 31.2333C41.3375 28.0969 36.7541 25.5605 31.1059 24.5287C30.1892 24.3643 29.2807 24.241 28.3805 24.167C35.9689 24.3602 42.7146 26.321 47.3392 29.3589C48.1079 29.8645 48.8232 30.403 49.4686 30.9703C52.1118 33.2723 53.6656 36.0265 53.7273 39.0067C53.9123 47.5365 41.7938 54.7262 26.6787 55.0633ZM48.8972 20.0069C48.2477 20.048 47.0432 19.6329 46.8829 19.563C46.7596 19.5054 46.6363 19.4438 46.5212 19.378C45.0043 18.5887 43.3107 17.9187 41.4691 17.4172C40.7127 17.2116 39.9275 17.0349 39.126 16.8869C29.1328 15.0576 19.5959 18.6298 17.8324 24.8658C17.2157 27.0445 17.6268 29.2561 18.8518 31.295C19.1519 31.7965 19.5013 32.2857 19.8959 32.7584C22.498 35.8949 27.0815 38.4312 32.7297 39.463C33.6464 39.6275 34.5548 39.7508 35.4551 39.8248C27.8667 39.6316 21.1209 37.6708 16.4964 34.6329C15.7277 34.1273 15.0124 33.5888 14.367 33.0215C11.7238 30.7195 10.17 27.9653 10.1083 24.985C9.93153 16.447 22.05 9.25737 37.1651 8.92029C39.7138 8.86274 42.1802 9.00251 44.5275 9.31903C46.5623 9.59034 48.556 9.83698 50.3195 10.5111C52.2639 11.2552 53.7437 13.0968 53.7437 15.1604C53.7355 17.8406 51.565 19.8302 48.8972 20.0069Z" fill="#0A77F3"/>
</svg>
