<svg width="24" height="24" viewBox="0 0 24 24" fill="none" xmlns="http://www.w3.org/2000/svg">
<mask id="mask0_2013_306" style="mask-type:alpha" maskUnits="userSpaceOnUse" x="0" y="0" width="24" height="24">
<rect width="24" height="24" fill="#07CB7D"/>
</mask>
<g mask="url(#mask0_2013_306)">
<path d="M16 3C18.7614 3 21 5.23858 21 8V16C21 18.7614 18.7614 21 16 21H8C5.23858 21 3 18.7614 3 16V8C3 5.23858 5.23858 3 8 3H16ZM14.4072 10.5693C14.2078 10.2904 13.7932 10.2905 13.5938 10.5693L10.5156 14.8779L8.91016 12.585C8.71115 12.3007 8.28993 12.3008 8.09082 12.585L5.55176 16.2129C5.31979 16.5443 5.55643 17 5.96094 17H18.0293C18.4354 16.9994 18.6715 16.5397 18.4355 16.209L14.4072 10.5693ZM7.84668 6.46191C7.08198 6.46191 6.46191 7.08198 6.46191 7.84668C6.462 8.61131 7.08203 9.23145 7.84668 9.23145C8.61126 9.23136 9.23136 8.61126 9.23145 7.84668C9.23145 7.08203 8.61131 6.462 7.84668 6.46191Z" fill="#07CB7D"/>
</g>
</svg>
