<svg width="190" height="107" viewBox="0 0 190 107" fill="none" xmlns="http://www.w3.org/2000/svg">
<path d="M92.6301 34.3749C117.231 31.7961 139.755 33.1278 156.248 37.2738C164.507 39.3499 171.089 42.0918 175.652 45.2718C180.224 48.4582 182.45 51.843 182.801 55.2007C183.153 58.5584 181.678 62.3312 177.867 66.3963C174.063 70.4534 168.191 74.5 160.543 78.2436C145.268 85.7197 123.51 91.6943 98.9091 94.2732C74.3079 96.8521 51.7831 95.5195 35.2904 91.3735C27.0317 89.2974 20.4487 86.5564 15.886 83.3764C11.3142 80.1901 9.08872 76.8052 8.73671 73.4475C8.38473 70.0899 9.85996 66.3171 13.6716 62.2519C17.4756 58.1948 23.3469 54.1474 30.9956 50.4037C46.27 42.9276 68.0289 36.9538 92.6301 34.3749Z" stroke="#F5F5F5" stroke-width="6" stroke-linejoin="round"/>
<path d="M88.1337 12.6495C110.649 10.2895 130.82 26.5558 133.319 49.0226C133.284 49.0939 133.226 49.2022 133.13 49.3497C132.805 49.8485 132.217 50.5373 131.301 51.3776C129.481 53.0471 126.671 55.0336 123.02 57.0159C115.73 60.973 105.418 64.7348 93.7222 65.9609C82.0265 67.1869 71.1575 65.6455 63.2057 63.286C59.2224 62.1041 56.0619 60.7434 53.935 59.4877C52.8645 58.8557 52.1468 58.3037 51.7254 57.8832C51.6005 57.7585 51.5207 57.6649 51.4721 57.6024C49.2573 35.1057 65.6185 15.0097 88.1337 12.6495Z" fill="#F5F5F5" stroke="#F5F5F5" stroke-width="6" stroke-linejoin="round"/>
<path d="M36.2609 68.3418C36.5151 70.7669 34.7553 72.939 32.3302 73.1932C29.9051 73.4474 27.7331 71.6876 27.4789 69.2625C27.2246 66.8374 28.9845 64.6653 31.4096 64.4111C33.8347 64.1569 36.0067 65.9167 36.2609 68.3418Z" fill="#F5F5F5"/>
<path d="M125.775 75.293C126.029 77.7181 124.269 79.8901 121.844 80.1444C119.419 80.3986 117.247 78.6387 116.993 76.2136C116.738 73.7885 118.498 71.6165 120.923 71.3623C123.348 71.1081 125.52 72.8679 125.775 75.293Z" fill="#F5F5F5"/>
<path d="M77.4738 80.3565C77.728 82.7816 75.9682 84.9536 73.5431 85.2078C71.118 85.4621 68.946 83.7022 68.6917 81.2771C68.4375 78.852 70.1974 76.68 72.6225 76.4258C75.0476 76.1715 77.2196 77.9314 77.4738 80.3565Z" fill="#F5F5F5"/>
<path d="M163.6 54.9932C163.854 57.4183 162.094 59.5903 159.669 59.8446C157.244 60.0988 155.072 58.3389 154.818 55.9138C154.564 53.4887 156.323 51.3167 158.748 51.0625C161.174 50.8083 163.346 52.5681 163.6 54.9932Z" fill="#F5F5F5"/>
</svg>
