<svg width="844" height="844" viewBox="0 0 844 844" fill="none" xmlns="http://www.w3.org/2000/svg">
<path d="M518.942 1H325.058C146.102 1 1 146.102 1 325.058V518.942C1 697.898 146.102 843 325.058 843H518.942C697.898 843 843 697.898 843 518.942V325.058C843 146.102 697.898 1 518.942 1ZM351.991 725.426C318.46 726.183 286.011 724.345 255.131 720.18C228.36 716.611 202.13 713.366 178.929 704.496C153.349 694.708 133.879 670.479 133.879 643.33C133.879 608.177 162.488 581.947 197.533 579.676C206.078 579.135 221.924 584.597 224.033 585.516C225.656 586.274 227.278 587.085 228.793 587.95C248.749 598.334 271.031 607.149 295.259 613.747C305.21 616.451 315.54 618.777 326.086 620.724C457.559 644.79 583.029 597.793 606.23 515.751C614.342 487.087 608.934 457.991 592.818 431.167C588.87 424.569 584.273 418.133 579.081 411.914C544.847 370.649 484.546 337.281 410.237 323.706C398.177 321.543 386.225 319.921 374.381 318.947C474.216 321.489 562.964 347.286 623.806 387.252C633.92 393.904 643.33 400.989 651.821 408.453C686.595 438.738 707.038 474.973 707.85 514.182C710.283 626.402 550.85 720.991 351.991 725.426ZM644.303 264.216C635.758 264.757 619.912 259.295 617.803 258.375C616.181 257.618 614.558 256.807 613.044 255.942C593.088 245.558 570.806 236.743 546.578 230.145C536.626 227.441 526.297 225.115 515.751 223.168C384.278 199.102 258.808 246.099 235.607 328.141C227.495 356.804 232.903 385.9 249.019 412.725C252.967 419.323 257.564 425.759 262.756 431.978C296.99 473.243 357.291 506.611 431.6 520.186C443.66 522.349 455.612 523.971 467.456 524.945C367.621 522.403 278.872 496.606 218.03 456.639C207.917 449.987 198.507 442.903 190.016 435.439C155.241 405.154 134.798 368.919 133.987 329.709C131.662 217.381 291.095 122.792 489.954 118.358C523.485 117.6 555.934 119.439 586.814 123.604C613.585 127.173 639.815 130.418 663.016 139.287C688.596 149.076 708.066 173.305 708.066 200.454C707.958 235.715 679.402 261.891 644.303 264.216Z" fill="#D9D9D9" fill-opacity="0.03" stroke="white" stroke-width="2"/>
</svg>
