<svg width="414" height="88" viewBox="0 0 414 88" fill="none" xmlns="http://www.w3.org/2000/svg">
<path d="M0 23.4723V64.5277C0 77.4922 10.5078 88 23.4723 88H64.5277C77.4922 88 88 77.4922 88 64.5277V23.4723C88.005 10.5078 77.4972 0 64.5327 0H23.4723C10.5078 0 0 10.5078 0 23.4723ZM75.1155 75.1155C64.1974 86.0335 41.4156 80.9548 24.2329 63.7671C7.05021 46.5794 1.97146 23.8076 12.8895 12.8895C20.9104 4.8686 35.3311 5.48405 49.2314 13.1847C45.1984 16.5272 42.6215 21.5709 42.6215 27.2051C42.6215 37.2425 50.7875 45.4085 60.8249 45.4085C66.4591 45.4085 71.4978 42.8366 74.8403 38.8087C82.521 52.6989 83.1314 67.1046 75.1155 75.1155ZM72.5186 27.2101C72.5186 27.4453 72.5086 27.6754 72.4986 27.9056C72.4935 27.9757 72.4885 28.0407 72.4835 28.1108C72.4685 28.2759 72.4535 28.441 72.4335 28.6011C72.4235 28.6712 72.4135 28.7462 72.4085 28.8163C72.3835 28.9914 72.3584 29.1615 72.3234 29.3317C72.3134 29.3817 72.3084 29.4367 72.2934 29.4868C72.2484 29.7119 72.1983 29.9371 72.1383 30.1623C72.1383 30.1673 72.1383 30.1673 72.1333 30.1723C72.0782 30.3874 72.0132 30.6026 71.9431 30.8128C71.9281 30.8578 71.9131 30.9028 71.8981 30.9479C71.8381 31.123 71.778 31.2931 71.708 31.4682C71.693 31.5133 71.6729 31.5533 71.6579 31.5983C71.5779 31.7985 71.4928 31.9936 71.4027 32.1888C71.3977 32.1938 71.3977 32.2038 71.3927 32.2088C71.2927 32.424 71.1826 32.6341 71.0675 32.8443C69.076 36.4569 65.2282 38.9087 60.8199 38.9087C54.3702 38.9087 49.1213 33.6599 49.1213 27.2101C49.1213 22.7968 51.5781 18.949 55.1958 16.9575C55.4009 16.8474 55.6061 16.7374 55.8162 16.6373C55.8362 16.6273 55.8513 16.6223 55.8713 16.6123C56.0514 16.5272 56.2415 16.4471 56.4267 16.3721C56.4767 16.3521 56.5268 16.3321 56.5718 16.312C56.7369 16.247 56.902 16.187 57.0722 16.1319C57.1222 16.1169 57.1722 16.0969 57.2223 16.0819C57.4274 16.0168 57.6376 15.9518 57.8477 15.8967C57.8527 15.8967 57.8627 15.8917 57.8677 15.8917C58.0879 15.8317 58.3131 15.7817 58.5382 15.7366C58.5933 15.7266 58.6433 15.7166 58.6984 15.7066C58.8685 15.6766 59.0386 15.6466 59.2087 15.6265C59.2838 15.6165 59.3538 15.6065 59.4289 15.5965C59.589 15.5765 59.7541 15.5615 59.9193 15.5515C59.9893 15.5465 60.0594 15.5415 60.1244 15.5365C60.3546 15.5215 60.5848 15.5165 60.8199 15.5165C67.2697 15.5115 72.5186 20.7553 72.5186 27.2101ZM79.9491 12.139C79.9491 13.3399 79.5337 14.4407 78.8382 15.3113C78.493 15.7466 78.0777 16.1219 77.6123 16.4271C77.5873 16.4421 77.5573 16.4572 77.5323 16.4772C77.4072 16.5522 77.2821 16.6273 77.152 16.6923C77.107 16.7173 77.0619 16.7374 77.0169 16.7574C76.9018 16.8124 76.7817 16.8625 76.6616 16.9075C76.6066 16.9275 76.5515 16.9475 76.4915 16.9675C76.3764 17.0076 76.2563 17.0426 76.1362 17.0726C76.0762 17.0876 76.0161 17.1076 75.9511 17.1176C75.826 17.1477 75.7009 17.1677 75.5708 17.1827C75.5158 17.1927 75.4607 17.2027 75.4007 17.2077C75.2156 17.2277 75.0254 17.2427 74.8353 17.2427C74.6652 17.2427 74.495 17.2327 74.3249 17.2177C74.2699 17.2127 74.2148 17.2027 74.1548 17.1927C74.0447 17.1777 73.9346 17.1627 73.8295 17.1427C73.7645 17.1277 73.6994 17.1126 73.6294 17.0926C73.5343 17.0726 73.4442 17.0476 73.3492 17.0226C73.2791 17.0026 73.2091 16.9775 73.144 16.9525C73.059 16.9225 72.9739 16.8925 72.8938 16.8625C72.8238 16.8324 72.7537 16.8024 72.6837 16.7674C72.6086 16.7324 72.5336 16.6973 72.4585 16.6573C72.3885 16.6223 72.3184 16.5822 72.2534 16.5422C72.1833 16.5022 72.1183 16.4622 72.0482 16.4171C71.9782 16.3721 71.9131 16.3221 71.8431 16.277C71.783 16.232 71.723 16.187 71.6629 16.1419C71.5979 16.0869 71.5328 16.0318 71.4678 15.9768C71.4128 15.9318 71.3627 15.8817 71.3077 15.8317C71.2426 15.7716 71.1826 15.7066 71.1175 15.6416C71.0725 15.5915 71.0275 15.5415 70.9824 15.4914C70.9224 15.4214 70.8623 15.3513 70.8073 15.2763C70.7673 15.2262 70.7322 15.1762 70.6922 15.1262C70.6372 15.0461 70.5821 14.9711 70.5271 14.886C70.4971 14.836 70.4671 14.7859 70.437 14.7359C70.387 14.6508 70.337 14.5608 70.2869 14.4707C70.2619 14.4207 70.2419 14.3706 70.2169 14.3256C70.1718 14.2305 70.1268 14.1304 70.0868 14.0354C70.0668 13.9903 70.0517 13.9453 70.0367 13.9003C69.9967 13.7952 69.9617 13.6851 69.9267 13.58C69.9166 13.54 69.9066 13.5 69.8966 13.4599C69.8666 13.3399 69.8366 13.2248 69.8116 13.0997C69.8066 13.0697 69.8016 13.0446 69.7966 13.0146C69.7715 12.8795 69.7515 12.7444 69.7415 12.6093C69.7265 12.4542 69.7165 12.2991 69.7165 12.139C69.7165 9.31688 72.0032 7.0352 74.8203 7.0352C77.6624 7.0352 79.9491 9.31688 79.9491 12.139Z" fill="#3D4A1F"/>
<path d="M115.953 74.987V12.4233H127.385V31.9808C131.345 29.1823 135.853 27.783 140.915 27.783C147.733 27.783 153.522 30.1197 158.287 34.793C163.052 39.4663 165.43 45.1547 165.43 51.8491C165.43 58.4887 163.034 64.1725 158.241 68.9053C153.449 73.6472 147.674 76.0112 140.915 76.0112C135.913 76.0112 131.404 74.6257 127.385 71.8592V74.987H115.953ZM131.359 42.4294C128.711 45.109 127.385 48.2504 127.385 51.8537C127.385 55.457 128.711 58.5984 131.359 61.278C134.006 63.9576 137.193 65.2974 140.915 65.2974C144.638 65.2974 147.82 63.9576 150.472 61.278C153.12 58.5984 154.446 55.457 154.446 51.8537C154.446 48.2504 153.12 45.109 150.472 42.4294C147.82 39.7498 144.638 38.41 140.915 38.41C137.193 38.4145 134.011 39.7543 131.359 42.4294Z" fill="#3D4A1F"/>
<path d="M169.628 74.987V12.4233H181.151V74.987H169.628Z" fill="#3D4A1F"/>
<path d="M186.774 52.7457V28.2314H198.206V49.8191C198.206 55.1738 196.967 64.8039 212.043 64.8039C224.645 64.8039 224.101 57.4601 224.101 54.0992V28.2314H235.533V74.9873H224.101V71.2194C220.882 74.0316 215.88 75.4354 210.923 75.4354C197.872 75.4308 186.774 67.8721 186.774 52.7457Z" fill="#3D4A1F"/>
<path d="M241.025 74.9871V28.2313H252.457V31.9809C255.553 29.1824 259.453 27.7832 264.159 27.7832C270.739 27.7832 275.545 29.9872 278.581 34.3907C282.541 30.0147 287.722 27.8106 294.119 27.7832C306.323 27.7832 312.428 35.3464 312.428 50.4683V74.9826H300.996V53.4177C300.996 48.0585 300.388 44.2175 299.167 41.8945C297.946 39.5716 295.477 38.4101 291.755 38.4101C288.837 38.4101 286.551 39.3567 284.9 41.2452C283.25 43.1383 282.422 45.7493 282.422 49.0828V74.9826H270.99V53.4177C270.99 48.0585 270.382 44.2175 269.161 41.8945C267.94 39.5716 265.471 38.4101 261.749 38.4101C258.831 38.4101 256.554 39.3567 254.917 41.2452C253.28 43.1383 252.462 45.7493 252.462 49.0828V74.9826H241.025V74.9871Z" fill="#3D4A1F"/>
<path d="M316.447 51.8532C316.447 45.1542 318.821 39.4703 323.572 34.7971C328.318 30.1238 334.116 27.7871 340.966 27.7871C348.168 27.7871 354.049 30.1969 358.603 35.0211C363.157 39.8453 365.435 45.6938 365.435 52.5711C365.435 53.3165 365.375 54.359 365.256 55.6988H328.149C329.132 58.7351 330.792 61.0946 333.128 62.7774C335.465 64.4601 338.373 65.3015 341.858 65.3015C344.716 65.3015 347.103 64.8259 349.023 63.8748C350.944 62.9237 352.663 61.4193 354.181 59.3661L363.825 64.6796C358.822 72.2429 351.502 76.0199 341.853 76.0199C334.528 76.0199 328.464 73.729 323.658 69.1426C318.853 64.5516 316.447 58.79 316.447 51.8532ZM328.419 46.6266H353.289C350.967 41.1485 346.86 38.4095 340.966 38.4095C338.227 38.4095 335.726 39.1685 333.462 40.6867C331.199 42.2094 329.516 44.1894 328.419 46.6266Z" fill="#3D4A1F"/>
<path d="M369.856 74.9871V28.2313H381.288V31.9809C384.594 29.1824 388.792 27.7832 393.881 27.7832C406.68 27.7832 413.082 35.3464 413.082 50.4683V74.9826H401.65V53.4177C401.65 48.0585 400.983 44.2175 399.643 41.8945C398.303 39.5716 395.596 38.4101 391.517 38.4101C388.362 38.4101 385.87 39.3567 384.036 41.2452C382.207 43.1383 381.288 45.7493 381.288 49.0828V74.9826H369.856V74.9871Z" fill="#3D4A1F"/>
<path d="M201.513 23.3155C204.521 23.3155 206.96 20.8772 206.96 17.8694C206.96 14.8616 204.521 12.4233 201.513 12.4233C198.506 12.4233 196.067 14.8616 196.067 17.8694C196.067 20.8772 198.506 23.3155 201.513 23.3155Z" fill="#3D4A1F"/>
<path d="M220.943 23.3155C223.951 23.3155 226.389 20.8772 226.389 17.8694C226.389 14.8616 223.951 12.4233 220.943 12.4233C217.935 12.4233 215.497 14.8616 215.497 17.8694C215.497 20.8772 217.935 23.3155 220.943 23.3155Z" fill="#3D4A1F"/>
</svg>
