<svg width="715" height="177" viewBox="0 0 715 177" fill="none" xmlns="http://www.w3.org/2000/svg">
<path d="M13.1688 132.105C13.3713 131.43 13.5873 130.755 13.8437 130.094C14.6806 127.867 15.7874 125.761 17.1237 123.817C18.1226 122.373 19.2429 121.023 20.4847 119.781C15.8144 118.796 11.8325 117.365 8.83594 116.083C9.15989 118.594 9.7538 121.982 10.8201 125.626C11.4816 127.907 12.2779 130.08 13.1688 132.105Z" fill="#FFD93C" fill-opacity="0.05"/>
<path d="M33.1998 112.614L33.8072 113.303C34.4821 113.195 35.1705 113.06 35.8724 112.884V102.545C35.6699 102.558 35.4674 102.585 35.2515 102.612C32.6194 103.004 32.1739 104.178 31.9984 104.61C31.256 106.513 31.2426 108.444 31.9714 110.36C32.4844 111.737 33.1998 112.601 33.1998 112.614Z" fill="#FFD93C" fill-opacity="0.05"/>
<path d="M41.3665 159.561C35.1574 159.561 29.3667 158.049 24.0755 155.066C18.7033 152.015 14.1409 147.71 10.537 142.256C10.5235 142.243 10.5235 142.229 10.51 142.216C10.159 142.594 9.79459 142.999 9.44364 143.444C7.45943 145.968 6.79802 148.303 7.48642 150.382C10.3075 158.872 18.1499 164.285 30.7975 166.458C36.0212 167.363 41.0155 167.484 44.2955 167.43C44.9434 167.417 45.5509 167.403 46.1178 167.376L44.0661 159.453C43.1482 159.534 42.2573 159.561 41.3665 159.561Z" fill="#FFD93C" fill-opacity="0.05"/>
<path d="M112.676 84.781L112.649 84.7674L112.676 84.7405L94.3054 76.0477L84.9108 58.0684L75.5162 76.0477L57.1318 84.7405L57.1723 84.7674L57.1318 84.781L75.5162 93.4737L84.9108 111.453L94.3054 93.4737L112.676 84.781Z" fill="#FFD93C" fill-opacity="0.05"/>
<path d="M31.7535 29.2771L27.4648 34.2236L32.4114 38.5123L36.7001 33.5657L31.7535 29.2771Z" fill="#471A0B"/>
<path d="M130.615 38.0376H123.758V44.8946H130.615V38.0376Z" fill="#471A0B"/>
<path d="M101.325 63.6164L103.781 66.262L109.059 61.3487L106.603 58.7031C104.402 56.3274 103.579 53.0609 104.416 49.9429L105.347 46.4603L98.3822 44.5977L97.4509 48.0801C96.7085 50.8337 96.695 53.7358 97.4104 56.4894C98.1123 59.135 99.4621 61.5917 101.325 63.6164Z" fill="#471A0B"/>
<path d="M169.638 108.835C169.517 108.7 166.669 105.325 162.417 101.91C159.879 99.8584 157.355 98.2116 154.898 96.9833C151.659 95.3635 148.527 94.4997 145.598 94.4052C144.586 94.3782 143.6 94.4322 142.629 94.5807C142.696 91.4761 142.858 88.0881 143.007 85.6584L143.236 81.8385H135.164C140.118 78.464 142.993 75.4135 144.424 72.0929C154.979 70.9861 160.716 67.6521 163.712 64.9525C165.454 63.3867 166.75 61.0516 167.559 58.001C168.14 55.8548 168.491 53.3037 168.626 50.4286C168.842 45.6773 168.369 41.5874 168.356 41.4119L167.883 37.3355L163.901 38.3344C163.888 38.3344 162.012 38.7798 158.961 38.7933C158.88 38.7933 158.813 38.7933 158.732 38.7933C155.708 38.7933 151.078 38.3749 145.747 36.4447C144.505 35.9992 143.465 35.4323 142.575 34.7574L155.627 10.8254L152.131 9.20564C151.78 9.04366 148.527 7.58589 144.221 7.16745C142.021 6.95148 139.942 7.05945 137.999 7.45089C138.053 6.22257 138.08 5.45319 138.08 5.4127L138.255 1.52526L134.368 1.66025C134.206 1.66025 132.694 1.72774 130.521 2.18667C127.592 2.80758 124.865 3.83342 122.409 5.23722C118.886 7.24842 116.064 9.97502 114.04 13.309C113.365 14.4159 112.784 15.6037 112.285 16.8455C110.665 16.0221 108.087 14.8073 104.902 13.7005C101.703 12.5936 98.517 11.8108 95.453 11.3788C91.5385 10.8254 87.7861 10.8524 84.3036 11.4328L81.2935 11.9322V38.3074L80.9561 38.5639C77.2711 41.3849 71.494 41.3039 67.2826 40.737C64.0431 40.3051 61.2085 39.5087 59.6157 39.0093C59.8047 38.1454 60.0342 37.1871 60.3041 36.1207C61.438 31.7879 63.6246 24.8903 67.674 16.6835C68.0925 15.8332 68.4839 14.4429 67.9305 12.6341C67.6605 11.7433 67.2016 10.8524 66.5132 9.90754C65.5954 8.63873 64.286 7.27543 62.5043 5.73666C59.7102 3.32051 56.7541 1.37679 56.6327 1.2958L54.6754 0L20.1745 22.2582L2.50559 16.6566L1.34476 19.9501C1.22327 20.301 0.170431 23.4731 1.02081 27.9139C1.50674 30.4785 2.51908 32.9621 4.03086 35.3243C5.40766 37.4705 7.20289 39.4952 9.37608 41.3579C8.60669 43.6121 7.70233 47.1081 7.56735 51.2925C7.41887 55.5984 8.09377 59.7827 9.57855 63.7377C11.4143 68.6374 14.4918 73.1323 18.7302 77.1142C21.6728 79.8948 25.2902 82.149 29.4746 83.8227C32.7412 85.132 36.3721 86.0904 40.2461 86.6708C41.1504 86.8058 42.0143 86.9137 42.8512 86.9947L43.0132 87.2512C45.7803 91.8135 47.3595 95.89 47.724 99.3859C48.0074 102.153 47.535 104.461 46.2797 106.459C45.4428 107.795 44.309 108.862 43.0806 109.739V96.0384L40.1381 95.4985C39.8546 95.4445 37.344 95.0126 34.4284 95.404C32.5387 95.6605 30.8649 96.2139 29.4476 97.0508C28.5298 97.5907 27.7334 98.2521 27.0585 99.0215C26.3026 99.8718 25.7087 100.857 25.2902 101.937C23.8999 105.487 23.8864 109.267 25.2363 112.843C25.2902 112.978 25.3442 113.127 25.3982 113.262C20.107 112.506 15.5987 110.981 12.6156 109.766C8.98463 108.295 6.75746 106.931 6.68997 106.891L1.25027 103.476L1.18278 109.914C1.18278 110.238 1.12879 118 3.84189 127.367C4.69226 130.283 5.70462 133.036 6.89244 135.628C5.97458 136.451 4.92173 137.518 3.92287 138.76C2.3841 140.676 1.27726 142.661 0.642853 144.658C-0.207522 147.358 -0.22102 150.031 0.642853 152.609C2.72155 158.872 6.81145 163.92 12.8046 167.605C17.3939 170.426 23.0901 172.424 29.7446 173.558C34.6309 174.381 39.2877 174.624 42.9996 174.624C47.697 174.624 50.896 174.246 51.1255 174.219L55.2154 173.72L51.2334 158.332C56.3357 157.13 61.6269 155.038 67.0396 152.082C73.1542 148.735 78.3105 144.874 81.55 142.215C85.0865 139.327 87.1787 137.221 87.2597 137.126L88.272 136.101C91.9165 141.432 95.183 144.294 98.8545 145.536C98.787 150.516 98.9759 155.025 99.3809 158.696C99.6643 161.166 100.056 163.313 100.542 165.067C101.163 167.281 101.959 168.941 102.971 170.156C104.416 171.87 107.21 173.652 109.356 174.732C112.123 176.136 114.526 176.851 116.523 176.851C117.077 176.851 117.603 176.797 118.089 176.689C119.088 176.473 119.952 176.028 120.667 175.393C121.45 174.691 122.004 173.774 122.301 172.721C122.908 170.48 126.836 166.755 130.642 163.151C135.151 158.885 140.266 154.053 144.221 148.168C146.462 144.847 148.041 141.608 149.081 138.26C150.268 134.413 150.673 130.458 150.295 126.503C150.282 126.341 150.268 126.166 150.241 125.977C150.066 124.236 149.796 121.617 150.093 119.188C150.268 117.689 150.741 115.759 151.942 115.111C152.104 115.017 153.71 114.234 159.906 114.342C163.389 114.396 166.493 114.72 166.52 114.72L175.415 115.638L169.638 108.835ZM137.769 15.0638C139.389 14.4159 141.252 14.1729 143.357 14.3619C144.059 14.4159 144.734 14.5239 145.342 14.6454L138.296 27.5629C137.958 26.0107 137.81 24.4044 137.742 22.8252C137.661 21.0569 137.702 18.0739 137.769 15.0638ZM88.515 18.2628C93.7657 18.0064 98.8275 19.2752 102.391 20.49C107.142 22.1232 110.395 24.0535 110.422 24.067L110.557 23.851C110.395 25.2278 110.301 26.6586 110.301 28.1434V31.7473H117.509V28.1434C117.509 20.436 120.303 14.8883 125.783 11.6488C127.497 10.6364 129.239 9.98852 130.723 9.58358C130.575 13.849 130.399 20.0445 130.548 23.1356C130.669 25.7812 131.02 29.7226 132.708 33.4886C133.666 35.6348 134.975 37.5245 136.568 39.0768C138.417 40.872 140.685 42.2758 143.303 43.2207C149.391 45.4208 154.763 45.9878 158.732 45.9878C159.744 45.9878 160.648 45.9473 161.472 45.8933C161.512 47.1486 161.526 48.6199 161.458 50.1587C161.35 52.4938 161.067 54.505 160.621 56.1383C160.176 57.758 159.582 58.9728 158.921 59.5803C156.99 61.3215 152.199 64.3451 141.751 65.074H126.363V72.2819H135.61C133.679 74.2256 130.656 76.3583 126.336 78.842L121.639 80.9746L99.5969 70.5407L88.5285 49.3623V18.2628H88.515ZM41.6768 79.6518C43.4586 78.8825 45.1863 77.9916 46.8601 77.0062C49.5462 75.4269 52.0973 73.5777 54.446 71.526C55.8903 70.2572 57.2671 68.8939 58.5494 67.4631C55.6743 67.0851 52.8802 66.4778 50.1536 65.6679C44.4034 70.8916 37.209 74.5091 29.3127 75.8724C28.2328 75.3055 27.18 74.6711 26.1676 73.9557C27.8009 73.5642 29.4341 73.0918 31.0269 72.5384C33.9965 71.499 36.8715 70.1627 39.5846 68.5699C41.7848 67.2876 43.877 65.8164 45.8477 64.1966C43.2966 63.2112 40.84 62.0369 38.4913 60.7006C33.0651 64.4396 26.721 66.9232 19.9315 67.7466C19.2701 66.8557 18.6627 65.9513 18.1363 65.0335C19.8236 64.642 21.4973 64.1561 23.1441 63.5757C26.1136 62.5363 28.9887 61.2 31.7018 59.6073C32.5657 59.1078 33.4026 58.5679 34.2394 58.0145C32.1472 56.5567 30.1495 54.964 28.2733 53.2362C24.3454 55.5714 20.0125 57.2856 15.4232 58.2304C15.1532 57.0831 14.9778 55.9223 14.8698 54.7345C14.9913 54.694 15.1262 54.6535 15.2477 54.5995C18.2173 53.5601 21.0924 52.2239 23.8055 50.6311C24.1969 50.4016 24.5884 50.1721 24.9663 49.9292C23.3195 48.1474 21.7943 46.2442 20.3905 44.26C18.7842 45.2184 17.1104 46.0687 15.3827 46.8111C16.0036 43.8821 16.8945 41.9923 16.962 41.8709L18.3523 39.1712L15.8686 37.349C11.6168 34.231 9.03862 30.7485 8.21524 27.0096C8.13426 26.6586 8.08027 26.3211 8.03977 26.0107L21.2678 30.2086L54.608 8.70622C55.2829 9.20565 56.0792 9.79955 56.8756 10.4475C59.4132 12.5127 60.4391 13.768 60.844 14.3754C59.0893 18.0064 57.5235 21.6913 56.2007 25.3223C55.0534 28.4673 54.0815 31.5719 53.3121 34.5819C52.3808 38.2129 51.9488 40.8315 51.7734 42.1273C48.9793 46.3252 46.2257 45.7988 43.5666 45.2858C42.5812 45.0969 39.6926 44.449 38.6668 44.2195L35.1573 43.4231L33.5645 50.4556L37.074 51.252C37.236 51.2925 40.9075 52.1158 42.2168 52.3723C43.769 52.6693 46.6441 53.2227 49.7352 52.3723C52.9072 51.5084 55.6338 49.3757 57.834 46.0417C59.7237 46.6222 62.7473 47.432 66.2027 47.9045C68.1465 48.1744 70.0092 48.3094 71.7774 48.3094C73.1542 48.3094 74.477 48.2284 75.7323 48.0664C77.7706 47.7965 79.6333 47.3241 81.334 46.6357V49.3893L70.2657 70.5677L50.0456 80.1378C48.3179 80.1917 45.2808 80.1648 41.6768 79.6518ZM31.9988 104.623C32.1742 104.178 32.6197 103.017 35.2518 102.625C35.4543 102.598 35.6702 102.571 35.8727 102.558V112.897C35.1708 113.059 34.4824 113.194 33.8075 113.316L33.2001 112.628C33.2001 112.614 32.4847 111.75 31.9718 110.387C31.2564 108.457 31.2699 106.526 31.9988 104.623ZM20.485 119.768C19.2431 121.01 18.1228 122.36 17.1239 123.804C15.7876 125.748 14.6808 127.853 13.8439 130.08C13.601 130.742 13.3715 131.417 13.169 132.092C12.2782 130.067 11.4818 127.907 10.8069 125.599C9.74053 121.955 9.14661 118.58 8.82266 116.056C11.8327 117.352 15.8146 118.783 20.485 119.768ZM44.282 167.443C41.0155 167.497 36.0077 167.375 30.7839 166.471C18.1363 164.298 10.2939 158.885 7.47286 150.395C6.78446 148.316 7.44586 145.981 9.43007 143.457C9.78102 143.012 10.132 142.607 10.4964 142.229C10.5099 142.242 10.5099 142.256 10.5234 142.269C14.1274 147.722 18.6897 152.028 24.0619 155.079C29.3532 158.075 35.1438 159.574 41.3529 159.574C42.2438 159.574 43.1346 159.547 44.0525 159.479L46.1042 167.402C45.5508 167.416 44.9299 167.429 44.282 167.443ZM81.0911 133.091C78.6344 135.372 72.0609 141.149 63.5706 145.792C49.6542 153.405 37.56 154.404 27.6254 148.775C24.4669 146.98 21.6593 144.672 19.2431 141.864C19.0137 138.719 19.4726 135.615 20.5929 132.618C22.5232 127.475 26.3296 123.277 31.1484 120.821C34.0775 120.659 37.155 120.119 39.9221 119.228C45.5373 117.433 49.8567 114.369 52.3808 110.36C54.5 106.999 55.3503 103.071 54.9049 98.6975C54.6754 96.4434 54.0815 94.0407 53.1502 91.5571C53.0422 91.2601 52.9207 90.9632 52.7992 90.6527L70.2387 98.9L81.0776 119.66V133.091H81.0911ZM84.911 111.453L75.5164 93.4738L57.1456 84.7811L57.1726 84.7676L57.1456 84.7541L75.5164 76.0614L84.911 58.082L94.3056 76.0614L112.676 84.7541L112.649 84.7676L112.676 84.7811L94.3056 93.4738L84.911 111.453ZM154.088 107.35C151.645 107.593 149.796 108.079 148.46 108.808C146.691 109.779 145.315 111.264 144.343 113.208C143.627 114.652 143.155 116.38 142.912 118.337C142.521 121.55 142.845 124.789 143.047 126.719C143.06 126.895 143.087 127.057 143.101 127.219C144.37 140.258 134.003 150.058 125.675 157.927C121.059 162.287 117.306 165.837 115.767 169.549C115.066 169.387 113.945 169.009 112.406 168.212C110.382 167.16 108.87 165.985 108.479 165.526C108.263 165.283 107.183 163.731 106.535 157.9C106.089 153.972 105.941 148.937 106.089 143.336C106.4 132.254 107.79 122.36 108.897 119.538C108.951 119.404 109.221 118.891 110.301 118.216C111.205 117.649 112.406 117.136 113.864 116.677C116.577 115.827 119.169 115.53 119.196 115.53L118.4 108.362C118.265 108.376 115.201 108.727 111.853 109.752C109.774 110.387 107.993 111.156 106.548 112.047C104.389 113.37 102.917 115.003 102.188 116.893C100.704 120.659 99.6239 129.379 99.1244 137.626C96.7893 135.912 94.2111 132.51 91.0661 127.016L88.2855 120.834V120.483L99.5699 98.8865L120.424 89.0194H135.596C135.475 91.5436 135.367 94.8641 135.367 97.7392C134.705 98.2656 134.057 98.846 133.45 99.4804C132.208 100.776 131.155 102.369 130.332 104.191C129.697 105.582 129.198 107.12 128.847 108.754C128.253 111.453 128.24 113.545 128.24 113.788H135.448V113.802C135.448 113.788 135.461 112.182 135.92 110.157C136.311 108.47 137.094 106.108 138.66 104.475C140.604 102.45 142.791 101.505 145.355 101.586C148.784 101.694 152.955 103.611 157.436 107.134C156.221 107.188 155.101 107.255 154.088 107.35Z" fill="#471A0B"/>
<path d="M131.843 132.2H124.986V139.057H131.843V132.2Z" fill="#471A0B"/>
<path d="M64.6773 116.137C63.1926 113.829 61.1273 111.912 58.7112 110.603L55.5527 108.875L52.0972 115.206L55.2557 116.933C58.0903 118.486 59.899 121.334 60.088 124.56L60.304 128.164L67.4984 127.732L67.2824 124.128C67.1205 121.28 66.2161 118.513 64.6773 116.137Z" fill="#471A0B"/>
<path d="M36.3899 133.681L35.6562 140.499L42.4742 141.232L43.2079 134.414L36.3899 133.681Z" fill="#471A0B"/>
<path d="M238.087 55.1531H248.318V72.1067C243.58 75.4947 237.088 77.3169 231.122 77.3169C218.083 77.3169 208.553 68.4892 208.553 56.0305C208.553 43.5719 218.083 34.7441 231.351 34.7441C239.018 34.7441 245.214 37.3763 249.25 42.2221L241.88 48.8901C239.072 45.7855 235.859 44.3277 231.945 44.3277C224.926 44.3277 220.256 48.9441 220.256 56.017C220.256 62.9145 224.926 67.7063 231.824 67.7063C233.983 67.7063 236.035 67.3014 238.087 66.3565V55.1531Z" fill="#471A0B"/>
<path d="M273.6 65.6272H267.283V76.5066H255.715V35.5806H274.423C285.586 35.5806 292.605 41.3712 292.605 50.7253C292.605 56.7455 289.676 61.1863 284.601 63.643L293.429 76.5066H281.024L273.6 65.6272ZM273.721 44.6917H267.283V56.678H273.721C278.513 56.678 280.916 54.4508 280.916 50.7119C280.916 46.9054 278.513 44.6917 273.721 44.6917Z" fill="#471A0B"/>
<path d="M326.431 68.543H309.113L305.901 76.4934H294.09L312.164 35.5674H323.57L341.697 76.4934H329.657L326.431 68.543ZM323.03 60.0123L317.765 46.9192L312.501 60.0123H323.03Z" fill="#471A0B"/>
<path d="M383.933 35.5674V76.4934H374.403L356.329 54.6806V76.4934H344.991V35.5674H354.52L372.581 57.3802V35.5674H383.933Z" fill="#471A0B"/>
<path d="M386.875 71.2967L393.192 63.8187C395.352 66.6263 397.633 68.0841 400.265 68.0841C403.599 68.0841 405.408 66.0324 405.408 62.118V44.5165H391.249V35.5674H416.868V61.4161C416.868 72.0525 411.374 77.3168 401.075 77.3168C395.123 77.3168 390.034 75.2111 386.875 71.2967Z" fill="#471A0B"/>
<path d="M451.274 68.543H433.956L430.744 76.4934H418.933L437.007 35.5674H448.413L466.541 76.4934H454.5L451.274 68.543ZM447.873 60.0123L442.609 46.9192L437.344 60.0123H447.873Z" fill="#471A0B"/>
<path d="M211.145 85.3882H225.398V124.478H249.438V135.776H211.145V85.3882Z" fill="#471A0B"/>
<path d="M289.419 125.99H268.106L264.151 135.776H249.614L271.859 85.3882H285.896L308.209 135.776H293.374L289.419 125.99ZM285.235 115.475L278.756 99.3451L272.277 115.475H285.235Z" fill="#471A0B"/>
<path d="M372.324 124.762V135.776H331.871V85.3882H371.393V96.4025H345.99V104.893H368.37V115.543H345.99V124.762H372.324Z" fill="#471A0B"/>
<path d="M376.752 131.241L381.436 120.726C385.903 123.683 392.234 125.694 398.065 125.694C403.964 125.694 406.272 124.033 406.272 121.59C406.272 113.599 377.616 119.431 377.616 100.709C377.616 91.7057 384.958 84.3628 399.928 84.3628C406.474 84.3628 413.25 85.8746 418.218 88.7497L413.831 99.3321C409.012 96.7405 404.247 95.4447 399.86 95.4447C393.894 95.4447 391.721 97.4559 391.721 99.98C391.721 107.687 420.296 101.924 420.296 120.497C420.296 129.271 412.953 136.762 397.984 136.762C389.71 136.789 381.49 134.548 376.752 131.241Z" fill="#471A0B"/>
<path d="M436.886 96.686H421.403V85.3882H466.541V96.686H451.139V135.776H436.886V96.686Z" fill="#471A0B"/>
<path d="M493.914 122.386H486.14V135.776H471.886V85.3882H494.927C508.668 85.3882 517.307 92.5151 517.307 104.029C517.307 111.439 513.703 116.92 507.453 119.943L518.319 135.776H503.053L493.914 122.386ZM508.114 104.785L508.101 104.771L508.114 104.758L498.463 100.195L493.523 90.7469L488.583 100.195L478.932 104.758L478.945 104.771L478.932 104.785L488.583 109.347L493.523 118.796L498.463 109.347L508.114 104.785Z" fill="#471A0B"/>
<path d="M565.643 124.762V135.776H525.189V85.3882H564.712V96.4025H539.308V104.893H561.688V115.543H539.308V124.762H565.643Z" fill="#471A0B"/>
<path d="M573.594 85.3882H587.847V124.478H611.887V135.776H573.594V85.3882Z" fill="#471A0B"/>
<path d="M617.529 85.3882H631.783V124.478H655.823V135.776H617.529V85.3882Z" fill="#471A0B"/>
<path d="M695.805 125.99H674.491L670.536 135.776H655.999L678.244 85.3882H692.281L714.594 135.776H699.759L695.805 125.99ZM691.634 115.475L685.155 99.3451L678.676 115.475H691.634Z" fill="#471A0B"/>
</svg>
