<svg width="292" height="199" viewBox="0 0 292 199" fill="none" xmlns="http://www.w3.org/2000/svg">
<path d="M147 166.5V175" stroke="#0A77F3"/>
<path d="M133.061 180.6H134.477V187.788H138.113V189H133.061V180.6ZM142.123 182.58C142.779 182.58 143.355 182.716 143.851 182.988C144.355 183.26 144.747 183.64 145.027 184.128C145.307 184.608 145.447 185.168 145.447 185.808C145.447 186.448 145.307 187.012 145.027 187.5C144.747 187.988 144.355 188.368 143.851 188.64C143.355 188.912 142.779 189.048 142.123 189.048C141.467 189.048 140.887 188.912 140.383 188.64C139.879 188.368 139.487 187.988 139.207 187.5C138.927 187.012 138.787 186.448 138.787 185.808C138.787 185.168 138.927 184.608 139.207 184.128C139.487 183.64 139.879 183.26 140.383 182.988C140.887 182.716 141.467 182.58 142.123 182.58ZM142.123 183.696C141.739 183.696 141.399 183.788 141.103 183.972C140.807 184.148 140.575 184.396 140.407 184.716C140.247 185.036 140.167 185.404 140.167 185.82C140.167 186.244 140.247 186.616 140.407 186.936C140.575 187.256 140.807 187.508 141.103 187.692C141.399 187.868 141.739 187.956 142.123 187.956C142.507 187.956 142.843 187.868 143.131 187.692C143.427 187.508 143.655 187.256 143.815 186.936C143.983 186.616 144.067 186.244 144.067 185.82C144.067 185.404 143.983 185.036 143.815 184.716C143.655 184.396 143.427 184.148 143.131 183.972C142.843 183.788 142.507 183.696 142.123 183.696ZM152.647 188.364C152.647 188.98 152.511 189.512 152.239 189.96C151.967 190.408 151.583 190.752 151.087 190.992C150.591 191.24 150.007 191.364 149.335 191.364C148.839 191.364 148.371 191.288 147.931 191.136C147.491 190.992 147.075 190.788 146.683 190.524L147.271 189.576C147.575 189.8 147.887 189.972 148.207 190.092C148.527 190.22 148.883 190.284 149.275 190.284C149.683 190.284 150.035 190.204 150.331 190.044C150.635 189.892 150.867 189.676 151.027 189.396C151.195 189.116 151.279 188.784 151.279 188.4V182.628H152.647V188.364ZM149.119 182.58C149.679 182.572 150.155 182.692 150.547 182.94C150.947 183.18 151.251 183.528 151.459 183.984C151.667 184.44 151.767 184.988 151.759 185.628C151.767 186.268 151.667 186.82 151.459 187.284C151.259 187.74 150.963 188.092 150.571 188.34C150.187 188.58 149.719 188.7 149.167 188.7C148.591 188.7 148.087 188.572 147.655 188.316C147.223 188.052 146.887 187.688 146.647 187.224C146.407 186.76 146.287 186.224 146.287 185.616C146.287 185.016 146.403 184.492 146.635 184.044C146.875 183.588 147.207 183.232 147.631 182.976C148.063 182.712 148.559 182.58 149.119 182.58ZM149.443 183.636C149.083 183.636 148.763 183.724 148.483 183.9C148.203 184.068 147.983 184.304 147.823 184.608C147.671 184.912 147.591 185.26 147.583 185.652C147.591 186.044 147.671 186.392 147.823 186.696C147.983 187 148.199 187.24 148.471 187.416C148.751 187.584 149.075 187.668 149.443 187.668C149.803 187.668 150.119 187.584 150.391 187.416C150.671 187.24 150.887 187 151.039 186.696C151.199 186.392 151.279 186.044 151.279 185.652C151.279 185.252 151.199 184.904 151.039 184.608C150.887 184.304 150.671 184.068 150.391 183.9C150.119 183.724 149.803 183.636 149.443 183.636ZM157.299 182.58C157.955 182.58 158.531 182.716 159.027 182.988C159.531 183.26 159.923 183.64 160.203 184.128C160.483 184.608 160.623 185.168 160.623 185.808C160.623 186.448 160.483 187.012 160.203 187.5C159.923 187.988 159.531 188.368 159.027 188.64C158.531 188.912 157.955 189.048 157.299 189.048C156.643 189.048 156.063 188.912 155.559 188.64C155.055 188.368 154.663 187.988 154.383 187.5C154.103 187.012 153.963 186.448 153.963 185.808C153.963 185.168 154.103 184.608 154.383 184.128C154.663 183.64 155.055 183.26 155.559 182.988C156.063 182.716 156.643 182.58 157.299 182.58ZM157.299 183.696C156.915 183.696 156.575 183.788 156.279 183.972C155.983 184.148 155.751 184.396 155.583 184.716C155.423 185.036 155.343 185.404 155.343 185.82C155.343 186.244 155.423 186.616 155.583 186.936C155.751 187.256 155.983 187.508 156.279 187.692C156.575 187.868 156.915 187.956 157.299 187.956C157.683 187.956 158.019 187.868 158.307 187.692C158.603 187.508 158.831 187.256 158.991 186.936C159.159 186.616 159.243 186.244 159.243 185.82C159.243 185.404 159.159 185.036 158.991 184.716C158.831 184.396 158.603 184.148 158.307 183.972C158.019 183.788 157.683 183.696 157.299 183.696Z" fill="#3F99FF"/>
<path d="M42.289 11.676C41.969 11.372 41.593 11.136 41.161 10.968C40.737 10.792 40.305 10.704 39.865 10.704C39.433 10.704 39.033 10.784 38.665 10.944C38.297 11.104 37.973 11.324 37.693 11.604C37.413 11.884 37.193 12.212 37.033 12.588C36.881 12.956 36.805 13.356 36.805 13.788C36.805 14.22 36.881 14.624 37.033 15C37.193 15.376 37.413 15.708 37.693 15.996C37.973 16.276 38.297 16.496 38.665 16.656C39.041 16.816 39.445 16.896 39.877 16.896C40.269 16.896 40.673 16.816 41.089 16.656C41.513 16.496 41.893 16.28 42.229 16.008L43.045 16.992C42.765 17.208 42.441 17.4 42.073 17.568C41.713 17.736 41.337 17.868 40.945 17.964C40.553 18.052 40.165 18.096 39.781 18.096C39.157 18.096 38.577 17.988 38.041 17.772C37.513 17.548 37.045 17.24 36.637 16.848C36.237 16.456 35.925 16 35.701 15.48C35.477 14.952 35.365 14.388 35.365 13.788C35.365 13.188 35.477 12.632 35.701 12.12C35.933 11.6 36.253 11.144 36.661 10.752C37.069 10.36 37.545 10.056 38.089 9.84C38.641 9.624 39.233 9.516 39.865 9.516C40.265 9.516 40.657 9.564 41.041 9.66C41.433 9.756 41.805 9.892 42.157 10.068C42.509 10.244 42.821 10.456 43.093 10.704L42.289 11.676ZM41.809 13.896H43.045V16.992H41.809V13.896ZM45.0253 9.096H46.4053V18H45.0253V9.096ZM51.0124 18.9C50.8124 19.388 50.5364 19.756 50.1844 20.004C49.8324 20.26 49.4164 20.388 48.9364 20.388C48.6484 20.388 48.3844 20.344 48.1444 20.256C47.9124 20.168 47.6844 20.036 47.4604 19.86L48.0484 18.84C48.3364 19.048 48.6124 19.152 48.8764 19.152C49.0844 19.152 49.2724 19.092 49.4404 18.972C49.6084 18.852 49.7444 18.668 49.8484 18.42L50.0644 17.916L47.4244 11.628H48.8524L50.7604 16.548L52.5364 11.628L53.9164 11.628L51.0124 18.9ZM58.5514 11.58C59.1594 11.58 59.6914 11.716 60.1474 11.988C60.6034 12.26 60.9594 12.64 61.2154 13.128C61.4714 13.616 61.5994 14.184 61.5994 14.832C61.5994 15.464 61.4714 16.024 61.2154 16.512C60.9674 16.992 60.6154 17.368 60.1594 17.64C59.7114 17.912 59.1834 18.048 58.5754 18.048C57.9914 18.048 57.4914 17.92 57.0754 17.664C56.6674 17.408 56.3554 17.04 56.1394 16.56C55.9234 16.072 55.8154 15.496 55.8154 14.832C55.8154 14.144 55.9234 13.56 56.1394 13.08C56.3554 12.592 56.6674 12.22 57.0754 11.964C57.4914 11.708 57.9834 11.58 58.5514 11.58ZM58.2634 12.672C57.8874 12.672 57.5514 12.764 57.2554 12.948C56.9594 13.132 56.7274 13.384 56.5594 13.704C56.3994 14.016 56.3194 14.38 56.3194 14.796C56.3194 15.212 56.3994 15.584 56.5594 15.912C56.7274 16.232 56.9594 16.484 57.2554 16.668C57.5514 16.844 57.8874 16.932 58.2634 16.932C58.6474 16.932 58.9834 16.84 59.2714 16.656C59.5674 16.472 59.7954 16.22 59.9554 15.9C60.1234 15.58 60.2074 15.212 60.2074 14.796C60.2074 14.388 60.1234 14.024 59.9554 13.704C59.7954 13.384 59.5674 13.132 59.2714 12.948C58.9834 12.764 58.6474 12.672 58.2634 12.672ZM54.9394 11.628H56.3194L56.3194 20.328H54.9394L54.9394 11.628ZM67.8356 14.4C67.8356 13.904 67.6996 13.516 67.4276 13.236C67.1556 12.948 66.7796 12.804 66.2996 12.804C65.7316 12.812 65.2836 13.012 64.9556 13.404C64.6356 13.796 64.4756 14.284 64.4756 14.868H64.0916C64.0916 14.076 64.2036 13.44 64.4276 12.96C64.6516 12.48 64.9676 12.132 65.3756 11.916C65.7916 11.692 66.2796 11.58 66.8396 11.58C67.3356 11.58 67.7596 11.68 68.1116 11.88C68.4716 12.08 68.7436 12.364 68.9276 12.732C69.1196 13.092 69.2156 13.528 69.2156 14.04V18H67.8356V14.4ZM63.0956 9.096H64.4756V18H63.0956V9.096Z" fill="#3F99FF"/>
<path d="M183.095 9.6H184.619L186.875 17.112H186.515L188.771 9.6H190.163L192.431 17.112H192.071L194.315 9.6H195.779L192.935 18H191.471L189.263 10.74L189.623 10.752L187.379 18H185.927L183.095 9.6ZM198.932 11.58C199.588 11.58 200.164 11.716 200.66 11.988C201.164 12.26 201.556 12.64 201.836 13.128C202.116 13.608 202.256 14.168 202.256 14.808C202.256 15.448 202.116 16.012 201.836 16.5C201.556 16.988 201.164 17.368 200.66 17.64C200.164 17.912 199.588 18.048 198.932 18.048C198.276 18.048 197.696 17.912 197.192 17.64C196.688 17.368 196.296 16.988 196.016 16.5C195.736 16.012 195.596 15.448 195.596 14.808C195.596 14.168 195.736 13.608 196.016 13.128C196.296 12.64 196.688 12.26 197.192 11.988C197.696 11.716 198.276 11.58 198.932 11.58ZM198.932 12.696C198.548 12.696 198.208 12.788 197.912 12.972C197.616 13.148 197.384 13.396 197.216 13.716C197.056 14.036 196.976 14.404 196.976 14.82C196.976 15.244 197.056 15.616 197.216 15.936C197.384 16.256 197.616 16.508 197.912 16.692C198.208 16.868 198.548 16.956 198.932 16.956C199.316 16.956 199.652 16.868 199.94 16.692C200.236 16.508 200.464 16.256 200.624 15.936C200.792 15.616 200.876 15.244 200.876 14.82C200.876 14.404 200.792 14.036 200.624 13.716C200.464 13.396 200.236 13.148 199.94 12.972C199.652 12.788 199.316 12.696 198.932 12.696ZM207.284 12.828C206.828 12.804 206.432 12.884 206.096 13.068C205.768 13.244 205.512 13.492 205.328 13.812C205.152 14.132 205.064 14.5 205.064 14.916L204.68 14.868C204.68 14.156 204.784 13.556 204.992 13.068C205.2 12.58 205.5 12.212 205.892 11.964C206.284 11.708 206.748 11.58 207.284 11.58V12.828ZM203.696 11.628H205.076V18H203.696V11.628ZM208.478 9.096H209.858V18L208.478 18V9.096ZM212.678 11.628H214.262L209.75 16.308V14.664L212.678 11.628ZM211.766 13.896L214.442 18H212.81L210.746 14.724L211.766 13.896ZM220.199 14.4C220.199 13.896 220.067 13.504 219.803 13.224C219.539 12.936 219.171 12.792 218.699 12.792C218.147 12.808 217.711 13.012 217.391 13.404C217.079 13.796 216.923 14.28 216.923 14.856H216.539C216.539 14.072 216.647 13.44 216.863 12.96C217.087 12.48 217.399 12.132 217.799 11.916C218.207 11.692 218.687 11.58 219.239 11.58C219.727 11.58 220.143 11.68 220.487 11.88C220.839 12.08 221.107 12.364 221.291 12.732C221.483 13.092 221.579 13.528 221.579 14.04V18H220.199V14.4ZM224.843 14.4C224.843 13.896 224.707 13.504 224.435 13.224C224.171 12.936 223.803 12.792 223.331 12.792C222.787 12.808 222.359 13.012 222.047 13.404C221.735 13.796 221.579 14.28 221.579 14.856H221.183C221.183 14.072 221.291 13.44 221.507 12.96C221.731 12.48 222.043 12.132 222.443 11.916C222.851 11.692 223.331 11.58 223.883 11.58C224.371 11.58 224.787 11.68 225.131 11.88C225.483 12.08 225.751 12.364 225.935 12.732C226.127 13.092 226.223 13.528 226.223 14.04V18H224.843V14.4ZM215.555 11.628H216.923V18H215.555V11.628ZM230.159 15.156C229.711 15.156 229.379 15.224 229.163 15.36C228.947 15.496 228.839 15.72 228.839 16.032C228.839 16.328 228.947 16.564 229.163 16.74C229.387 16.916 229.691 17.004 230.075 17.004C230.419 17.004 230.727 16.944 230.999 16.824C231.271 16.704 231.487 16.544 231.647 16.344C231.807 16.136 231.891 15.904 231.899 15.648L232.163 16.812C231.963 17.228 231.659 17.54 231.251 17.748C230.843 17.956 230.355 18.06 229.787 18.06C229.331 18.06 228.935 17.972 228.599 17.796C228.263 17.62 228.003 17.384 227.819 17.088C227.635 16.784 227.543 16.448 227.543 16.08C227.543 15.504 227.751 15.044 228.167 14.7C228.591 14.356 229.187 14.18 229.955 14.172H232.067V15.156H230.159ZM231.887 13.956C231.887 13.54 231.759 13.216 231.503 12.984C231.247 12.752 230.867 12.636 230.363 12.636C230.059 12.636 229.747 12.692 229.427 12.804C229.115 12.916 228.799 13.08 228.479 13.296L227.915 12.408C228.211 12.224 228.491 12.072 228.755 11.952C229.019 11.832 229.299 11.74 229.595 11.676C229.899 11.612 230.255 11.58 230.663 11.58C231.487 11.58 232.119 11.78 232.559 12.18C233.007 12.572 233.235 13.116 233.243 13.812L233.255 18H231.899L231.887 13.956ZM238.69 12.828C238.234 12.804 237.838 12.884 237.502 13.068C237.174 13.244 236.918 13.492 236.734 13.812C236.558 14.132 236.47 14.5 236.47 14.916L236.086 14.868C236.086 14.156 236.19 13.556 236.398 13.068C236.606 12.58 236.906 12.212 237.298 11.964C237.69 11.708 238.154 11.58 238.69 11.58V12.828ZM235.102 11.628H236.482V18L235.102 18V11.628ZM239.885 9.096H241.265V18H239.885V9.096ZM244.085 11.628H245.669L241.157 16.308V14.664L244.085 11.628ZM243.173 13.896L245.849 18H244.217L242.153 14.724L243.173 13.896Z" fill="#3F99FF"/>
<path d="M136.789 113.233H151.14C151.351 115.626 152.361 117.593 154.177 119.144C155.987 120.695 158.65 121.467 162.168 121.467C164.913 121.467 167.09 120.905 168.711 119.776C170.327 118.652 171.137 117.296 171.137 115.707C171.137 114.686 170.845 113.843 170.267 113.173C169.689 112.503 168.765 111.968 167.495 111.563C166.231 111.158 165.215 110.904 164.448 110.796C163.681 110.688 162.649 110.547 161.357 110.369C157.878 109.834 156.138 109.564 156.138 109.564C156.138 109.564 154.441 109.094 151.054 108.154C147.666 107.214 145.229 106.209 143.754 105.133C142.279 104.058 140.955 102.475 139.799 100.384C138.637 98.2931 138.059 95.8725 138.059 93.1277C138.059 87.7137 140.08 83.3642 144.127 80.0953C148.174 76.8264 153.75 75.1892 160.855 75.1892C167.852 75.1892 173.406 76.8156 177.502 80.0683C181.598 83.321 183.878 87.7137 184.337 93.2357H170.505C170.364 91.8633 170.111 90.7125 169.738 89.7777C169.37 88.8484 168.463 87.9677 167.02 87.141C165.577 86.3143 163.627 85.9037 161.163 85.9037C158.559 85.9037 156.511 86.3305 155.014 87.1842C153.517 88.0379 152.772 89.178 152.772 90.6098C152.772 91.0961 152.842 91.5445 152.983 91.9444C153.123 92.3442 153.372 92.7008 153.728 93.0142C154.085 93.3276 154.447 93.614 154.82 93.8787C155.192 94.1381 155.706 94.3758 156.365 94.5757C157.019 94.781 157.575 94.9539 158.029 95.0944C158.483 95.2349 159.099 95.4078 159.882 95.6023C160.666 95.7968 161.298 95.9373 161.779 96.0238C162.26 96.1102 162.93 96.2237 163.789 96.375L165.696 96.71C168.862 97.2016 171.526 97.796 173.687 98.4768C175.849 99.1576 177.994 100.125 180.123 101.357C182.251 102.589 183.84 104.242 184.899 106.322C185.958 108.402 186.482 110.915 186.482 113.87C186.482 119.922 184.245 124.488 179.782 127.562C175.314 130.642 169.37 132.176 161.946 132.176C154.171 132.176 148.104 130.512 143.743 127.189C139.394 123.866 137.07 119.214 136.789 113.233Z" fill="#1D1D1D"/>
<path d="M191.032 130.966V57.0402H204.648V92.9225L221.9 75.7188H238.256L217.675 96.8236L240.26 130.961H224.062L207.755 107.057L204.643 110.326V130.955H191.032V130.966Z" fill="#1D1D1D"/>
<path d="M239.737 75.7202H253.985L265.672 113.634L277.569 75.7202H291.499L274.96 127.369C272.069 136.376 269.254 142.563 266.504 145.923C263.759 149.284 259.901 150.964 254.936 150.964C250.835 150.964 247.501 150.457 244.94 149.435L246.831 136.824C248.549 137.176 250.213 137.354 251.823 137.354C255.552 137.354 257.416 135.733 257.416 132.497C257.416 131.124 256.605 127.801 254.984 122.522L239.737 75.7202Z" fill="#1D1D1D"/>
<path d="M64.6996 50.903H40.6675C18.4855 50.903 0.5 68.8885 0.5 91.0704V115.103C0.5 137.284 18.4855 155.27 40.6675 155.27H64.6996C86.8815 155.27 104.867 137.284 104.867 115.103V91.0704C104.867 68.8885 86.8815 50.903 64.6996 50.903ZM44.0058 140.697C39.8497 140.79 35.8275 140.562 31.9998 140.046C28.6816 139.604 25.4304 139.202 22.5546 138.102C19.3838 136.889 16.9705 133.886 16.9705 130.521C16.9705 126.163 20.5167 122.912 24.8606 122.631C25.9197 122.564 27.8839 123.241 28.1453 123.355C28.3464 123.448 28.5475 123.549 28.7352 123.656C31.2088 124.943 33.9707 126.036 36.9738 126.854C38.2073 127.189 39.4877 127.477 40.7949 127.719C57.0911 130.702 72.6433 124.876 75.5191 114.707C76.5246 111.154 75.8543 107.548 73.8566 104.223C73.3673 103.405 72.7975 102.607 72.1539 101.836C67.9106 96.7215 60.4362 92.5854 51.2255 90.9028C49.7306 90.6347 48.2492 90.4336 46.7811 90.3129C59.1558 90.628 70.1563 93.8256 77.6977 98.7795C78.9513 99.604 80.1177 100.482 81.1702 101.407C85.4805 105.161 88.0144 109.653 88.115 114.513C88.4166 128.422 68.6547 140.147 44.0058 140.697ZM80.2384 83.529C79.1792 83.596 77.2151 82.9189 76.9536 82.805C76.7525 82.7111 76.5514 82.6106 76.3637 82.5033C73.8901 81.2163 71.1283 80.1236 68.1251 79.3058C66.8917 78.9706 65.6113 78.6823 64.3041 78.441C48.0078 75.4579 32.4557 81.2833 29.5799 91.4525C28.5743 95.0054 29.2447 98.6119 31.2423 101.937C31.7317 102.755 32.3015 103.552 32.945 104.323C37.1884 109.438 44.6628 113.574 53.8734 115.257C55.3683 115.525 56.8498 115.726 58.3179 115.847C45.9432 115.532 34.9427 112.334 27.4012 107.38C26.1477 106.556 24.9813 105.677 23.9288 104.752C19.6184 100.998 17.0845 96.507 16.984 91.6469C16.6957 77.7237 36.4577 65.9993 61.1065 65.4496C65.2627 65.3557 69.2848 65.5837 73.1125 66.0998C76.4308 66.5423 79.682 66.9445 82.5578 68.0438C85.7285 69.2572 88.1418 72.2604 88.1418 75.6255C88.1284 79.9962 84.5889 83.2407 80.2384 83.529Z" fill="#0A77F3"/>
<path d="M291.5 166V166.5H292V166H291.5ZM0.5 166H0V166.5H0.5V166ZM291.5 150H291V166H291.5H292V150H291.5ZM291.5 166V165.5H0.5V166V166.5H291.5V166ZM0.5 166H1V150H0.5H0V166H0.5Z" fill="#3F99FF"/>
<path d="M52.3208 34.5L52.3208 26" stroke="#3F99FF"/>
<path d="M0.500001 35L0.500001 34.5L1.44248e-06 34.5L1.39876e-06 35L0.500001 35ZM104.5 35L105 35L105 34.5L104.5 34.5L104.5 35ZM0.5 51L1 51L1 35L0.500001 35L1.39876e-06 35L0 51L0.5 51ZM0.500001 35L0.500001 35.5L104.5 35.5L104.5 35L104.5 34.5L0.500001 34.5L0.500001 35ZM104.5 35L104 35L104 51L104.5 51L105 51L105 35L104.5 35Z" fill="#3F99FF"/>
<path d="M213.733 34.5L213.733 26" stroke="#3F99FF"/>
<path d="M136.5 35L136.5 34.5L136 34.5L136 35L136.5 35ZM291.5 35L292 35L292 34.5L291.5 34.5L291.5 35ZM136.5 51L137 51L137 35L136.5 35L136 35L136 51L136.5 51ZM136.5 35L136.5 35.5L291.5 35.5L291.5 35L291.5 34.5L136.5 34.5L136.5 35ZM291.5 35L291 35L291 51L291.5 51L292 51L292 35L291.5 35Z" fill="#3F99FF"/>
</svg>
