<svg width="71" height="26" viewBox="0 0 71 26" fill="none" xmlns="http://www.w3.org/2000/svg">
<path d="M32.9228 15.057H36.3894C36.4403 15.6352 36.6844 16.1103 37.1229 16.4849C37.5602 16.8595 38.2037 17.0461 39.0534 17.0461C39.7164 17.0461 40.2424 16.9104 40.634 16.6376C41.0242 16.3661 41.22 16.0385 41.22 15.6548C41.22 15.4081 41.1495 15.2045 41.0099 15.0426C40.8702 14.8808 40.647 14.7515 40.3403 14.6537C40.0349 14.5558 39.7895 14.4944 39.6042 14.4683C39.4188 14.4422 39.1695 14.4083 38.8576 14.3652C38.017 14.236 37.5967 14.1707 37.5967 14.1707C37.5967 14.1707 37.1869 14.0572 36.3685 13.8301C35.5502 13.603 34.9615 13.3602 34.6052 13.1004C34.2489 12.8407 33.9291 12.4583 33.6498 11.9532C33.3691 11.448 33.2295 10.8633 33.2295 10.2003C33.2295 8.89243 33.7176 7.84173 34.6952 7.05208C35.6728 6.26242 37.0198 5.86694 38.7362 5.86694C40.4264 5.86694 41.7682 6.25981 42.7576 7.04555C43.7469 7.83129 44.2977 8.89243 44.4087 10.2264H41.0673C41.0334 9.89484 40.972 9.61683 40.882 9.39102C40.7932 9.16653 40.5739 8.95378 40.2254 8.75408C39.8769 8.55438 39.4058 8.45518 38.8106 8.45518C38.1815 8.45518 37.6868 8.5583 37.3252 8.76452C36.9637 8.97075 36.7836 9.24615 36.7836 9.59203C36.7836 9.7095 36.8006 9.81783 36.8345 9.91442C36.8684 10.011 36.9285 10.0971 37.0146 10.1728C37.1008 10.2486 37.1882 10.3177 37.2783 10.3817C37.3683 10.4443 37.4923 10.5018 37.6516 10.5501C37.8095 10.5997 37.9439 10.6414 38.0536 10.6754C38.1632 10.7093 38.312 10.7511 38.5012 10.798C38.6905 10.845 38.8432 10.879 38.9594 10.8999C39.0755 10.9207 39.2374 10.9481 39.4449 10.9847L39.9057 11.0656C40.6705 11.1844 41.314 11.328 41.8361 11.4924C42.3582 11.6569 42.8763 11.8905 43.3906 12.1881C43.9048 12.4857 44.2886 12.8851 44.5444 13.3876C44.8002 13.8901 44.9268 14.497 44.9268 15.211C44.9268 16.6728 44.3865 17.7757 43.3084 18.5184C42.2289 19.2624 40.7932 19.633 38.9998 19.633C37.1216 19.633 35.6559 19.231 34.6026 18.4283C33.5519 17.6256 32.9906 16.5018 32.9228 15.057Z" fill="#0A77F3"/>
<path d="M46.026 19.3406V1.48267H49.3151V10.1506L53.4827 5.99479H57.4336L52.462 11.093L57.9178 19.3393H54.0048L50.0656 13.565L49.3138 14.3547V19.338H46.026V19.3406Z" fill="#0A77F3"/>
<path d="M57.7912 5.99512H61.2331L64.0563 15.1538L66.9303 5.99512H70.2952L66.2999 18.4717C65.6016 20.6475 64.9216 22.1419 64.2573 22.9538C63.5942 23.7656 62.6623 24.1715 61.4628 24.1715C60.4721 24.1715 59.6668 24.0488 59.0482 23.8022L59.505 20.7558C59.92 20.8406 60.322 20.8837 60.711 20.8837C61.6116 20.8837 62.0619 20.4921 62.0619 19.7103C62.0619 19.3788 61.8661 18.5761 61.4745 17.3009L57.7912 5.99512Z" fill="#0A77F3"/>
<path d="M15.5084 0H9.70308C4.34469 0 0 4.34469 0 9.70308V15.5084C0 20.8668 4.34469 25.2115 9.70308 25.2115H15.5084C20.8668 25.2115 25.2115 20.8668 25.2115 15.5084V9.70308C25.2115 4.34469 20.8668 0 15.5084 0ZM10.5095 21.691C9.50552 21.7137 8.53392 21.6587 7.60927 21.534C6.8077 21.4271 6.02232 21.3299 5.32763 21.0644C4.56168 20.7713 3.97872 20.0458 3.97872 19.2329C3.97872 18.1803 4.83535 17.3949 5.88468 17.3269C6.14053 17.3107 6.615 17.4743 6.67815 17.5018C6.72674 17.5245 6.77531 17.5488 6.82066 17.5747C7.41819 17.8856 8.08536 18.1495 8.81082 18.3471C9.10878 18.4281 9.41808 18.4977 9.73385 18.556C13.6705 19.2766 17.4273 17.8694 18.122 15.4129C18.3649 14.5546 18.203 13.6834 17.7204 12.8802C17.6022 12.6827 17.4646 12.49 17.3091 12.3037C16.2841 11.0682 14.4785 10.069 12.2535 9.66259C11.8924 9.59782 11.5346 9.54924 11.1799 9.52009C14.1692 9.5962 16.8266 10.3686 18.6483 11.5653C18.9511 11.7645 19.2329 11.9766 19.4871 12.2001C20.5284 13.1069 21.1405 14.1919 21.1648 15.3659C21.2376 18.726 16.4638 21.5583 10.5095 21.691ZM19.262 7.88132C19.0062 7.89751 18.5317 7.73396 18.4686 7.70643C18.42 7.68376 18.3714 7.65947 18.3261 7.63356C17.7285 7.32265 17.0614 7.0587 16.3359 6.86114C16.0379 6.78017 15.7286 6.71054 15.4129 6.65224C11.4763 5.93164 7.71939 7.33884 7.02469 9.79538C6.78179 10.6536 6.94373 11.5248 7.42629 12.328C7.5445 12.5256 7.68215 12.7183 7.8376 12.9045C8.86264 14.1401 10.6682 15.1392 12.8932 15.5457C13.2543 15.6104 13.6122 15.659 13.9668 15.6882C10.9775 15.612 8.32016 14.8396 6.49841 13.6429C6.19559 13.4437 5.91383 13.2316 5.65959 13.0081C4.61836 12.1013 4.00625 11.0164 3.98196 9.84234C3.91232 6.47897 8.68614 3.64675 14.6404 3.51396C15.6444 3.49129 16.616 3.54635 17.5407 3.67104C18.3423 3.77792 19.1276 3.87508 19.8223 4.14065C20.5883 4.43375 21.1712 5.15921 21.1712 5.97212C21.168 7.02793 20.313 7.81169 19.262 7.88132Z" fill="#0A77F3"/>
</svg>
