<svg width="54" height="54" viewBox="0 0 54 54" fill="none" xmlns="http://www.w3.org/2000/svg">
<rect width="54" height="54" fill="#0A77F3"/>
<path d="M31.0084 9.59204H22.9916C15.5919 9.59204 9.59209 15.5918 9.59209 22.9915V31.0084C9.59209 38.408 15.5919 44.4078 22.9916 44.4078H31.0084C38.4081 44.4078 44.4079 38.408 44.4079 31.0084V22.9915C44.4079 15.5918 38.4081 9.59204 31.0084 9.59204ZM24.1052 39.5463C22.7187 39.5776 21.377 39.5015 20.1001 39.3294C18.9932 39.1818 17.9086 39.0476 16.9493 38.6809C15.8915 38.2761 15.0865 37.2743 15.0865 36.1517C15.0865 34.6981 16.2695 33.6136 17.7185 33.5196C18.0719 33.4973 18.7271 33.7231 18.8143 33.7612C18.8814 33.7925 18.9485 33.826 19.0111 33.8618C19.8362 34.2911 20.7576 34.6557 21.7594 34.9285C22.1709 35.0403 22.598 35.1364 23.034 35.2169C28.4703 36.2121 33.6583 34.2688 34.6177 30.8764C34.9531 29.6912 34.7295 28.4881 34.0631 27.379C33.8999 27.1062 33.7098 26.84 33.4951 26.5829C32.0796 24.8766 29.5862 23.4969 26.5136 22.9356C26.0149 22.8461 25.5207 22.7791 25.031 22.7388C29.1591 22.8439 32.8287 23.9106 35.3445 25.5632C35.7626 25.8382 36.1517 26.1312 36.5028 26.4398C37.9407 27.692 38.786 29.1903 38.8196 30.8116C38.9202 35.4517 32.3278 39.3629 24.1052 39.5463ZM36.192 20.4757C35.8387 20.4981 35.1835 20.2723 35.0962 20.2342C35.0292 20.2029 34.9621 20.1694 34.8995 20.1336C34.0743 19.7043 33.153 19.3397 32.1511 19.0669C31.7397 18.9551 31.3125 18.859 30.8765 18.7785C25.4402 17.7833 20.2522 19.7266 19.2928 23.119C18.9574 24.3042 19.181 25.5073 19.8474 26.6164C20.0107 26.8892 20.2007 27.1554 20.4154 27.4125C21.831 29.1188 24.3243 30.4985 27.3969 31.0598C27.8956 31.1493 28.3898 31.2163 28.8795 31.2566C24.7515 31.1515 21.0818 30.0848 18.5661 28.4322C18.1479 28.1572 17.7588 27.8642 17.4077 27.5556C15.9698 26.3034 15.1245 24.8051 15.091 23.1838C14.9948 18.5392 21.5872 14.628 29.8098 14.4446C31.1963 14.4133 32.538 14.4894 33.8149 14.6616C34.9218 14.8092 36.0064 14.9433 36.9657 15.3101C38.0235 15.7148 38.8285 16.7167 38.8285 17.8392C38.824 19.2973 37.6433 20.3796 36.192 20.4757Z" fill="#F5F5F5"/>
</svg>
