<svg width="390" height="390" viewBox="0 0 390 390" fill="none" xmlns="http://www.w3.org/2000/svg">
<path d="M198.5 297.5V306" stroke="#3F99FF"/>
<path d="M187.04 312.6H193.772V313.812H191.108V321H189.692V313.812H187.04V312.6ZM196.989 318.156C196.541 318.156 196.209 318.224 195.993 318.36C195.777 318.496 195.669 318.72 195.669 319.032C195.669 319.328 195.777 319.564 195.993 319.74C196.217 319.916 196.521 320.004 196.905 320.004C197.249 320.004 197.557 319.944 197.829 319.824C198.101 319.704 198.317 319.544 198.477 319.344C198.637 319.136 198.721 318.904 198.729 318.648L198.993 319.812C198.793 320.228 198.489 320.54 198.081 320.748C197.673 320.956 197.185 321.06 196.617 321.06C196.161 321.06 195.765 320.972 195.429 320.796C195.093 320.62 194.833 320.384 194.649 320.088C194.465 319.784 194.373 319.448 194.373 319.08C194.373 318.504 194.581 318.044 194.997 317.7C195.421 317.356 196.017 317.18 196.785 317.172H198.897V318.156H196.989ZM198.717 316.956C198.717 316.54 198.589 316.216 198.333 315.984C198.077 315.752 197.697 315.636 197.193 315.636C196.889 315.636 196.577 315.692 196.257 315.804C195.945 315.916 195.629 316.08 195.309 316.296L194.745 315.408C195.041 315.224 195.321 315.072 195.585 314.952C195.849 314.832 196.129 314.74 196.425 314.676C196.729 314.612 197.085 314.58 197.493 314.58C198.317 314.58 198.949 314.78 199.389 315.18C199.837 315.572 200.065 316.116 200.073 316.812L200.085 321H198.729L198.717 316.956ZM205.604 314.58C206.212 314.58 206.744 314.716 207.2 314.988C207.656 315.26 208.012 315.64 208.268 316.128C208.524 316.616 208.652 317.184 208.652 317.832C208.652 318.464 208.524 319.024 208.268 319.512C208.02 319.992 207.668 320.368 207.212 320.64C206.764 320.912 206.236 321.048 205.628 321.048C205.044 321.048 204.544 320.92 204.128 320.664C203.72 320.408 203.408 320.04 203.192 319.56C202.976 319.072 202.868 318.496 202.868 317.832C202.868 317.144 202.976 316.56 203.192 316.08C203.408 315.592 203.72 315.22 204.128 314.964C204.544 314.708 205.036 314.58 205.604 314.58ZM205.316 315.672C204.94 315.672 204.604 315.764 204.308 315.948C204.012 316.132 203.78 316.384 203.612 316.704C203.452 317.016 203.372 317.38 203.372 317.796C203.372 318.212 203.452 318.584 203.612 318.912C203.78 319.232 204.012 319.484 204.308 319.668C204.604 319.844 204.94 319.932 205.316 319.932C205.7 319.932 206.036 319.84 206.324 319.656C206.62 319.472 206.848 319.22 207.008 318.9C207.176 318.58 207.26 318.212 207.26 317.796C207.26 317.388 207.176 317.024 207.008 316.704C206.848 316.384 206.62 316.132 206.324 315.948C206.036 315.764 205.7 315.672 205.316 315.672ZM201.992 312.096H203.372V321H201.992V312.096Z" fill="#3F99FF"/>
<path d="M17.332 181.676C17.012 181.372 16.636 181.136 16.204 180.968C15.78 180.792 15.348 180.704 14.908 180.704C14.476 180.704 14.076 180.784 13.708 180.944C13.34 181.104 13.016 181.324 12.736 181.604C12.456 181.884 12.236 182.212 12.076 182.588C11.924 182.956 11.848 183.356 11.848 183.788C11.848 184.22 11.924 184.624 12.076 185C12.236 185.376 12.456 185.708 12.736 185.996C13.016 186.276 13.34 186.496 13.708 186.656C14.084 186.816 14.488 186.896 14.92 186.896C15.312 186.896 15.716 186.816 16.132 186.656C16.556 186.496 16.936 186.28 17.272 186.008L18.088 186.992C17.808 187.208 17.484 187.4 17.116 187.568C16.756 187.736 16.38 187.868 15.988 187.964C15.596 188.052 15.208 188.096 14.824 188.096C14.2 188.096 13.62 187.988 13.084 187.772C12.556 187.548 12.088 187.24 11.68 186.848C11.28 186.456 10.968 186 10.744 185.48C10.52 184.952 10.408 184.388 10.408 183.788C10.408 183.188 10.52 182.632 10.744 182.12C10.976 181.6 11.296 181.144 11.704 180.752C12.112 180.36 12.588 180.056 13.132 179.84C13.684 179.624 14.276 179.516 14.908 179.516C15.308 179.516 15.7 179.564 16.084 179.66C16.476 179.756 16.848 179.892 17.2 180.068C17.552 180.244 17.864 180.456 18.136 180.704L17.332 181.676ZM16.852 183.896H18.088V186.992H16.852V183.896ZM20.0683 179.096H21.4483L21.4483 188H20.0683L20.0683 179.096ZM26.0553 188.9C25.8553 189.388 25.5793 189.756 25.2273 190.004C24.8753 190.26 24.4593 190.388 23.9793 190.388C23.6913 190.388 23.4273 190.344 23.1873 190.256C22.9553 190.168 22.7273 190.036 22.5033 189.86L23.0913 188.84C23.3793 189.048 23.6553 189.152 23.9193 189.152C24.1273 189.152 24.3153 189.092 24.4833 188.972C24.6513 188.852 24.7873 188.668 24.8913 188.42L25.1073 187.916L22.4673 181.628H23.8953L25.8033 186.548L27.5793 181.628H28.9593L26.0553 188.9ZM33.5943 181.58C34.2023 181.58 34.7343 181.716 35.1903 181.988C35.6463 182.26 36.0023 182.64 36.2583 183.128C36.5143 183.616 36.6423 184.184 36.6423 184.832C36.6423 185.464 36.5143 186.024 36.2583 186.512C36.0103 186.992 35.6583 187.368 35.2023 187.64C34.7543 187.912 34.2263 188.048 33.6183 188.048C33.0343 188.048 32.5343 187.92 32.1183 187.664C31.7103 187.408 31.3983 187.04 31.1823 186.56C30.9663 186.072 30.8583 185.496 30.8583 184.832C30.8583 184.144 30.9663 183.56 31.1823 183.08C31.3983 182.592 31.7103 182.22 32.1183 181.964C32.5343 181.708 33.0263 181.58 33.5943 181.58ZM33.3063 182.672C32.9303 182.672 32.5943 182.764 32.2983 182.948C32.0023 183.132 31.7703 183.384 31.6023 183.704C31.4423 184.016 31.3623 184.38 31.3623 184.796C31.3623 185.212 31.4423 185.584 31.6023 185.912C31.7703 186.232 32.0023 186.484 32.2983 186.668C32.5943 186.844 32.9303 186.932 33.3063 186.932C33.6903 186.932 34.0263 186.84 34.3143 186.656C34.6103 186.472 34.8383 186.22 34.9983 185.9C35.1663 185.58 35.2503 185.212 35.2503 184.796C35.2503 184.388 35.1663 184.024 34.9983 183.704C34.8383 183.384 34.6103 183.132 34.3143 182.948C34.0263 182.764 33.6903 182.672 33.3063 182.672ZM29.9823 181.628H31.3623V190.328H29.9823V181.628ZM42.8786 184.4C42.8786 183.904 42.7426 183.516 42.4706 183.236C42.1986 182.948 41.8226 182.804 41.3426 182.804C40.7746 182.812 40.3266 183.012 39.9986 183.404C39.6786 183.796 39.5186 184.284 39.5186 184.868H39.1346C39.1346 184.076 39.2466 183.44 39.4706 182.96C39.6946 182.48 40.0106 182.132 40.4186 181.916C40.8346 181.692 41.3226 181.58 41.8826 181.58C42.3786 181.58 42.8026 181.68 43.1546 181.88C43.5146 182.08 43.7866 182.364 43.9706 182.732C44.1626 183.092 44.2586 183.528 44.2586 184.04V188H42.8786V184.4ZM38.1386 179.096H39.5186V188H38.1386V179.096Z" fill="#3F99FF"/>
<path d="M274 298V298.5H274.5V298H274ZM121 298H120.5V298.5H121V298ZM274 282H273.5V298H274H274.5V282H274ZM274 298V297.5H121V298V298.5H274V298ZM121 298H121.5V282H121H120.5V298H121Z" fill="#3F99FF"/>
<rect x="119" y="119" width="152" height="152" fill="#0A77F3"/>
<path d="M209.283 144H186.717C165.888 144 149 160.888 149 181.717V204.283C149 225.112 165.888 242 186.717 242H209.283C230.112 242 247 225.112 247 204.283V181.717C247 160.888 230.112 144 209.283 144ZM189.852 228.316C185.949 228.404 182.172 228.19 178.578 227.705C175.462 227.29 172.409 226.912 169.709 225.88C166.732 224.74 164.466 221.92 164.466 218.76C164.466 214.669 167.796 211.616 171.874 211.352C172.869 211.289 174.713 211.925 174.959 212.032C175.148 212.12 175.336 212.214 175.513 212.315C177.835 213.523 180.429 214.549 183.249 215.317C184.407 215.632 185.609 215.903 186.837 216.129C202.139 218.93 216.742 213.46 219.442 203.912C220.387 200.576 219.757 197.189 217.881 194.067C217.422 193.299 216.887 192.55 216.283 191.826C212.298 187.023 205.28 183.14 196.631 181.56C195.227 181.308 193.836 181.119 192.458 181.006C204.077 181.302 214.407 184.304 221.488 188.956C222.665 189.73 223.76 190.555 224.749 191.423C228.796 194.948 231.175 199.166 231.27 203.729C231.553 216.79 212.997 227.799 189.852 228.316ZM223.874 174.636C222.879 174.699 221.035 174.063 220.789 173.956C220.601 173.868 220.412 173.773 220.236 173.673C217.913 172.464 215.319 171.438 212.5 170.67C211.341 170.355 210.139 170.085 208.912 169.858C193.61 167.057 179.006 172.527 176.306 182.076C175.362 185.412 175.991 188.798 177.867 191.92C178.326 192.688 178.861 193.437 179.466 194.161C183.45 198.964 190.469 202.848 199.117 204.428C200.521 204.68 201.912 204.868 203.291 204.982C191.671 204.686 181.341 201.683 174.26 197.032C173.083 196.257 171.988 195.433 170.999 194.564C166.952 191.039 164.573 186.822 164.478 182.258C164.208 169.185 182.764 158.175 205.909 157.659C209.812 157.571 213.588 157.785 217.183 158.27C220.298 158.685 223.351 159.063 226.052 160.095C229.029 161.235 231.295 164.054 231.295 167.214C231.282 171.318 227.959 174.365 223.874 174.636Z" fill="#F5F5F5"/>
<path d="M51.3333 184C51.3333 185.473 52.5272 186.667 54 186.667C55.4728 186.667 56.6667 185.473 56.6667 184C56.6667 182.527 55.4728 181.333 54 181.333C52.5272 181.333 51.3333 182.527 51.3333 184ZM154.333 184C154.333 185.473 155.527 186.667 157 186.667C158.473 186.667 159.667 185.473 159.667 184C159.667 182.527 158.473 181.333 157 181.333C155.527 181.333 154.333 182.527 154.333 184ZM54 184L54 184.5L157 184.5L157 184L157 183.5L54 183.5L54 184Z" fill="#3F99FF"/>
</svg>
