<svg width="244" height="88" viewBox="0 0 244 88" fill="none" xmlns="http://www.w3.org/2000/svg">
<path d="M147.325 24.3204C143.496 21.6109 139.139 20.2561 134.247 20.2561C127.611 20.2561 121.992 22.5185 117.392 27.0432C112.792 31.5679 110.49 37.0755 110.49 43.5571C110.49 49.9855 112.81 55.4887 117.45 60.071C122.09 64.6532 127.681 66.9466 134.225 66.9466C139.069 66.9156 143.434 65.5785 147.325 62.9266V65.9549H158.394V5.38477H147.325V24.3204ZM143.416 52.6862C140.813 55.2806 137.749 56.5778 134.221 56.5778C130.692 56.5778 127.633 55.2806 125.025 52.6862C122.417 50.0918 121.12 47.0502 121.12 43.5615C121.12 40.0728 122.422 37.0312 125.025 34.4368C127.628 31.8424 130.696 30.5452 134.221 30.5452C137.745 30.5452 140.808 31.8424 143.416 34.4368C146.024 37.0312 147.321 40.0728 147.321 43.5615C147.325 47.0502 146.019 50.0918 143.416 52.6862Z" fill="#4D0314"/>
<path d="M175.213 20.6899H164.057V65.9592H175.213V20.6899Z" fill="#4D0314"/>
<path d="M169.635 5.38477C166.554 5.38477 164.057 7.88177 164.057 10.9632C164.057 14.0446 166.554 16.5416 169.635 16.5416C172.716 16.5416 175.213 14.0446 175.213 10.9632C175.209 7.88177 172.712 5.38477 169.635 5.38477Z" fill="#4D0314"/>
<path d="M238.421 5.38477C235.34 5.38477 232.843 7.88177 232.843 10.9632C232.843 14.0446 235.34 16.5416 238.421 16.5416C241.503 16.5416 244 14.0446 244 10.9632C243.995 7.88177 241.498 5.38477 238.421 5.38477Z" fill="#4D0314"/>
<path d="M244 20.6899H232.843V65.9592H244V20.6899Z" fill="#4D0314"/>
<path d="M207.908 73.2335C205.305 75.8279 202.241 77.1251 198.713 77.1251C195.189 77.1251 192.125 75.8279 189.517 73.2335C188.083 71.8035 187.047 70.2406 186.401 68.5361H175.372C176.213 73.1007 178.396 77.134 181.933 80.6227C186.573 85.205 192.165 87.4983 198.713 87.4983C205.261 87.4983 210.853 85.205 215.492 80.6227C219.03 77.1296 221.212 73.1007 222.054 68.5361H211.025C210.379 70.2406 209.343 71.8035 207.908 73.2335Z" fill="#4D0314"/>
<path d="M216.608 23.7008C212.92 21.4074 208.728 20.2563 204.026 20.2563C197.42 20.2563 191.815 22.5187 187.206 27.0434C182.598 31.5681 180.291 37.0757 180.291 43.5573C180.291 49.9858 182.611 55.4889 187.251 60.0712C191.891 64.6535 197.482 66.9468 204.03 66.9468C210.578 66.9468 216.17 64.6535 220.81 60.0712C225.436 55.4978 227.756 50.0079 227.765 43.5971V20.3537H216.608V23.7008ZM213.221 52.6864C210.618 55.2808 207.554 56.578 204.026 56.578C200.502 56.578 197.438 55.2808 194.83 52.6864C192.227 50.092 190.925 47.0505 190.925 43.5617C190.925 40.073 192.227 37.0314 194.83 34.437C197.434 31.8426 200.502 30.5454 204.026 30.5454C207.55 30.5454 210.614 31.8426 213.221 34.437C215.825 37.0314 217.126 40.073 217.126 43.5617C217.126 47.0505 215.825 50.092 213.221 52.6864Z" fill="#4D0314"/>
<path d="M25.4259 26.4254C15.9948 35.8565 15.9948 51.1431 25.4259 60.5742C34.857 70.0053 50.1435 70.0053 59.5747 60.5742C69.0058 51.1431 69.0058 35.8565 59.5747 26.4254C50.1435 16.9943 34.857 16.9943 25.4259 26.4254Z" fill="#4D0314"/>
<path d="M77.9281 14.1188C77.9281 8.39224 73.2877 3.75233 67.5605 3.75233C65.3869 3.75233 63.3744 4.42503 61.7068 5.56345C45.75 -2.49746 25.7393 0.118598 12.4334 13.4289C-4.14446 30.0049 -4.14446 56.9819 12.4334 73.5637C20.7252 81.8546 31.6103 86 42.5012 86C53.392 86 64.2829 81.8546 72.5689 73.5637C87.5367 58.5975 88.9858 35.1508 76.9276 18.5402C77.5601 17.1948 77.9281 15.6999 77.9281 14.1188ZM67.3133 68.3028C53.6335 81.981 31.3745 81.981 17.6948 68.3028C4.01508 54.6246 4.01508 32.368 17.6948 18.6897C24.5375 11.8477 33.5193 8.43248 42.5069 8.43248C47.6303 8.43248 52.748 9.5479 57.4747 11.7672C57.2964 12.5262 57.1987 13.3081 57.1987 14.1188C57.1987 19.8454 61.8391 24.4853 67.5663 24.4853C68.9521 24.4853 70.2746 24.2093 71.4822 23.7149C80.8032 37.3643 79.4232 56.1942 67.3133 68.3028Z" fill="#4D0314"/>
</svg>
