<svg width="291" height="109" viewBox="0 0 291 109" fill="none" xmlns="http://www.w3.org/2000/svg">
<path d="M136.289 63.5576H150.64C150.851 65.9512 151.861 67.918 153.677 69.4687C155.487 71.0194 158.15 71.792 161.668 71.792C164.413 71.792 166.59 71.2301 168.211 70.1008C169.827 68.977 170.637 67.6208 170.637 66.0323C170.637 65.0111 170.345 64.1682 169.767 63.4982C169.189 62.8282 168.265 62.2933 166.995 61.8881C165.731 61.4828 164.715 61.2289 163.948 61.1208C163.181 61.0127 162.149 60.8723 160.857 60.694C157.378 60.159 155.638 59.8889 155.638 59.8889C155.638 59.8889 153.941 59.4188 150.554 58.4787C147.166 57.5385 144.729 56.5335 143.254 55.4583C141.779 54.3831 140.455 52.8 139.299 50.7089C138.137 48.6179 137.559 46.1973 137.559 43.4525C137.559 38.0385 139.58 33.689 143.627 30.4201C147.674 27.1512 153.25 25.514 160.355 25.514C167.352 25.514 172.906 27.1404 177.002 30.3931C181.098 33.6458 183.378 38.0385 183.837 43.5606H170.005C169.864 42.1882 169.611 41.0373 169.238 40.1025C168.87 39.1732 167.963 38.2925 166.52 37.4658C165.077 36.6391 163.127 36.2285 160.663 36.2285C158.059 36.2285 156.011 36.6553 154.514 37.509C153.017 38.3627 152.272 39.5028 152.272 40.9346C152.272 41.4209 152.342 41.8694 152.483 42.2692C152.623 42.669 152.872 43.0257 153.228 43.339C153.585 43.6524 153.947 43.9388 154.32 44.2035C154.692 44.4629 155.206 44.7006 155.865 44.9005C156.519 45.1059 157.075 45.2788 157.529 45.4192C157.983 45.5597 158.599 45.7326 159.382 45.9271C160.166 46.1217 160.798 46.2621 161.279 46.3486C161.76 46.435 162.43 46.5485 163.289 46.6998L165.196 47.0348C168.362 47.5265 171.026 48.1208 173.187 48.8016C175.349 49.4824 177.494 50.4496 179.623 51.6815C181.751 52.9134 183.34 54.5668 184.399 56.647C185.458 58.7272 185.982 61.2397 185.982 64.1952C185.982 70.2467 183.745 74.8124 179.282 77.8868C174.814 80.9666 168.87 82.5011 161.446 82.5011C153.671 82.5011 147.604 80.8369 143.243 77.514C138.894 74.191 136.57 69.5389 136.289 63.5576Z" fill="#1D1D1D"/>
<path d="M190.532 81.2909V7.36499H204.148V43.2473L221.4 26.0437H237.756L217.175 47.1484L239.76 81.2855H223.562L207.255 57.3819L204.143 60.6509V81.2801H190.532V81.2909Z" fill="#1D1D1D"/>
<path d="M239.237 26.045H253.485L265.172 63.9589L277.069 26.045H290.999L274.46 77.6937C271.569 86.7008 268.754 92.8874 266.004 96.2482C263.259 99.6089 259.401 101.289 254.436 101.289C250.335 101.289 247.001 100.781 244.44 99.7602L246.331 87.1493C248.049 87.5005 249.713 87.6788 251.323 87.6788C255.052 87.6788 256.916 86.0578 256.916 82.8213C256.916 81.4489 256.105 78.126 254.484 72.8471L239.237 26.045Z" fill="#1D1D1D"/>
<path d="M64.1996 1.22778H40.1675C17.9855 1.22778 0 19.2133 0 41.3953V65.4274C0 87.6093 17.9855 105.595 40.1675 105.595H64.1996C86.3815 105.595 104.367 87.6093 104.367 65.4274V41.3953C104.367 19.2133 86.3815 1.22778 64.1996 1.22778ZM43.5058 91.0214C39.3497 91.1152 35.3275 90.8873 31.4998 90.3711C28.1816 89.9287 24.9304 89.5265 22.0546 88.4271C18.8838 87.2138 16.4705 84.2106 16.4705 80.8455C16.4705 76.4882 20.0167 73.237 24.3606 72.9554C25.4197 72.8884 27.3839 73.5654 27.6453 73.6794C27.8464 73.7732 28.0475 73.8738 28.2352 73.981C30.7088 75.2681 33.4707 76.3608 36.4738 77.1786C37.7073 77.5138 38.9877 77.8021 40.2949 78.0434C56.5911 81.0264 72.1433 75.2011 75.0191 65.0319C76.0246 61.479 75.3543 57.8725 73.3566 54.5476C72.8673 53.7297 72.2975 52.932 71.6539 52.1611C67.4106 47.0463 59.9362 42.9102 50.7255 41.2277C49.2306 40.9595 47.7492 40.7584 46.2811 40.6378C58.6558 40.9528 69.6563 44.1504 77.1977 49.1043C78.4513 49.9288 79.6177 50.807 80.6702 51.7321C84.9805 55.486 87.5144 59.9774 87.615 64.8375C87.9166 78.7473 68.1547 90.4717 43.5058 91.0214ZM79.7384 33.8538C78.6792 33.9208 76.7151 33.2438 76.4536 33.1298C76.2525 33.036 76.0514 32.9354 75.8637 32.8282C73.3901 31.5411 70.6283 30.4484 67.6251 29.6306C66.3917 29.2954 65.1113 29.0072 63.8041 28.7658C47.5078 25.7828 31.9557 31.6081 29.0799 41.7774C28.0743 45.3302 28.7447 48.9367 30.7423 52.2617C31.2317 53.0795 31.8015 53.8772 32.445 54.6481C36.6884 59.7629 44.1628 63.899 53.3734 65.5815C54.8683 65.8497 56.3498 66.0508 57.8179 66.1715C45.4432 65.8564 34.4427 62.6588 26.9012 57.7049C25.6477 56.8804 24.4813 56.0022 23.4288 55.0771C19.1184 51.3232 16.5845 46.8318 16.484 41.9718C16.1957 28.0486 35.9577 16.3241 60.6065 15.7744C64.7627 15.6806 68.7848 15.9085 72.6125 16.4247C75.9308 16.8671 79.182 17.2693 82.0578 18.3687C85.2285 19.582 87.6418 22.5852 87.6418 25.9504C87.6284 30.321 84.0889 33.5655 79.7384 33.8538Z" fill="#0A77F3"/>
</svg>
