<svg width="237" height="85" viewBox="0 0 237 85" fill="none" xmlns="http://www.w3.org/2000/svg">
<path d="M111 50.7647H122.688C122.859 52.7142 123.682 54.3159 125.161 55.5789C126.635 56.8418 128.804 57.4711 131.669 57.4711C133.905 57.4711 135.678 57.0134 136.998 56.0937C138.314 55.1784 138.974 54.0739 138.974 52.7802C138.974 51.9485 138.736 51.262 138.266 50.7163C137.795 50.1707 137.042 49.735 136.008 49.405C134.978 49.0749 134.151 48.8681 133.526 48.7801C132.901 48.6921 132.061 48.5777 131.009 48.4325C128.175 47.9968 126.758 47.7768 126.758 47.7768C126.758 47.7768 125.376 47.3939 122.617 46.6283C119.858 45.8626 117.874 45.0441 116.672 44.1684C115.471 43.2927 114.393 42.0033 113.451 40.3003C112.505 38.5973 112.034 36.6259 112.034 34.3904C112.034 29.9811 113.68 26.4387 116.976 23.7764C120.272 21.1141 124.813 19.7808 130.6 19.7808C136.299 19.7808 140.822 21.1053 144.158 23.7544C147.493 26.4035 149.35 29.9811 149.724 34.4785H138.459C138.345 33.3607 138.138 32.4234 137.834 31.6621C137.535 30.9052 136.796 30.188 135.621 29.5147C134.446 28.8414 132.857 28.507 130.851 28.507C128.73 28.507 127.062 28.8546 125.843 29.5499C124.624 30.2452 124.017 31.1737 124.017 32.3398C124.017 32.7359 124.074 33.1011 124.188 33.4267C124.303 33.7524 124.505 34.0428 124.796 34.298C125.086 34.5533 125.381 34.7865 125.684 35.0021C125.988 35.2133 126.406 35.407 126.943 35.5698C127.475 35.737 127.929 35.8778 128.298 35.9922C128.668 36.1066 129.17 36.2475 129.808 36.4059C130.446 36.5643 130.961 36.6787 131.352 36.7491C131.744 36.8195 132.29 36.9119 132.989 37.0351L134.543 37.308C137.121 37.7084 139.291 38.1925 141.051 38.7469C142.811 39.3014 144.558 40.0891 146.292 41.0924C148.026 42.0957 149.32 43.4423 150.182 45.1365C151.045 46.8307 151.471 48.8769 151.471 51.284C151.471 56.2126 149.65 59.931 146.015 62.4349C142.376 64.9432 137.535 66.1929 131.489 66.1929C125.156 66.1929 120.215 64.8375 116.663 62.1312C113.121 59.4249 111.229 55.6361 111 50.7647Z" fill="#003470"/>
<path d="M155.177 65.2077V5H166.266V34.2238L180.317 20.2125H193.637L176.876 37.4009L195.27 65.2033H182.077L168.796 45.7355L166.262 48.3978V65.1989H155.177V65.2077Z" fill="#003470"/>
<path d="M194.843 20.2124H206.447L215.965 51.0907L225.655 20.2124H237L223.53 62.2768C221.175 69.6125 218.883 74.651 216.643 77.3882C214.407 80.1253 211.265 81.4938 207.221 81.4938C203.881 81.4938 201.166 81.0802 199.08 80.2485L200.621 69.9777C202.02 70.2637 203.375 70.409 204.687 70.409C207.723 70.409 209.241 69.0888 209.241 66.4529C209.241 65.3352 208.581 62.6289 207.261 58.3296L194.843 20.2124Z" fill="#003470"/>
<path d="M52.2863 0H32.7137C14.648 0 0 14.648 0 32.7137V52.2863C0 70.352 14.648 85 32.7137 85H52.2863C70.352 85 85 70.352 85 52.2863V32.7137C85 14.648 70.352 0 52.2863 0ZM35.4326 73.1309C32.0477 73.2073 28.7719 73.0217 25.6545 72.6013C22.952 72.241 20.3041 71.9134 17.962 71.018C15.3796 70.0299 13.4142 67.584 13.4142 64.8433C13.4142 61.2946 16.3023 58.6467 19.8401 58.4174C20.7027 58.3628 22.3023 58.9142 22.5153 59.007C22.679 59.0834 22.8428 59.1653 22.9957 59.2527C25.0103 60.3009 27.2596 61.1908 29.7055 61.8569C30.7101 62.1299 31.7528 62.3646 32.8175 62.5612C46.0897 64.9907 58.7559 60.2463 61.098 51.9642C61.9169 49.0706 61.371 46.1333 59.744 43.4254C59.3455 42.7593 58.8814 42.1096 58.3573 41.4818C54.9014 37.3161 48.814 33.9476 41.3125 32.5772C40.0951 32.3589 38.8885 32.1951 37.6928 32.0968C47.7712 32.3534 56.7304 34.9576 62.8724 38.9922C63.8933 39.6638 64.8433 40.379 65.7004 41.1324C69.2109 44.1897 71.2746 47.8476 71.3565 51.8058C71.6022 63.1344 55.5074 72.6832 35.4326 73.1309ZM64.9415 26.5717C64.0789 26.6263 62.4793 26.0749 62.2664 25.9821C62.1026 25.9056 61.9388 25.8238 61.7859 25.7364C59.7713 24.6882 57.522 23.7983 55.0761 23.1322C54.0715 22.8592 53.0288 22.6244 51.9642 22.4279C38.6919 19.9984 26.0258 24.7428 23.6836 33.0249C22.8647 35.9185 23.4106 38.8557 25.0376 41.5637C25.4361 42.2297 25.9002 42.8794 26.4243 43.5073C29.8802 47.6729 35.9676 51.0415 43.4691 52.4118C44.6866 52.6302 45.8931 52.794 47.0888 52.8923C37.0104 52.6357 28.0513 50.0315 21.9092 45.9968C20.8883 45.3253 19.9383 44.6101 19.0812 43.8567C15.5707 40.7993 13.507 37.1414 13.4251 33.1832C13.1903 21.8437 29.2851 12.2949 49.3599 11.8473C52.7449 11.7708 56.0206 11.9565 59.138 12.3768C61.8405 12.7372 64.4884 13.0647 66.8306 13.9601C69.4129 14.9483 71.3784 17.3942 71.3784 20.1349C71.3675 23.6945 68.4848 26.3369 64.9415 26.5717Z" fill="#003470"/>
</svg>
