<svg width="498" height="515" viewBox="0 0 498 515" fill="none" xmlns="http://www.w3.org/2000/svg">
<path d="M11.079 308.973C11.079 303.937 10.8472 298.959 11.1369 293.923C12.238 274.011 14.4402 254.446 26.4362 237.427C33.7962 227.066 43.3003 219.657 56.8031 213.579C55.3543 217.341 54.9487 219.309 53.9055 220.988C39.1278 244.952 33.7382 270.943 36.8097 298.786C37.0994 301.333 37.4472 303.937 37.3313 306.484C36.3461 324.95 46.3718 336.874 61.2075 345.383C75.1739 353.371 89.6619 360.433 103.86 368.074C106.236 369.348 108.264 371.142 112.379 374.094C106.526 375.773 102.817 376.873 99.0501 377.857C85.4314 381.446 72.9717 387.35 61.4393 395.512C54.3112 400.548 49.7909 406.51 51.3557 417.103C62.8881 414.324 67.814 401.358 80.2737 399.274C79.0567 401.532 78.1295 403.616 76.9124 405.41C68.5094 417.392 63.8153 430.764 61.787 445.062C59.9904 457.565 62.8301 469.431 69.8423 479.561C73.3195 484.539 79.7521 487.434 85.895 492.064C85.895 494.438 85.895 498.142 85.895 504.568C88.7926 500.573 90.2414 498.779 91.4584 496.753C98.3547 485.523 104.961 474.12 112.205 463.122C117.595 454.96 126.114 450.503 135.328 445.235C139.037 457.738 135.618 468.679 132.72 479.851C129.823 491.08 121.42 500.342 120.434 512.787C134.517 506.478 145.817 470.126 143.267 440.72C147.556 437.421 150.685 437.536 152.714 443.499C154.105 447.666 155.785 451.776 157.813 455.655C169.23 477.535 186.442 492.643 210.608 498.953C236.86 505.841 263.054 505.494 288.495 495.769C311.212 487.086 329.989 473.715 337.291 448.072C341.232 449.056 344.593 449.982 349.229 451.139C347.722 472.441 346.215 493.454 344.651 514.408C353.401 495.653 350.214 474.988 353.575 454.381C361.225 459.417 364.644 465.9 367.658 472.441C371.309 480.429 374.322 488.649 377.452 496.869C379.943 503.468 384.058 506.536 390.549 505.146C398.662 503.352 405.558 499.589 408.572 490.849C411.759 481.703 411.643 472.615 408.05 463.99C404.109 454.671 398.952 445.814 393.968 436.147C445.313 435.684 464.38 404.831 466.35 358.06C466.814 357.713 467.335 357.018 467.973 356.96C486.575 354.934 487.966 347.293 487.85 333.864C487.618 312.099 476.318 296.644 457.309 286.572C454.122 284.893 450.703 283.62 445.661 281.42C449.022 280.204 451.224 278.642 453.079 278.931C460.96 280.147 469.19 280.957 476.549 283.736C488.719 288.308 492.081 295.776 489.82 308.684C497.18 304.979 499.383 297.57 495.442 289.235C492.312 282.578 486.807 278.294 480.316 275.458C469.711 270.827 458.584 268.801 446.994 270.827C444.212 271.29 441.373 271.811 437.49 272.506C438.243 269.148 438.417 266.717 439.228 264.518C444.618 250.104 450.239 235.807 455.513 221.393C465.017 195.518 464.495 169.702 454.702 144.058C453.832 141.685 452.673 139.428 451.051 135.723C457.889 137.981 457.947 145.043 463.742 147.995C456.208 127.735 444.676 111.527 429.145 98.445C390.491 65.9135 346.215 47.9112 295.16 48.0269C291.509 48.0269 287.8 48.0848 284.149 48.0269C283.453 48.0269 282.758 47.5638 282.063 47.3323C258.592 14.1062 214.838 -7.94806 193.164 2.70281C198.438 4.03417 203.596 5.36553 208.695 6.69689C198.728 8.83865 188.412 6.17593 178.85 12.4275C181.748 12.717 184.645 13.1222 187.543 13.18C210.608 13.9325 232.629 18.8528 253.029 29.851C258.998 33.0925 264.445 37.3182 270.124 41.0807C269.777 41.8911 269.429 42.6436 269.023 43.454C264.619 42.47 260.273 41.1386 255.868 40.444C227.704 36.1605 199.655 35.5816 171.896 43.5119C153.003 48.8952 136.081 58.3884 119.739 68.9814C110.177 75.1751 106.004 84.6683 103.397 95.377C97.7752 118.531 91.8062 141.569 85.953 164.608C84.9678 168.486 82.8236 172.306 82.7656 176.243C82.5338 188.688 73.841 192.971 64.3948 197.139C56.6872 200.554 49.0955 204.201 41.6777 208.195C20.9888 219.309 8.76093 236.733 3.71909 259.482C1.05328 271.637 -1.49658 283.851 1.05331 296.47C2.21234 301.506 3.77701 306.195 11.079 308.973ZM196.409 134.681C202.9 127.388 208.232 121.483 213.447 115.521C219.011 109.154 224.284 102.555 230.08 96.419C235.237 90.9778 238.019 82.9896 247.233 79.2849C245.089 86.6943 243.119 92.5407 241.67 98.5028C240.221 104.523 239.004 110.659 238.309 116.852C237.266 126.114 237.729 127.445 242.25 134.739C245.495 110.775 247.697 87.4468 263.228 66.2029C268.038 78.7061 265.43 89.9358 267.517 100.471C269.545 110.89 270.588 121.541 273.486 131.729C276.383 141.975 281.019 151.757 285.25 162.698C277.195 162.119 271.226 157.256 262.649 160.324C267.632 162.408 270.878 163.971 274.239 165.129C286.119 169.065 295.276 176.011 302.751 186.315C309.822 196.039 318.225 204.896 326.917 213.231C341.29 226.95 356.821 239.28 376.119 245.647C381.624 247.441 387.187 248.946 393.504 250.799C388.578 276.5 379.48 298.38 353.691 309.031C327.961 319.682 301.65 328.77 274.529 335.138C267.864 336.7 260.446 335.195 254.014 337.106C244.626 339.942 235.527 339.421 227.124 336.122C202.494 326.339 176.706 318.64 159.494 295.776C149.874 282.925 137.762 271.985 127.91 259.308C114.349 241.942 103.165 223.072 97.6013 200.439C105.599 197.834 113.48 195.055 121.478 192.74C135.386 188.746 148.541 183.073 159.436 173.406C168.187 165.65 176.996 157.719 184.298 148.631C189.919 141.627 195.888 139.312 204.175 140.354C207.189 140.701 210.26 140.412 213.273 140.412C213.331 139.543 213.389 138.675 213.447 137.807C208.695 136.996 203.943 136.07 196.409 134.681ZM184.529 433.716C186.674 451.371 198.38 455.423 212.057 456.928C215.707 457.333 219.358 457.796 223.009 457.912C248.74 458.78 273.66 456.639 293.479 436.958C305.997 440.026 318.92 440.257 331.727 446.624C330.221 450.329 329.235 453.744 327.497 456.754C320.601 468.447 310.575 476.898 298.753 483.208C273.428 496.811 246.596 499.011 218.779 493.569C191.484 488.244 172.881 472.094 161.059 447.435C159.552 444.309 158.741 440.894 157.118 436.089C166.854 435.221 175.083 434.526 184.529 433.716ZM188.122 433.6C201.857 433.079 214.722 432.616 227.646 432.153C236.454 402.805 239.294 373.863 240.047 344.283C245.263 344.283 249.378 344.283 253.956 344.283C253.956 357.192 254.072 369.232 253.898 381.214C253.724 392.212 253.202 403.153 252.855 414.093C252.623 420.229 254.477 424.165 261.2 426.133C268.792 428.333 275.862 432.153 284.612 435.916C281.193 438.289 278.817 440.431 276.036 441.762C251.754 453.108 226.487 453.165 200.93 447.261C194.555 445.756 190.498 441.415 188.122 433.6ZM449.486 155.636C457.541 177.921 455.107 210.337 444.966 222.204C450.123 199.976 451.63 177.921 449.486 155.636ZM460.381 336.237C461.134 335.832 461.888 335.427 462.641 335.022C465.886 339.595 469.132 344.11 472.956 349.435C470.117 350.361 467.915 351.114 464.785 352.156C463.221 346.367 461.772 341.273 460.381 336.237ZM168.65 54.2206C168.245 53.7576 167.781 53.2945 167.376 52.8314C170.099 51.9631 172.823 51.037 175.605 50.2845C178.386 49.5319 181.168 48.9531 183.95 48.3164C184.008 48.7794 184.124 49.2425 184.182 49.7056C179.024 51.2106 173.866 52.7156 168.65 54.2206Z" fill="#2B0020"/>
<path d="M274.934 275.631C272.964 274.705 270.762 272.795 268.675 272.911C241.264 274.242 213.911 275.863 186.557 277.542C183.718 277.715 180.994 278.989 177.98 279.857C176.184 285.703 177.343 291.145 180.53 295.544C188.76 306.889 199.655 314.646 213.969 316.267C226.602 317.656 238.714 315.051 250.42 310.305C261.721 305.79 268.733 297.338 272.21 285.819C273.138 282.809 273.891 279.683 274.934 275.631ZM267.458 279.568C265.72 293.518 258.766 301.969 247.987 302.664C226.66 304.053 207.478 297.28 188.586 286.977C197.221 282.462 245.495 278.005 267.458 279.568Z" fill="#2B0020"/>
<path d="M218.141 162.292C218.141 166.576 217.852 170.917 218.199 175.143C220.054 201.017 215.707 226.082 208.869 250.856C206.609 258.96 206.899 259.018 209.391 267.412C218.953 265.328 226.139 259.655 232.05 253.866C230.891 242.463 230.08 232.102 228.689 221.798C227.935 216.067 225.965 210.51 224.98 204.838C224.226 200.554 224.053 196.213 223.879 191.871C223.357 181.857 224.342 171.669 220.459 162.176C219.706 162.176 218.895 162.234 218.141 162.292Z" fill="#2B0020"/>
<path d="M276.674 193.377C272.211 193.319 269.603 196.155 269.545 200.96C269.487 205.649 272.153 209.064 276.152 209.295C280.672 209.585 284.265 205.822 284.033 201.018C283.86 196.503 280.904 193.435 276.674 193.377Z" fill="#2B0020"/>
<path d="M196.351 201.596C202.61 200.728 204.059 197.602 203.943 193.608C203.827 189.498 201.509 186.372 197.394 186.372C192.932 186.372 190.962 190.366 191.657 194.013C192.121 197.023 194.96 199.512 196.351 201.596Z" fill="#2B0020"/>
<path d="M179.777 211.61C185.109 216.009 190.266 215.025 197.047 212.421C190.324 207.848 184.993 210.221 179.777 211.61Z" fill="#2B0020"/>
<path d="M293.595 226.429C290.755 225.502 287.857 224.634 285.018 223.708C284.844 224.171 284.67 224.634 284.438 225.097C285.771 225.676 287.046 226.313 288.379 226.718C289.944 227.181 291.624 227.413 293.247 227.702C293.421 227.297 293.479 226.834 293.595 226.429Z" fill="#2B0020"/>
</svg>
