<svg width="155" height="119" viewBox="0 0 155 119" fill="none" xmlns="http://www.w3.org/2000/svg">
<g filter="url(#filter0_d_2013_62)">
<rect x="4" width="143" height="87" rx="18" fill="#F5F5F5"/>
</g>
<rect x="8.5" y="4.5" width="134" height="37" rx="15.5" fill="#DEF0FF" stroke="#0A77F3"/>
<mask id="mask0_2013_62" style="mask-type:alpha" maskUnits="userSpaceOnUse" x="21" y="12" width="24" height="24">
<rect x="21" y="12" width="24" height="24" fill="#0A77F3"/>
</mask>
<g mask="url(#mask0_2013_62)">
<path d="M35.8977 26.975C36.6932 26.1583 37.0909 25.1667 37.0909 24C37.0909 22.8333 36.6932 21.8417 35.8977 21.025C35.1023 20.2083 34.1364 19.8 33 19.8C31.8636 19.8 30.8977 20.2083 30.1023 21.025C29.3068 21.8417 28.9091 22.8333 28.9091 24C28.9091 25.1667 29.3068 26.1583 30.1023 26.975C30.8977 27.7917 31.8636 28.2 33 28.2C34.1364 28.2 35.1023 27.7917 35.8977 26.975ZM31.2614 25.785C30.7841 25.295 30.5455 24.7 30.5455 24C30.5455 23.3 30.7841 22.705 31.2614 22.215C31.7386 21.725 32.3182 21.48 33 21.48C33.6818 21.48 34.2614 21.725 34.7386 22.215C35.2159 22.705 35.4545 23.3 35.4545 24C35.4545 24.7 35.2159 25.295 34.7386 25.785C34.2614 26.275 33.6818 26.52 33 26.52C32.3182 26.52 31.7386 26.275 31.2614 25.785ZM26.9545 29.0983C25.1364 27.8306 23.8182 26.1311 23 24C23.8182 21.8689 25.1364 20.1694 26.9545 18.9017C28.7727 17.6339 30.7879 17 33 17C35.2121 17 37.2273 17.6339 39.0455 18.9017C40.8636 20.1694 42.1818 21.8689 43 24C42.1818 26.1311 40.8636 27.8306 39.0455 29.0983C37.2273 30.3661 35.2121 31 33 31C30.7879 31 28.7727 30.3661 26.9545 29.0983ZM37.7159 27.745C39.1477 26.8194 40.2424 25.5711 41 24C40.2424 22.4289 39.1477 21.1806 37.7159 20.255C36.2841 19.3294 34.7121 18.8667 33 18.8667C31.2879 18.8667 29.7159 19.3294 28.2841 20.255C26.8523 21.1806 25.7576 22.4289 25 24C25.7576 25.5711 26.8523 26.8194 28.2841 27.745C29.7159 28.6706 31.2879 29.1333 33 29.1333C34.7121 29.1333 36.2841 28.6706 37.7159 27.745Z" fill="#0A77F3"/>
</g>
<path d="M57.952 17.8C59.3707 17.8 60.4693 18.136 61.248 18.808C62.0267 19.48 62.416 20.424 62.416 21.64C62.416 22.9093 62.0267 23.896 61.248 24.6C60.4693 25.304 59.3707 25.656 57.952 25.656H54.576L55.52 24.712V29H53.376V17.8H57.952ZM57.856 23.88C58.656 23.88 59.2693 23.6987 59.696 23.336C60.1333 22.9733 60.352 22.424 60.352 21.688C60.352 20.984 60.1333 20.4613 59.696 20.12C59.2693 19.768 58.656 19.592 57.856 19.592H54.576L55.52 18.648V24.824L54.576 23.88H57.856ZM69.0849 22.28C68.4875 22.2373 67.9702 22.328 67.5329 22.552C67.0955 22.7653 66.7595 23.0747 66.5249 23.48C66.2902 23.8853 66.1729 24.3493 66.1729 24.872L65.6129 24.808C65.6129 23.8587 65.7515 23.0587 66.0289 22.408C66.3062 21.7467 66.7062 21.2453 67.2289 20.904C67.7515 20.5627 68.3702 20.392 69.0849 20.392V22.28ZM64.0929 20.472H66.1729V29H64.0929V20.472ZM76.322 24.088C76.3007 23.64 76.1993 23.2613 76.018 22.952C75.8367 22.632 75.5807 22.3867 75.25 22.216C74.93 22.0347 74.562 21.944 74.146 21.944C73.666 21.944 73.25 22.056 72.898 22.28C72.546 22.504 72.2687 22.8187 72.066 23.224C71.874 23.6293 71.778 24.0987 71.778 24.632C71.778 25.2187 71.8847 25.7253 72.098 26.152C72.322 26.5787 72.626 26.9093 73.01 27.144C73.394 27.368 73.8367 27.48 74.338 27.48C75.2447 27.48 76.018 27.1547 76.658 26.504L77.762 27.608C77.3353 28.0773 76.818 28.44 76.21 28.696C75.602 28.952 74.9247 29.08 74.178 29.08C73.282 29.08 72.5033 28.8987 71.842 28.536C71.1913 28.1627 70.6793 27.656 70.306 27.016C69.9433 26.3653 69.762 25.608 69.762 24.744C69.762 23.88 69.9433 23.1227 70.306 22.472C70.6793 21.8213 71.1913 21.3147 71.842 20.952C72.5033 20.5893 73.2607 20.4027 74.114 20.392C75.1273 20.392 75.9433 20.6 76.562 21.016C77.1913 21.432 77.6393 22.0187 77.906 22.776C78.1727 23.5227 78.2687 24.4133 78.194 25.448H71.474V24.088H76.322ZM78.4059 20.472H80.5819L82.8219 27.08L85.0139 20.472H87.1099L83.8459 29H81.7019L78.4059 20.472ZM88.3116 20.472H90.3916V29H88.3116V20.472ZM89.3356 16.84C89.677 16.84 89.9596 16.952 90.1836 17.176C90.4076 17.4 90.5196 17.6827 90.5196 18.024C90.5196 18.3547 90.4076 18.6373 90.1836 18.872C89.9596 19.096 89.677 19.208 89.3356 19.208C89.005 19.208 88.7276 19.096 88.5036 18.872C88.2796 18.6373 88.1676 18.3547 88.1676 18.024C88.1676 17.6827 88.2796 17.4 88.5036 17.176C88.7276 16.952 89.005 16.84 89.3356 16.84ZM98.7439 24.088C98.7225 23.64 98.6212 23.2613 98.4399 22.952C98.2585 22.632 98.0025 22.3867 97.6719 22.216C97.3519 22.0347 96.9839 21.944 96.5679 21.944C96.0879 21.944 95.6719 22.056 95.3199 22.28C94.9679 22.504 94.6905 22.8187 94.4879 23.224C94.2959 23.6293 94.1999 24.0987 94.1999 24.632C94.1999 25.2187 94.3065 25.7253 94.5199 26.152C94.7439 26.5787 95.0479 26.9093 95.4319 27.144C95.8159 27.368 96.2585 27.48 96.7599 27.48C97.6665 27.48 98.4399 27.1547 99.0799 26.504L100.184 27.608C99.7572 28.0773 99.2399 28.44 98.6319 28.696C98.0239 28.952 97.3465 29.08 96.5999 29.08C95.7039 29.08 94.9252 28.8987 94.2639 28.536C93.6132 28.1627 93.1012 27.656 92.7279 27.016C92.3652 26.3653 92.1839 25.608 92.1839 24.744C92.1839 23.88 92.3652 23.1227 92.7279 22.472C93.1012 21.8213 93.6132 21.3147 94.2639 20.952C94.9252 20.5893 95.6825 20.4027 96.5359 20.392C97.5492 20.392 98.3652 20.6 98.9839 21.016C99.6132 21.432 100.061 22.0187 100.328 22.776C100.595 23.5227 100.691 24.4133 100.616 25.448H93.8959V24.088H98.7439ZM100.828 20.472H102.972L105.068 27.048L107.1 20.472H109.196L111.26 27.048L113.308 20.472H115.42L112.3 29H110.156L108.14 22.824L106.092 29H103.98L100.828 20.472Z" fill="#0A77F3"/>
<rect x="8" y="99" width="135" height="20" rx="10" fill="#0A77F3"/>
<path d="M35.8494 108.176C35.5694 108.008 35.2614 107.876 34.9254 107.78C34.5974 107.676 34.2934 107.624 34.0134 107.624C33.7414 107.624 33.5174 107.676 33.3414 107.78C33.1654 107.884 33.0774 108.056 33.0774 108.296C33.0774 108.496 33.1574 108.656 33.3174 108.776C33.4854 108.888 33.6974 108.984 33.9534 109.064C34.2094 109.144 34.4814 109.228 34.7694 109.316C35.0574 109.404 35.3294 109.52 35.5854 109.664C35.8494 109.8 36.0614 109.988 36.2214 110.228C36.3814 110.468 36.4614 110.784 36.4614 111.176C36.4614 111.608 36.3454 111.964 36.1134 112.244C35.8894 112.516 35.5894 112.72 35.2134 112.856C34.8454 112.984 34.4454 113.048 34.0134 113.048C33.5494 113.048 33.0854 112.972 32.6214 112.82C32.1574 112.668 31.7654 112.448 31.4454 112.16L31.9374 111.224C32.2174 111.472 32.5574 111.668 32.9574 111.812C33.3574 111.948 33.7294 112.016 34.0734 112.016C34.2734 112.016 34.4494 111.992 34.6014 111.944C34.7614 111.888 34.8854 111.808 34.9734 111.704C35.0694 111.6 35.1174 111.464 35.1174 111.296C35.1174 111.072 35.0374 110.896 34.8774 110.768C34.7174 110.64 34.5094 110.536 34.2534 110.456C33.9974 110.368 33.7254 110.284 33.4374 110.204C33.1494 110.116 32.8774 110.004 32.6214 109.868C32.3734 109.732 32.1694 109.548 32.0094 109.316C31.8494 109.084 31.7694 108.776 31.7694 108.392C31.7694 107.96 31.8814 107.612 32.1054 107.348C32.3294 107.076 32.6174 106.88 32.9694 106.76C33.3294 106.632 33.7134 106.568 34.1214 106.568C34.5214 106.568 34.9214 106.624 35.3214 106.736C35.7214 106.848 36.0654 107.004 36.3534 107.204L35.8494 108.176ZM39.9381 110.156C39.4901 110.156 39.1581 110.224 38.9421 110.36C38.7261 110.496 38.6181 110.72 38.6181 111.032C38.6181 111.328 38.7261 111.564 38.9421 111.74C39.1661 111.916 39.4701 112.004 39.8541 112.004C40.1981 112.004 40.5061 111.944 40.7781 111.824C41.0501 111.704 41.2661 111.544 41.4261 111.344C41.5861 111.136 41.6701 110.904 41.6781 110.648L41.9421 111.812C41.7421 112.228 41.4381 112.54 41.0301 112.748C40.6221 112.956 40.1341 113.06 39.5661 113.06C39.1101 113.06 38.7141 112.972 38.3781 112.796C38.0421 112.62 37.7821 112.384 37.5981 112.088C37.4141 111.784 37.3221 111.448 37.3221 111.08C37.3221 110.504 37.5301 110.044 37.9461 109.7C38.3701 109.356 38.9661 109.18 39.7341 109.172H41.8461V110.156H39.9381ZM41.6661 108.956C41.6661 108.54 41.5381 108.216 41.2821 107.984C41.0261 107.752 40.6461 107.636 40.1421 107.636C39.8381 107.636 39.5261 107.692 39.2061 107.804C38.8941 107.916 38.5781 108.08 38.2581 108.296L37.6941 107.408C37.9901 107.224 38.2701 107.072 38.5341 106.952C38.7981 106.832 39.0781 106.74 39.3741 106.676C39.6781 106.612 40.0341 106.58 40.4421 106.58C41.2661 106.58 41.8981 106.78 42.3381 107.18C42.7861 107.572 43.0141 108.116 43.0221 108.812L43.0341 113H41.6781L41.6661 108.956ZM46.0573 110.228C46.0573 110.724 46.1893 111.116 46.4533 111.404C46.7173 111.684 47.0813 111.824 47.5453 111.824C48.0973 111.808 48.5253 111.604 48.8293 111.212C49.1413 110.82 49.2973 110.336 49.2973 109.76H49.6693C49.6693 110.544 49.5613 111.176 49.3453 111.656C49.1293 112.136 48.8213 112.488 48.4213 112.712C48.0293 112.928 47.5613 113.04 47.0173 113.048C46.5293 113.048 46.1093 112.948 45.7573 112.748C45.4133 112.548 45.1453 112.264 44.9533 111.896C44.7693 111.528 44.6773 111.092 44.6773 110.588V106.628H46.0573V110.228ZM49.2973 106.628H50.6773V113H49.2973V106.628ZM57.2212 108.452C56.9972 108.22 56.7332 108.04 56.4292 107.912C56.1252 107.784 55.7812 107.72 55.3972 107.72C55.0292 107.72 54.7012 107.808 54.4132 107.984C54.1252 108.16 53.9012 108.408 53.7412 108.728C53.5812 109.04 53.5012 109.404 53.5012 109.82C53.5012 110.236 53.5812 110.604 53.7412 110.924C53.9012 111.236 54.1252 111.484 54.4132 111.668C54.7012 111.844 55.0292 111.932 55.3972 111.932C55.7972 111.932 56.1572 111.868 56.4772 111.74C56.7972 111.604 57.0652 111.408 57.2812 111.152L58.0492 111.908C57.7612 112.268 57.3852 112.548 56.9212 112.748C56.4652 112.948 55.9372 113.048 55.3372 113.048C54.7052 113.048 54.1452 112.912 53.6572 112.64C53.1772 112.368 52.8012 111.992 52.5292 111.512C52.2572 111.024 52.1212 110.46 52.1212 109.82C52.1212 109.18 52.2572 108.62 52.5292 108.14C52.8012 107.652 53.1772 107.272 53.6572 107C54.1452 106.72 54.7052 106.58 55.3372 106.58C55.9132 106.58 56.4212 106.668 56.8612 106.844C57.3092 107.012 57.6812 107.252 57.9772 107.564L57.2212 108.452ZM63.6528 109.352C63.6368 108.992 63.5528 108.688 63.4008 108.44C63.2568 108.184 63.0528 107.988 62.7888 107.852C62.5248 107.708 62.2208 107.636 61.8768 107.636C61.4928 107.636 61.1568 107.724 60.8688 107.9C60.5888 108.076 60.3688 108.324 60.2088 108.644C60.0488 108.956 59.9688 109.324 59.9688 109.748C59.9688 110.204 60.0528 110.6 60.2208 110.936C60.3968 111.272 60.6368 111.532 60.9408 111.716C61.2528 111.9 61.6088 111.992 62.0088 111.992C62.7208 111.992 63.3208 111.74 63.8088 111.236L64.5408 111.968C64.2288 112.312 63.8488 112.58 63.4008 112.772C62.9528 112.956 62.4528 113.048 61.9008 113.048C61.2448 113.048 60.6728 112.912 60.1848 112.64C59.6968 112.368 59.3168 111.992 59.0448 111.512C58.7728 111.024 58.6368 110.46 58.6368 109.82C58.6368 109.18 58.7728 108.62 59.0448 108.14C59.3168 107.652 59.6968 107.272 60.1848 107C60.6728 106.728 61.2328 106.588 61.8648 106.58C62.6168 106.58 63.2208 106.736 63.6768 107.048C64.1328 107.352 64.4568 107.784 64.6488 108.344C64.8408 108.904 64.9088 109.568 64.8528 110.336H59.7528V109.352H63.6528ZM66.0035 108.896H68.9555V109.808H66.0035V108.896ZM74.3815 106.58C74.9895 106.58 75.5215 106.716 75.9775 106.988C76.4335 107.26 76.7895 107.64 77.0455 108.128C77.3015 108.616 77.4295 109.184 77.4295 109.832C77.4295 110.464 77.3015 111.024 77.0455 111.512C76.7975 111.992 76.4455 112.368 75.9895 112.64C75.5415 112.912 75.0135 113.048 74.4055 113.048C73.8215 113.048 73.3215 112.92 72.9055 112.664C72.4975 112.408 72.1855 112.04 71.9695 111.56C71.7535 111.072 71.6455 110.496 71.6455 109.832C71.6455 109.144 71.7535 108.56 71.9695 108.08C72.1855 107.592 72.4975 107.22 72.9055 106.964C73.3215 106.708 73.8135 106.58 74.3815 106.58ZM74.0935 107.672C73.7175 107.672 73.3815 107.764 73.0855 107.948C72.7895 108.132 72.5575 108.384 72.3895 108.704C72.2295 109.016 72.1495 109.38 72.1495 109.796C72.1495 110.212 72.2295 110.584 72.3895 110.912C72.5575 111.232 72.7895 111.484 73.0855 111.668C73.3815 111.844 73.7175 111.932 74.0935 111.932C74.4775 111.932 74.8135 111.84 75.1015 111.656C75.3975 111.472 75.6255 111.22 75.7855 110.9C75.9535 110.58 76.0375 110.212 76.0375 109.796C76.0375 109.388 75.9535 109.024 75.7855 108.704C75.6255 108.384 75.3975 108.132 75.1015 107.948C74.8135 107.764 74.4775 107.672 74.0935 107.672ZM70.7695 104.096H72.1495V113H70.7695V104.096ZM80.9537 110.156C80.5057 110.156 80.1737 110.224 79.9577 110.36C79.7417 110.496 79.6337 110.72 79.6337 111.032C79.6337 111.328 79.7417 111.564 79.9577 111.74C80.1817 111.916 80.4857 112.004 80.8697 112.004C81.2137 112.004 81.5217 111.944 81.7937 111.824C82.0657 111.704 82.2817 111.544 82.4417 111.344C82.6017 111.136 82.6857 110.904 82.6937 110.648L82.9577 111.812C82.7577 112.228 82.4537 112.54 82.0457 112.748C81.6377 112.956 81.1497 113.06 80.5817 113.06C80.1257 113.06 79.7297 112.972 79.3937 112.796C79.0577 112.62 78.7977 112.384 78.6137 112.088C78.4297 111.784 78.3377 111.448 78.3377 111.08C78.3377 110.504 78.5457 110.044 78.9617 109.7C79.3857 109.356 79.9817 109.18 80.7497 109.172H82.8617V110.156H80.9537ZM82.6817 108.956C82.6817 108.54 82.5537 108.216 82.2977 107.984C82.0417 107.752 81.6617 107.636 81.1577 107.636C80.8537 107.636 80.5417 107.692 80.2217 107.804C79.9097 107.916 79.5937 108.08 79.2737 108.296L78.7097 107.408C79.0057 107.224 79.2857 107.072 79.5497 106.952C79.8137 106.832 80.0937 106.74 80.3897 106.676C80.6937 106.612 81.0497 106.58 81.4577 106.58C82.2817 106.58 82.9137 106.78 83.3537 107.18C83.8017 107.572 84.0297 108.116 84.0377 108.812L84.0497 113H82.6937L82.6817 108.956ZM89.569 106.58C90.177 106.58 90.709 106.716 91.165 106.988C91.621 107.26 91.977 107.64 92.233 108.128C92.489 108.616 92.617 109.184 92.617 109.832C92.617 110.464 92.489 111.024 92.233 111.512C91.985 111.992 91.633 112.368 91.177 112.64C90.729 112.912 90.201 113.048 89.593 113.048C89.009 113.048 88.509 112.92 88.093 112.664C87.685 112.408 87.373 112.04 87.157 111.56C86.941 111.072 86.833 110.496 86.833 109.832C86.833 109.144 86.941 108.56 87.157 108.08C87.373 107.592 87.685 107.22 88.093 106.964C88.509 106.708 89.001 106.58 89.569 106.58ZM89.281 107.672C88.905 107.672 88.569 107.764 88.273 107.948C87.977 108.132 87.745 108.384 87.577 108.704C87.417 109.016 87.337 109.38 87.337 109.796C87.337 110.212 87.417 110.584 87.577 110.912C87.745 111.232 87.977 111.484 88.273 111.668C88.569 111.844 88.905 111.932 89.281 111.932C89.665 111.932 90.001 111.84 90.289 111.656C90.585 111.472 90.813 111.22 90.973 110.9C91.141 110.58 91.225 110.212 91.225 109.796C91.225 109.388 91.141 109.024 90.973 108.704C90.813 108.384 90.585 108.132 90.289 107.948C90.001 107.764 89.665 107.672 89.281 107.672ZM85.957 104.096H87.337V113H85.957V104.096ZM96.3268 113.9C96.1268 114.388 95.8508 114.756 95.4988 115.004C95.1468 115.26 94.7308 115.388 94.2508 115.388C93.9628 115.388 93.6988 115.344 93.4588 115.256C93.2268 115.168 92.9988 115.036 92.7748 114.86L93.3628 113.84C93.6508 114.048 93.9268 114.152 94.1908 114.152C94.3988 114.152 94.5868 114.092 94.7548 113.972C94.9228 113.852 95.0588 113.668 95.1628 113.42L95.3788 112.916L92.7388 106.628H94.1668L96.0748 111.548L97.8508 106.628H99.2308L96.3268 113.9ZM100.365 111.584C100.581 111.584 100.761 111.656 100.905 111.8C101.049 111.936 101.121 112.116 101.121 112.34C101.121 112.564 101.049 112.748 100.905 112.892C100.761 113.036 100.581 113.108 100.365 113.108C100.149 113.108 99.9686 113.036 99.8246 112.892C99.6806 112.748 99.6086 112.564 99.6086 112.34C99.6086 112.116 99.6806 111.936 99.8246 111.8C99.9686 111.656 100.149 111.584 100.365 111.584ZM101.25 114.164C101.346 114.196 101.442 114.22 101.538 114.236C101.626 114.26 101.718 114.276 101.814 114.284C102.39 114.3 102.678 113.908 102.678 113.108V106.628H104.058V113.3C104.058 113.964 103.886 114.476 103.542 114.836C103.198 115.204 102.718 115.384 102.102 115.376C101.67 115.36 101.286 115.284 100.95 115.148L101.25 114.164ZM103.362 104C103.594 104 103.786 104.076 103.938 104.228C104.09 104.38 104.166 104.572 104.166 104.804C104.166 105.028 104.09 105.22 103.938 105.38C103.786 105.532 103.594 105.608 103.362 105.608C103.138 105.608 102.946 105.532 102.786 105.38C102.634 105.22 102.558 105.028 102.558 104.804C102.558 104.572 102.634 104.38 102.786 104.228C102.946 104.076 103.138 104 103.362 104ZM109.667 106.58C110.275 106.58 110.807 106.716 111.263 106.988C111.719 107.26 112.075 107.64 112.331 108.128C112.587 108.616 112.715 109.184 112.715 109.832C112.715 110.464 112.587 111.024 112.331 111.512C112.083 111.992 111.731 112.368 111.275 112.64C110.827 112.912 110.299 113.048 109.691 113.048C109.107 113.048 108.607 112.92 108.191 112.664C107.783 112.408 107.471 112.04 107.255 111.56C107.039 111.072 106.931 110.496 106.931 109.832C106.931 109.144 107.039 108.56 107.255 108.08C107.471 107.592 107.783 107.22 108.191 106.964C108.607 106.708 109.099 106.58 109.667 106.58ZM109.379 107.672C109.003 107.672 108.667 107.764 108.371 107.948C108.075 108.132 107.843 108.384 107.675 108.704C107.515 109.016 107.435 109.38 107.435 109.796C107.435 110.212 107.515 110.584 107.675 110.912C107.843 111.232 108.075 111.484 108.371 111.668C108.667 111.844 109.003 111.932 109.379 111.932C109.763 111.932 110.099 111.84 110.387 111.656C110.683 111.472 110.911 111.22 111.071 110.9C111.239 110.58 111.323 110.212 111.323 109.796C111.323 109.388 111.239 109.024 111.071 108.704C110.911 108.384 110.683 108.132 110.387 107.948C110.099 107.764 109.763 107.672 109.379 107.672ZM106.055 106.628H107.435V115.328H106.055V106.628ZM119.911 112.364C119.911 112.98 119.775 113.512 119.503 113.96C119.231 114.408 118.847 114.752 118.351 114.992C117.855 115.24 117.271 115.364 116.599 115.364C116.103 115.364 115.635 115.288 115.195 115.136C114.755 114.992 114.339 114.788 113.947 114.524L114.535 113.576C114.839 113.8 115.151 113.972 115.471 114.092C115.791 114.22 116.147 114.284 116.539 114.284C116.947 114.284 117.299 114.204 117.595 114.044C117.899 113.892 118.131 113.676 118.291 113.396C118.459 113.116 118.543 112.784 118.543 112.4V106.628H119.911V112.364ZM116.383 106.58C116.943 106.572 117.419 106.692 117.811 106.94C118.211 107.18 118.515 107.528 118.723 107.984C118.931 108.44 119.031 108.988 119.023 109.628C119.031 110.268 118.931 110.82 118.723 111.284C118.523 111.74 118.227 112.092 117.835 112.34C117.451 112.58 116.983 112.7 116.431 112.7C115.855 112.7 115.351 112.572 114.919 112.316C114.487 112.052 114.151 111.688 113.911 111.224C113.671 110.76 113.551 110.224 113.551 109.616C113.551 109.016 113.667 108.492 113.899 108.044C114.139 107.588 114.471 107.232 114.895 106.976C115.327 106.712 115.823 106.58 116.383 106.58ZM116.707 107.636C116.347 107.636 116.027 107.724 115.747 107.9C115.467 108.068 115.247 108.304 115.087 108.608C114.935 108.912 114.855 109.26 114.847 109.652C114.855 110.044 114.935 110.392 115.087 110.696C115.247 111 115.463 111.24 115.735 111.416C116.015 111.584 116.339 111.668 116.707 111.668C117.067 111.668 117.383 111.584 117.655 111.416C117.935 111.24 118.151 111 118.303 110.696C118.463 110.392 118.543 110.044 118.543 109.652C118.543 109.252 118.463 108.904 118.303 108.608C118.151 108.304 117.935 108.068 117.655 107.9C117.383 107.724 117.067 107.636 116.707 107.636Z" fill="#F5F5F5"/>
<mask id="mask1_2013_62" style="mask-type:alpha" maskUnits="userSpaceOnUse" x="18" y="46" width="34" height="34">
<rect x="18" y="62.9705" width="24" height="24" transform="rotate(-45 18 62.9705)" fill="#252525"/>
</mask>
<g mask="url(#mask1_2013_62)">
<path d="M37.799 67.2132L34.9706 70.0416C33.9924 71.0198 32.8139 71.5089 31.435 71.5089C30.0562 71.5089 28.8777 71.0198 27.8995 70.0416C26.9213 69.0635 26.4322 67.885 26.4322 66.5061C26.4322 65.1272 26.9213 63.9487 27.8995 62.9706L30.7279 60.1421L32.1421 61.5564L29.3137 64.3848C28.7244 64.974 28.4298 65.6811 28.4298 66.5061C28.4298 67.3311 28.7244 68.0382 29.3137 68.6274C29.903 69.2167 30.6101 69.5113 31.435 69.5113C32.26 69.5113 32.9671 69.2167 33.5563 68.6274L36.3848 65.799L37.799 67.2132ZM32.8492 66.5061L31.435 65.0919L37.0919 59.435L38.5061 60.8492L32.8492 66.5061ZM39.2132 65.799L37.799 64.3848L40.6274 61.5564C41.2167 60.9671 41.5113 60.26 41.5113 59.435C41.5113 58.6101 41.2167 57.903 40.6274 57.3137C40.0382 56.7245 39.331 56.4298 38.5061 56.4298C37.6811 56.4298 36.974 56.7245 36.3848 57.3137L33.5563 60.1421L32.1421 58.7279L34.9706 55.8995C35.9487 54.9213 37.1272 54.4323 38.5061 54.4323C39.8849 54.4323 41.0635 54.9213 42.0416 55.8995C43.0198 56.8777 43.5089 58.0562 43.5089 59.435C43.5089 60.8139 43.0198 61.9924 42.0416 62.9706L39.2132 65.799Z" fill="#252525"/>
</g>
<path d="M61.488 60.92C61.0933 60.472 60.624 60.12 60.08 59.864C59.536 59.5973 58.992 59.464 58.448 59.464C57.9253 59.464 57.4347 59.5653 56.976 59.768C56.528 59.96 56.128 60.2373 55.776 60.6C55.4347 60.952 55.168 61.3627 54.976 61.832C54.784 62.3013 54.688 62.808 54.688 63.352C54.688 63.896 54.784 64.408 54.976 64.888C55.168 65.3573 55.4347 65.768 55.776 66.12C56.128 66.472 56.528 66.7493 56.976 66.952C57.4347 67.1547 57.9253 67.256 58.448 67.256C58.992 67.256 59.5307 67.1387 60.064 66.904C60.5973 66.6587 61.072 66.328 61.488 65.912L62.752 67.24C62.3787 67.624 61.9467 67.96 61.456 68.248C60.976 68.536 60.4693 68.76 59.936 68.92C59.4133 69.0693 58.88 69.144 58.336 69.144C57.5147 69.144 56.7467 69 56.032 68.712C55.328 68.4133 54.7093 68.0027 54.176 67.48C53.6533 66.9573 53.2427 66.344 52.944 65.64C52.6453 64.936 52.496 64.184 52.496 63.384C52.496 62.5733 52.6453 61.8267 52.944 61.144C53.2427 60.4507 53.664 59.8427 54.208 59.32C54.752 58.7973 55.376 58.392 56.08 58.104C56.7947 57.816 57.5733 57.672 58.416 57.672C58.96 57.672 59.488 57.7467 60 57.896C60.5227 58.0347 61.0187 58.2373 61.488 58.504C61.9573 58.76 62.3733 59.0747 62.736 59.448L61.488 60.92ZM67.9619 60.392C68.8472 60.392 69.6259 60.5733 70.2979 60.936C70.9805 61.2987 71.5085 61.8053 71.8819 62.456C72.2659 63.1067 72.4579 63.864 72.4579 64.728C72.4579 65.592 72.2659 66.3493 71.8819 67C71.5085 67.6507 70.9805 68.1627 70.2979 68.536C69.6259 68.8987 68.8472 69.08 67.9619 69.08C67.0659 69.08 66.2765 68.8987 65.5939 68.536C64.9112 68.1627 64.3779 67.6507 63.9939 67C63.6205 66.3493 63.4339 65.592 63.4339 64.728C63.4339 63.864 63.6205 63.1067 63.9939 62.456C64.3779 61.8053 64.9112 61.2987 65.5939 60.936C66.2765 60.5733 67.0659 60.392 67.9619 60.392ZM67.9619 62.072C67.4819 62.072 67.0552 62.1893 66.6819 62.424C66.3192 62.648 66.0365 62.9627 65.8339 63.368C65.6312 63.7627 65.5299 64.2213 65.5299 64.744C65.5299 65.2773 65.6312 65.7467 65.8339 66.152C66.0365 66.5573 66.3192 66.872 66.6819 67.096C67.0552 67.32 67.4819 67.432 67.9619 67.432C68.4312 67.432 68.8472 67.32 69.2099 67.096C69.5725 66.872 69.8552 66.5573 70.0579 66.152C70.2605 65.7467 70.3619 65.2773 70.3619 64.744C70.3619 64.2213 70.2605 63.7627 70.0579 63.368C69.8552 62.9627 69.5725 62.648 69.2099 62.424C68.8472 62.1893 68.4312 62.072 67.9619 62.072ZM79.3048 60.392C80.1154 60.392 80.8248 60.5733 81.4328 60.936C82.0408 61.2987 82.5101 61.8107 82.8408 62.472C83.1821 63.1227 83.3528 63.8853 83.3528 64.76C83.3528 65.6133 83.1874 66.3653 82.8568 67.016C82.5261 67.656 82.0568 68.1627 81.4488 68.536C80.8514 68.8987 80.1474 69.08 79.3368 69.08C78.5794 69.08 77.9288 68.9093 77.3848 68.568C76.8408 68.216 76.4248 67.7147 76.1368 67.064C75.8488 66.4133 75.7048 65.6453 75.7048 64.76C75.7048 63.8427 75.8434 63.0587 76.1208 62.408C76.4088 61.7573 76.8248 61.2613 77.3688 60.92C77.9128 60.568 78.5581 60.392 79.3048 60.392ZM78.8408 62.04C78.3714 62.04 77.9501 62.1573 77.5768 62.392C77.2141 62.616 76.9314 62.9307 76.7288 63.336C76.5261 63.7307 76.4248 64.1893 76.4248 64.712C76.4248 65.2347 76.5261 65.6987 76.7288 66.104C76.9314 66.5093 77.2141 66.824 77.5768 67.048C77.9501 67.272 78.3714 67.384 78.8408 67.384C79.3208 67.384 79.7368 67.272 80.0888 67.048C80.4514 66.8133 80.7341 66.4987 80.9368 66.104C81.1394 65.6987 81.2408 65.2347 81.2408 64.712C81.2408 64.1893 81.1394 63.7307 80.9368 63.336C80.7341 62.9307 80.4514 62.616 80.0888 62.392C79.7368 62.1573 79.3208 62.04 78.8408 62.04ZM74.3448 60.472H76.4248V72.104H74.3448V60.472ZM88.5225 70.12C88.2452 70.8027 87.8612 71.32 87.3705 71.672C86.8798 72.024 86.2932 72.2 85.6105 72.2C85.1945 72.2 84.8158 72.136 84.4745 72.008C84.1438 71.88 83.8132 71.6933 83.4825 71.448L84.3785 69.944C84.7625 70.232 85.1305 70.376 85.4825 70.376C85.7598 70.376 85.9998 70.3013 86.2025 70.152C86.4158 70.0027 86.5918 69.7733 86.7305 69.464L86.9865 68.872L83.4505 60.472H85.6105L88.0425 66.808L90.2665 60.472H92.3625L88.5225 70.12ZM97.9541 57.128H100.034V69H97.9541V57.128ZM102.702 60.472H104.782V69H102.702V60.472ZM103.726 56.84C104.068 56.84 104.35 56.952 104.574 57.176C104.798 57.4 104.91 57.6827 104.91 58.024C104.91 58.3547 104.798 58.6373 104.574 58.872C104.35 59.096 104.068 59.208 103.726 59.208C103.396 59.208 103.118 59.096 102.894 58.872C102.67 58.6373 102.558 58.3547 102.558 58.024C102.558 57.6827 102.67 57.4 102.894 57.176C103.118 56.952 103.396 56.84 103.726 56.84ZM113.583 64.232C113.583 63.6133 113.412 63.128 113.071 62.776C112.74 62.424 112.276 62.248 111.679 62.248C110.985 62.248 110.436 62.4933 110.031 62.984C109.636 63.464 109.439 64.072 109.439 64.808H108.879C108.879 63.7627 109.023 62.92 109.311 62.28C109.609 61.6293 110.031 61.1547 110.575 60.856C111.129 60.5467 111.775 60.392 112.511 60.392C113.172 60.392 113.737 60.5253 114.207 60.792C114.676 61.0587 115.039 61.4373 115.295 61.928C115.551 62.408 115.679 62.9893 115.679 63.672V69H113.583V64.232ZM107.359 60.472H109.439V69H107.359V60.472ZM118.095 57.128H120.175V69H118.095V57.128ZM123.695 60.472H126.079L120.031 66.76V64.28L123.695 60.472ZM122.751 63.48L126.287 69H123.807L121.199 64.744L122.751 63.48Z" fill="#252525"/>
<g filter="url(#filter1_d_2013_62)">
<mask id="mask2_2013_62" style="mask-type:alpha" maskUnits="userSpaceOnUse" x="116" y="27" width="41" height="41">
<rect x="117.25" y="28.25" width="38.5" height="38.5" fill="#2A2A2A" stroke="white" stroke-width="1.5"/>
</mask>
<g mask="url(#mask2_2013_62)">
<path d="M139.236 62.9166L133.648 50.8916L127.25 59.8333V32.0833L148.833 49.0416H137.888L143.438 60.951L139.236 62.9166Z" fill="#2A2A2A" stroke="white" stroke-width="1.5"/>
</g>
</g>
<defs>
<filter id="filter0_d_2013_62" x="0" y="0" width="151" height="95" filterUnits="userSpaceOnUse" color-interpolation-filters="sRGB">
<feFlood flood-opacity="0" result="BackgroundImageFix"/>
<feColorMatrix in="SourceAlpha" type="matrix" values="0 0 0 0 0 0 0 0 0 0 0 0 0 0 0 0 0 0 127 0" result="hardAlpha"/>
<feOffset dy="4"/>
<feGaussianBlur stdDeviation="2"/>
<feComposite in2="hardAlpha" operator="out"/>
<feColorMatrix type="matrix" values="0 0 0 0 0 0 0 0 0 0 0 0 0 0 0 0 0 0 0.25 0"/>
<feBlend mode="normal" in2="BackgroundImageFix" result="effect1_dropShadow_2013_62"/>
<feBlend mode="normal" in="SourceGraphic" in2="effect1_dropShadow_2013_62" result="shape"/>
</filter>
<filter id="filter1_d_2013_62" x="122.5" y="30.54" width="32.5018" height="41.3745" filterUnits="userSpaceOnUse" color-interpolation-filters="sRGB">
<feFlood flood-opacity="0" result="BackgroundImageFix"/>
<feColorMatrix in="SourceAlpha" type="matrix" values="0 0 0 0 0 0 0 0 0 0 0 0 0 0 0 0 0 0 127 0" result="hardAlpha"/>
<feOffset dy="4"/>
<feGaussianBlur stdDeviation="2"/>
<feComposite in2="hardAlpha" operator="out"/>
<feColorMatrix type="matrix" values="0 0 0 0 0 0 0 0 0 0 0 0 0 0 0 0 0 0 0.25 0"/>
<feBlend mode="normal" in2="BackgroundImageFix" result="effect1_dropShadow_2013_62"/>
<feBlend mode="normal" in="SourceGraphic" in2="effect1_dropShadow_2013_62" result="shape"/>
</filter>
</defs>
</svg>
